{"glyphs":{"0":{"ha":929,"x_min":68,"x_max":861,"o":"m 451 10 q 249 66 335 10 q 115 226 163 122 q 68 471 68 329 q 117 732 68 619 q 256 907 167 844 q 465 969 344 969 q 674 910 585 969 q 812 746 763 851 q 861 500 861 640 q 810 239 861 349 q 668 69 760 129 q 451 10 576 10 m 469 182 q 607 260 556 182 q 658 499 658 339 q 607 721 658 649 q 469 793 556 793 q 333 721 385 793 q 281 499 281 649 q 333 260 281 339 q 469 182 385 182 z "},"1":{"ha":513,"x_min":31,"x_max":421,"o":"m 304 961 q 347 946 331 961 q 378 894 364 931 q 410 742 399 839 q 421 506 421 644 q 413 332 421 419 q 393 172 406 244 q 364 58 381 100 q 332 2 349 19 q 289 -15 315 -15 q 247 6 263 -15 q 221 74 231 28 q 206 190 211 122 q 201 332 201 257 q 210 481 201 403 q 233 633 218 558 q 268 771 249 708 l 276 769 q 181 692 233 719 q 81 664 128 664 q 44 676 57 664 q 31 711 31 689 q 55 798 31 754 q 119 878 79 842 q 208 938 160 915 q 304 961 257 961 z "},"2":{"ha":733,"x_min":35,"x_max":699,"o":"m 346 954 q 611 878 524 954 q 699 681 699 803 q 647 501 699 585 q 483 335 594 417 q 192 165 371 254 l 213 196 q 559 172 456 203 q 663 76 663 142 q 627 7 663 32 q 518 -18 592 -18 q 403 -13 467 -18 q 274 1 339 -8 q 151 22 208 10 q 63 59 90 36 q 35 125 35 82 q 57 188 35 156 q 131 265 79 219 q 271 379 182 310 q 399 488 354 444 q 463 565 444 531 q 481 633 481 599 q 444 715 481 686 q 331 744 407 744 q 259 735 294 744 q 188 715 224 725 q 117 706 153 706 q 60 722 79 706 q 40 769 40 739 q 78 858 40 815 q 185 927 117 900 q 346 954 254 954 z "},"3":{"ha":739,"x_min":47,"x_max":683,"o":"m 374 968 q 531 942 463 968 q 638 863 599 915 q 678 729 678 810 q 612 566 678 638 q 407 463 546 494 l 400 479 q 614 404 544 467 q 683 242 683 342 q 644 111 683 169 q 526 19 604 53 q 328 -15 447 -15 q 159 1 221 -15 q 72 47 97 18 q 47 110 47 75 q 67 167 47 144 q 126 190 88 190 q 218 178 171 190 q 319 165 265 165 q 426 191 389 165 q 464 256 464 217 q 450 303 464 283 q 399 340 436 324 q 289 371 361 356 q 192 401 225 383 q 160 454 160 418 q 196 518 160 494 q 297 564 232 542 q 427 625 388 596 q 467 696 467 654 q 433 758 467 738 q 335 779 399 779 q 235 767 283 779 q 131 754 186 754 q 74 771 93 754 q 54 818 54 788 q 94 892 54 858 q 207 947 135 926 q 374 968 279 968 z "},"4":{"ha":804,"x_min":31,"x_max":774,"o":"m 454 -25 q 381 7 406 -25 q 357 99 357 39 q 366 188 357 140 q 392 281 375 235 l 400 261 q 288 236 354 246 q 154 226 221 226 q 60 248 90 226 q 31 308 31 269 q 54 447 31 368 q 115 610 78 526 q 190 761 151 693 q 324 928 251 868 q 489 989 396 989 q 617 944 579 989 q 656 815 656 900 q 640 626 656 733 q 596 407 625 518 l 578 422 q 619 433 597 429 q 660 436 642 436 q 774 344 774 436 q 738 272 774 297 q 646 247 703 247 q 598 251 621 247 q 558 260 575 254 l 569 267 q 575 201 572 240 q 578 125 578 161 q 545 13 578 51 q 454 -25 513 -25 m 281 413 q 360 431 325 413 q 419 485 394 450 q 456 570 443 521 q 469 681 469 619 q 452 755 469 731 q 407 779 435 779 q 335 753 369 779 q 272 687 300 728 q 226 597 243 646 q 210 500 210 547 q 229 433 210 453 q 281 413 249 413 z "},"5":{"ha":733,"x_min":47,"x_max":678,"o":"m 678 842 q 645 772 678 799 q 551 744 613 744 q 458 748 511 744 q 349 758 404 751 q 249 771 294 764 l 286 792 q 274 649 285 722 q 249 525 264 575 l 203 533 q 324 542 264 542 q 589 472 501 542 q 676 283 676 403 q 638 131 676 199 q 522 24 599 64 q 328 -15 444 -15 q 159 2 221 -15 q 72 49 97 19 q 47 117 47 79 q 67 174 47 151 q 126 197 88 197 q 230 185 174 197 q 333 172 286 172 q 451 197 410 172 q 492 268 492 222 q 449 347 492 322 q 328 372 406 372 q 254 371 293 372 q 192 369 215 369 q 115 391 139 369 q 90 468 90 413 q 94 587 90 518 q 106 723 99 656 q 119 833 113 790 q 161 926 131 894 q 256 958 192 958 q 360 956 301 958 q 478 949 419 954 q 582 938 538 944 q 678 842 678 924 z "},"6":{"ha":803,"x_min":42,"x_max":761,"o":"m 696 900 q 600 751 696 836 q 301 569 504 665 l 292 568 q 358 583 324 579 q 422 588 392 588 q 610 549 535 588 q 723 446 685 511 q 761 297 761 381 q 715 128 761 199 q 592 22 669 58 q 415 -14 514 -14 q 202 24 285 -14 q 81 128 119 61 q 42 282 42 194 q 65 439 42 364 q 135 590 88 514 q 257 749 183 665 q 388 877 325 826 q 507 953 451 928 q 608 978 563 978 q 672 957 649 978 q 696 900 696 936 m 403 438 q 274 399 319 438 q 228 301 228 361 q 272 213 228 246 q 390 179 315 179 q 519 218 472 179 q 565 317 565 257 q 520 406 565 374 q 403 438 475 438 z "},"7":{"ha":672,"x_min":31,"x_max":642,"o":"m 193 960 q 338 956 258 960 q 490 946 417 953 q 602 910 563 939 q 642 819 642 881 q 619 710 642 788 q 546 524 596 633 q 427 275 479 378 q 331 108 375 172 q 244 15 286 44 q 156 -15 201 -15 q 104 2 121 -15 q 88 54 88 19 q 109 153 88 93 q 168 286 131 214 q 259 445 206 358 q 376 624 313 532 q 506 799 439 715 l 521 782 q 340 767 436 772 q 169 763 243 761 q 31 846 31 764 q 74 933 31 906 q 193 960 118 960 z "},"8":{"ha":849,"x_min":56,"x_max":793,"o":"m 435 979 q 693 910 606 979 q 781 710 781 840 q 725 546 781 613 q 579 446 669 479 l 574 493 q 735 413 678 474 q 793 249 793 353 q 699 53 793 122 q 397 -15 604 -15 q 196 15 271 -15 q 88 99 121 44 q 56 222 56 153 q 125 399 56 329 q 322 494 194 469 l 326 436 q 148 507 217 442 q 79 693 79 572 q 126 853 79 789 q 254 948 174 917 q 435 979 335 979 m 582 683 q 536 758 582 736 q 428 781 490 781 q 297 750 343 781 q 250 668 250 719 q 285 594 250 621 q 401 568 321 568 q 536 596 490 568 q 582 683 582 624 m 429 396 q 293 360 339 396 q 247 278 247 325 q 290 201 247 224 q 415 178 332 178 q 554 210 511 178 q 597 293 597 242 q 563 367 597 339 q 429 396 528 396 z "},"9":{"ha":789,"x_min":42,"x_max":747,"o":"m 65 108 q 94 173 65 149 q 175 197 124 197 q 240 195 203 197 q 300 193 278 193 q 438 221 388 193 q 510 296 489 249 q 532 401 532 343 q 528 446 532 425 l 550 415 q 453 374 506 386 q 353 363 400 363 q 181 401 250 363 q 76 505 111 439 q 42 653 42 571 q 82 830 42 757 q 194 940 122 903 q 360 978 267 978 q 644 857 540 978 q 747 515 747 736 q 714 297 747 394 q 628 131 681 199 q 481 20 567 54 q 299 -14 394 -14 q 123 19 181 -14 q 65 108 65 53 m 385 785 q 264 749 311 785 q 217 651 217 714 q 259 562 217 597 q 378 526 301 526 q 496 563 451 526 q 540 661 540 600 q 500 749 540 714 q 385 785 460 785 z "},"A":{"ha":867,"x_min":42,"x_max":825,"o":"m 126 -10 q 64 21 86 -10 q 42 132 42 51 q 55 269 42 189 q 92 440 68 349 q 147 622 115 531 q 217 792 179 713 q 297 933 258 882 q 376 1005 336 983 q 461 1026 417 1026 q 584 974 528 1026 q 692 799 640 921 q 760 594 729 706 q 808 369 790 483 q 825 154 825 256 q 797 30 825 69 q 718 -10 768 -10 q 643 33 669 -10 q 606 176 617 76 q 600 303 600 238 q 606 429 600 369 l 629 322 q 508 301 581 306 q 356 303 435 296 q 210 332 278 311 l 283 426 q 276 297 285 360 q 257 181 268 233 q 231 76 246 119 q 191 12 215 33 q 126 -10 167 -10 m 453 464 q 570 488 533 464 q 607 560 607 513 q 595 642 607 593 q 563 739 583 692 q 515 818 542 786 q 456 850 488 850 q 398 817 425 850 q 350 736 371 785 q 317 637 329 688 q 304 550 304 586 q 341 486 304 508 q 453 464 378 464 z "},"Á":{"ha":867,"x_min":42,"x_max":825,"o":"m 126 -10 q 64 21 86 -10 q 42 132 42 51 q 55 269 42 189 q 92 440 68 349 q 147 622 115 531 q 217 792 179 713 q 297 933 258 882 q 376 1005 336 983 q 461 1026 417 1026 q 584 974 528 1026 q 692 799 640 921 q 760 594 729 706 q 808 369 790 483 q 825 154 825 256 q 797 30 825 69 q 718 -10 768 -10 q 643 33 669 -10 q 606 176 617 76 q 600 303 600 238 q 606 429 600 369 l 629 322 q 508 301 581 306 q 356 303 435 296 q 210 332 278 311 l 283 426 q 276 297 285 360 q 257 181 268 233 q 231 76 246 119 q 191 12 215 33 q 126 -10 167 -10 m 453 464 q 570 488 533 464 q 607 560 607 513 q 595 642 607 593 q 563 739 583 692 q 515 818 542 786 q 456 850 488 850 q 398 817 425 850 q 350 736 371 785 q 317 637 329 688 q 304 550 304 586 q 341 486 304 508 q 453 464 378 464 m 360 1076 q 389 1126 360 1099 q 465 1189 418 1154 q 555 1247 513 1222 q 629 1271 597 1271 q 678 1255 657 1271 q 711 1217 699 1239 q 724 1175 724 1194 q 698 1131 724 1149 q 621 1094 672 1113 q 536 1069 581 1081 q 453 1052 492 1058 q 390 1046 415 1046 q 368 1055 376 1046 q 360 1076 360 1064 z "},"Ă":{"ha":867,"x_min":42,"x_max":825,"o":"m 126 -10 q 64 21 86 -10 q 42 132 42 51 q 55 269 42 189 q 92 440 68 349 q 147 622 115 531 q 217 792 179 713 q 297 933 258 882 q 376 1005 336 983 q 461 1026 417 1026 q 584 974 528 1026 q 692 799 640 921 q 760 594 729 706 q 808 369 790 483 q 825 154 825 256 q 797 30 825 69 q 718 -10 768 -10 q 643 33 669 -10 q 606 176 617 76 q 600 303 600 238 q 606 429 600 369 l 629 322 q 508 301 581 306 q 356 303 435 296 q 210 332 278 311 l 283 426 q 276 297 285 360 q 257 181 268 233 q 231 76 246 119 q 191 12 215 33 q 126 -10 167 -10 m 453 464 q 570 488 533 464 q 607 560 607 513 q 595 642 607 593 q 563 739 583 692 q 515 818 542 786 q 456 850 488 850 q 398 817 425 850 q 350 736 371 785 q 317 637 329 688 q 304 550 304 586 q 341 486 304 508 q 453 464 378 464 m 478 1047 q 328 1099 382 1047 q 275 1219 275 1151 q 329 1276 275 1276 q 393 1224 382 1276 q 419 1170 401 1188 q 476 1153 438 1153 q 530 1168 513 1153 q 556 1215 547 1183 q 581 1271 565 1251 q 626 1290 596 1290 q 667 1274 654 1290 q 681 1226 681 1257 q 657 1138 681 1179 q 588 1072 633 1097 q 478 1047 543 1047 z "},"Ǎ":{"ha":867,"x_min":42,"x_max":825,"o":"m 126 -10 q 64 21 86 -10 q 42 132 42 51 q 55 269 42 189 q 92 440 68 349 q 147 622 115 531 q 217 792 179 713 q 297 933 258 882 q 376 1005 336 983 q 461 1026 417 1026 q 584 974 528 1026 q 692 799 640 921 q 760 594 729 706 q 808 369 790 483 q 825 154 825 256 q 797 30 825 69 q 718 -10 768 -10 q 643 33 669 -10 q 606 176 617 76 q 600 303 600 238 q 606 429 600 369 l 629 322 q 508 301 581 306 q 356 303 435 296 q 210 332 278 311 l 283 426 q 276 297 285 360 q 257 181 268 233 q 231 76 246 119 q 191 12 215 33 q 126 -10 167 -10 m 453 464 q 570 488 533 464 q 607 560 607 513 q 595 642 607 593 q 563 739 583 692 q 515 818 542 786 q 456 850 488 850 q 398 817 425 850 q 350 736 371 785 q 317 637 329 688 q 304 550 304 586 q 341 486 304 508 q 453 464 378 464 m 483 1064 q 418 1082 454 1064 q 342 1126 382 1100 q 274 1186 299 1157 q 249 1247 249 1215 q 264 1283 249 1269 q 301 1296 279 1296 q 386 1257 339 1296 q 482 1132 433 1218 l 461 1136 q 542 1248 496 1207 q 633 1289 589 1289 q 687 1272 665 1289 q 708 1224 708 1254 q 685 1164 708 1189 q 618 1113 661 1139 q 544 1077 582 1090 q 483 1064 506 1064 z "},"Â":{"ha":867,"x_min":42,"x_max":825,"o":"m 126 -10 q 64 21 86 -10 q 42 132 42 51 q 55 269 42 189 q 92 440 68 349 q 147 622 115 531 q 217 792 179 713 q 297 933 258 882 q 376 1005 336 983 q 461 1026 417 1026 q 584 974 528 1026 q 692 799 640 921 q 760 594 729 706 q 808 369 790 483 q 825 154 825 256 q 797 30 825 69 q 718 -10 768 -10 q 643 33 669 -10 q 606 176 617 76 q 600 303 600 238 q 606 429 600 369 l 629 322 q 508 301 581 306 q 356 303 435 296 q 210 332 278 311 l 283 426 q 276 297 285 360 q 257 181 268 233 q 231 76 246 119 q 191 12 215 33 q 126 -10 167 -10 m 453 464 q 570 488 533 464 q 607 560 607 513 q 595 642 607 593 q 563 739 583 692 q 515 818 542 786 q 456 850 488 850 q 398 817 425 850 q 350 736 371 785 q 317 637 329 688 q 304 550 304 586 q 341 486 304 508 q 453 464 378 464 m 483 1282 q 544 1269 506 1282 q 618 1233 582 1256 q 685 1182 661 1207 q 708 1122 708 1157 q 687 1074 708 1092 q 633 1057 665 1057 q 542 1098 589 1057 q 461 1210 496 1139 l 482 1214 q 386 1089 433 1128 q 301 1050 339 1050 q 264 1063 279 1050 q 249 1099 249 1076 q 274 1160 249 1131 q 342 1219 299 1189 q 418 1265 382 1247 q 483 1282 454 1282 z "},"Ä":{"ha":867,"x_min":42,"x_max":825,"o":"m 126 -10 q 64 21 86 -10 q 42 132 42 51 q 55 269 42 189 q 92 440 68 349 q 147 622 115 531 q 217 792 179 713 q 297 933 258 882 q 376 1005 336 983 q 461 1026 417 1026 q 584 974 528 1026 q 692 799 640 921 q 760 594 729 706 q 808 369 790 483 q 825 154 825 256 q 797 30 825 69 q 718 -10 768 -10 q 643 33 669 -10 q 606 176 617 76 q 600 303 600 238 q 606 429 600 369 l 629 322 q 508 301 581 306 q 356 303 435 296 q 210 332 278 311 l 283 426 q 276 297 285 360 q 257 181 268 233 q 231 76 246 119 q 191 12 215 33 q 126 -10 167 -10 m 453 464 q 570 488 533 464 q 607 560 607 513 q 595 642 607 593 q 563 739 583 692 q 515 818 542 786 q 456 850 488 850 q 398 817 425 850 q 350 736 371 785 q 317 637 329 688 q 304 550 304 586 q 341 486 304 508 q 453 464 378 464 m 314 1061 q 232 1089 258 1061 q 206 1154 206 1117 q 240 1233 206 1206 q 338 1260 275 1260 q 418 1230 392 1260 q 444 1158 444 1200 q 408 1086 444 1111 q 314 1061 371 1061 m 638 1274 q 722 1243 696 1274 q 749 1172 749 1213 q 717 1094 749 1121 q 624 1068 685 1068 q 539 1097 567 1068 q 511 1168 511 1126 q 546 1247 511 1219 q 638 1274 581 1274 z "},"À":{"ha":867,"x_min":42,"x_max":825,"o":"m 126 -10 q 64 21 86 -10 q 42 132 42 51 q 55 269 42 189 q 92 440 68 349 q 147 622 115 531 q 217 792 179 713 q 297 933 258 882 q 376 1005 336 983 q 461 1026 417 1026 q 584 974 528 1026 q 692 799 640 921 q 760 594 729 706 q 808 369 790 483 q 825 154 825 256 q 797 30 825 69 q 718 -10 768 -10 q 643 33 669 -10 q 606 176 617 76 q 600 303 600 238 q 606 429 600 369 l 629 322 q 508 301 581 306 q 356 303 435 296 q 210 332 278 311 l 283 426 q 276 297 285 360 q 257 181 268 233 q 231 76 246 119 q 191 12 215 33 q 126 -10 167 -10 m 453 464 q 570 488 533 464 q 607 560 607 513 q 595 642 607 593 q 563 739 583 692 q 515 818 542 786 q 456 850 488 850 q 398 817 425 850 q 350 736 371 785 q 317 637 329 688 q 304 550 304 586 q 341 486 304 508 q 453 464 378 464 m 596 1076 q 588 1055 596 1064 q 565 1046 581 1046 q 502 1052 540 1046 q 420 1069 464 1058 q 335 1094 376 1081 q 258 1131 283 1113 q 232 1175 232 1149 q 244 1217 232 1194 q 278 1255 257 1239 q 326 1271 300 1271 q 401 1247 358 1271 q 490 1189 443 1222 q 567 1126 539 1154 q 596 1076 596 1099 z "},"Ā":{"ha":867,"x_min":42,"x_max":825,"o":"m 126 -10 q 64 21 86 -10 q 42 132 42 51 q 55 269 42 189 q 92 440 68 349 q 147 622 115 531 q 217 792 179 713 q 297 933 258 882 q 376 1005 336 983 q 461 1026 417 1026 q 584 974 528 1026 q 692 799 640 921 q 760 594 729 706 q 808 369 790 483 q 825 154 825 256 q 797 30 825 69 q 718 -10 768 -10 q 643 33 669 -10 q 606 176 617 76 q 600 303 600 238 q 606 429 600 369 l 629 322 q 508 301 581 306 q 356 303 435 296 q 210 332 278 311 l 283 426 q 276 297 285 360 q 257 181 268 233 q 231 76 246 119 q 191 12 215 33 q 126 -10 167 -10 m 453 464 q 570 488 533 464 q 607 560 607 513 q 595 642 607 593 q 563 739 583 692 q 515 818 542 786 q 456 850 488 850 q 398 817 425 850 q 350 736 371 785 q 317 637 329 688 q 304 550 304 586 q 341 486 304 508 q 453 464 378 464 m 319 1061 q 240 1081 265 1061 q 214 1133 214 1101 q 237 1183 214 1165 q 314 1214 260 1200 q 412 1229 358 1224 q 519 1238 465 1235 q 618 1240 574 1240 q 713 1221 685 1240 q 742 1169 742 1201 q 718 1114 742 1135 q 649 1085 694 1093 q 544 1072 606 1078 q 424 1064 483 1067 q 319 1061 364 1061 z "},"Ą":{"ha":867,"x_min":42,"x_max":825,"o":"m 126 -10 q 64 21 86 -10 q 42 132 42 51 q 55 269 42 189 q 92 440 68 349 q 147 622 115 531 q 217 792 179 713 q 297 933 258 882 q 376 1005 336 983 q 461 1026 417 1026 q 584 974 528 1026 q 692 799 640 921 q 760 594 729 706 q 808 369 790 483 q 825 154 825 256 q 797 30 825 69 q 718 -10 768 -10 q 643 33 669 -10 q 606 176 617 76 q 600 303 600 238 q 606 429 600 369 l 629 322 q 508 301 581 306 q 356 303 435 296 q 210 332 278 311 l 283 426 q 276 297 285 360 q 257 181 268 233 q 231 76 246 119 q 191 12 215 33 q 126 -10 167 -10 m 453 464 q 570 488 533 464 q 607 560 607 513 q 595 642 607 593 q 563 739 583 692 q 515 818 542 786 q 456 850 488 850 q 398 817 425 850 q 350 736 371 785 q 317 637 329 688 q 304 550 304 586 q 341 486 304 508 q 453 464 378 464 m 688 -293 q 569 -261 615 -293 q 522 -167 522 -229 q 560 -63 522 -117 q 686 39 599 -10 l 794 42 q 673 -58 718 -6 q 628 -137 628 -110 q 644 -162 628 -156 q 689 -169 661 -169 q 722 -168 704 -169 q 760 -167 739 -167 q 801 -181 788 -167 q 814 -221 814 -196 q 781 -275 814 -257 q 688 -293 749 -293 z "},"Å":{"ha":867,"x_min":42,"x_max":825,"o":"m 126 -10 q 64 21 86 -10 q 42 132 42 51 q 55 269 42 189 q 92 440 68 349 q 147 622 115 531 q 217 792 179 713 q 297 933 258 882 q 376 1005 336 983 q 461 1026 417 1026 q 584 974 528 1026 q 692 799 640 921 q 760 594 729 706 q 808 369 790 483 q 825 154 825 256 q 797 30 825 69 q 718 -10 768 -10 q 643 33 669 -10 q 606 176 617 76 q 600 303 600 238 q 606 429 600 369 l 629 322 q 508 301 581 306 q 356 303 435 296 q 210 332 278 311 l 283 426 q 276 297 285 360 q 257 181 268 233 q 231 76 246 119 q 191 12 215 33 q 126 -10 167 -10 m 453 464 q 570 488 533 464 q 607 560 607 513 q 595 642 607 593 q 563 739 583 692 q 515 818 542 786 q 456 850 488 850 q 398 817 425 850 q 350 736 371 785 q 317 637 329 688 q 304 550 304 586 q 341 486 304 508 q 453 464 378 464 m 475 1043 q 343 1073 396 1043 q 290 1165 290 1103 q 342 1270 290 1229 q 492 1311 394 1311 q 622 1273 581 1311 q 664 1182 664 1235 q 613 1082 664 1121 q 475 1043 563 1043 m 467 1118 q 544 1133 513 1118 q 575 1176 575 1147 q 551 1223 575 1206 q 478 1240 528 1240 q 403 1219 426 1240 q 379 1175 379 1199 q 403 1134 379 1150 q 467 1118 428 1118 z "},"Ã":{"ha":867,"x_min":42,"x_max":825,"o":"m 126 -10 q 64 21 86 -10 q 42 132 42 51 q 55 269 42 189 q 92 440 68 349 q 147 622 115 531 q 217 792 179 713 q 297 933 258 882 q 376 1005 336 983 q 461 1026 417 1026 q 584 974 528 1026 q 692 799 640 921 q 760 594 729 706 q 808 369 790 483 q 825 154 825 256 q 797 30 825 69 q 718 -10 768 -10 q 643 33 669 -10 q 606 176 617 76 q 600 303 600 238 q 606 429 600 369 l 629 322 q 508 301 581 306 q 356 303 435 296 q 210 332 278 311 l 283 426 q 276 297 285 360 q 257 181 268 233 q 231 76 246 119 q 191 12 215 33 q 126 -10 167 -10 m 453 464 q 570 488 533 464 q 607 560 607 513 q 595 642 607 593 q 563 739 583 692 q 515 818 542 786 q 456 850 488 850 q 398 817 425 850 q 350 736 371 785 q 317 637 329 688 q 304 550 304 586 q 341 486 304 508 q 453 464 378 464 m 400 1256 q 485 1232 447 1256 q 558 1175 522 1208 q 574 1167 568 1167 q 583 1178 581 1168 q 617 1253 599 1229 q 669 1276 635 1276 q 721 1217 721 1276 q 706 1147 721 1186 q 658 1077 690 1107 q 574 1047 625 1047 q 488 1076 525 1047 q 411 1151 450 1104 q 394 1163 401 1164 q 382 1140 388 1161 q 350 1062 369 1086 q 293 1038 331 1038 q 251 1057 267 1038 q 235 1103 235 1076 q 256 1176 235 1142 q 315 1233 278 1211 q 400 1256 353 1256 z "},"Æ":{"ha":1272,"x_min":42,"x_max":1236,"o":"m 126 -10 q 64 21 86 -10 q 42 132 42 51 q 57 268 42 189 q 99 438 72 347 q 164 619 126 528 q 244 792 201 710 q 330 931 292 879 q 406 1004 368 982 q 489 1026 444 1026 q 610 974 556 1026 q 706 799 665 921 l 629 322 q 508 301 581 306 q 356 303 435 296 q 210 332 278 311 l 283 426 q 276 297 285 360 q 257 181 268 233 q 231 76 246 119 q 191 12 215 33 q 126 -10 167 -10 m 439 464 q 546 488 513 464 q 579 560 579 513 q 571 661 579 610 q 548 755 563 713 q 513 824 533 797 q 469 850 493 850 q 409 817 439 850 q 356 736 379 785 q 318 637 332 688 q 304 550 304 586 q 338 486 304 508 q 439 464 371 464 m 1025 1022 q 1190 996 1144 1022 q 1236 919 1236 969 q 1183 840 1236 867 q 1014 813 1129 813 q 885 815 957 813 q 738 822 814 817 l 760 839 q 767 701 772 775 q 736 561 761 628 l 729 571 q 822 585 768 579 q 932 596 875 592 q 1036 600 989 600 q 1164 576 1126 600 q 1201 519 1201 553 q 1158 456 1201 482 q 1013 429 1115 429 q 860 435 936 429 q 715 450 785 440 l 732 467 q 755 363 747 422 q 763 245 763 304 q 751 142 763 186 l 736 150 q 842 179 782 167 q 963 199 901 192 q 1079 206 1025 206 q 1195 189 1157 206 q 1233 132 1233 172 q 1212 78 1233 101 q 1139 36 1190 56 q 1059 15 1106 25 q 960 -2 1013 4 q 857 -8 908 -8 q 709 15 768 -8 q 624 86 650 39 q 585 211 600 135 q 569 421 569 288 l 604 468 l 653 764 l 646 897 q 739 972 681 944 q 871 1010 797 999 q 1025 1022 944 1022 z "},"B":{"ha":875,"x_min":92,"x_max":806,"o":"m 356 -7 q 213 26 269 -7 q 129 126 157 58 q 101 241 110 174 q 92 396 92 308 q 101 644 92 546 q 130 802 111 742 q 172 900 149 863 q 292 992 210 957 q 524 1026 374 1026 q 684 997 624 1026 q 772 918 744 967 q 799 810 799 869 q 743 654 799 715 q 597 557 688 593 l 597 551 q 751 488 696 540 q 806 340 806 436 q 767 201 806 264 q 665 91 729 138 q 519 19 600 44 q 356 -7 439 -7 m 399 160 q 517 182 465 160 q 599 242 569 204 q 629 329 629 281 q 578 417 629 382 q 421 453 528 453 q 306 419 349 453 q 264 303 264 385 q 297 192 264 225 q 399 160 331 160 m 404 600 q 562 642 499 600 q 625 753 625 685 q 585 833 625 803 q 467 864 544 864 q 328 831 382 864 q 274 717 274 797 q 309 626 274 651 q 404 600 344 600 z "},"C":{"ha":901,"x_min":68,"x_max":874,"o":"m 536 -15 q 275 44 379 -15 q 119 210 171 103 q 68 460 68 317 q 126 737 68 618 q 293 921 183 856 q 557 986 403 986 q 788 935 701 986 q 874 807 874 885 q 844 734 874 761 q 760 707 815 707 q 689 722 724 707 q 615 752 654 738 q 521 767 575 767 q 392 740 451 767 q 298 652 333 714 q 263 485 263 590 q 333 258 263 325 q 518 192 403 192 q 603 199 558 192 q 686 215 647 207 q 749 222 725 222 q 824 199 796 222 q 851 132 851 176 q 771 26 851 68 q 536 -15 690 -15 z "},"Ć":{"ha":901,"x_min":68,"x_max":874,"o":"m 536 -15 q 275 44 379 -15 q 119 210 171 103 q 68 460 68 317 q 126 737 68 618 q 293 921 183 856 q 557 986 403 986 q 788 935 701 986 q 874 807 874 885 q 844 734 874 761 q 760 707 815 707 q 689 722 724 707 q 615 752 654 738 q 521 767 575 767 q 392 740 451 767 q 298 652 333 714 q 263 485 263 590 q 333 258 263 325 q 518 192 403 192 q 603 199 558 192 q 686 215 647 207 q 749 222 725 222 q 824 199 796 222 q 851 132 851 176 q 771 26 851 68 q 536 -15 690 -15 m 400 1076 q 429 1126 400 1099 q 506 1189 458 1154 q 595 1247 553 1222 q 669 1271 638 1271 q 718 1255 697 1271 q 751 1217 739 1239 q 764 1175 764 1194 q 738 1131 764 1149 q 661 1094 713 1113 q 576 1069 621 1081 q 494 1052 532 1058 q 431 1046 456 1046 q 408 1055 417 1046 q 400 1076 400 1064 z "},"Č":{"ha":901,"x_min":68,"x_max":874,"o":"m 536 -15 q 275 44 379 -15 q 119 210 171 103 q 68 460 68 317 q 126 737 68 618 q 293 921 183 856 q 557 986 403 986 q 788 935 701 986 q 874 807 874 885 q 844 734 874 761 q 760 707 815 707 q 689 722 724 707 q 615 752 654 738 q 521 767 575 767 q 392 740 451 767 q 298 652 333 714 q 263 485 263 590 q 333 258 263 325 q 518 192 403 192 q 603 199 558 192 q 686 215 647 207 q 749 222 725 222 q 824 199 796 222 q 851 132 851 176 q 771 26 851 68 q 536 -15 690 -15 m 524 1064 q 458 1082 494 1064 q 382 1126 422 1100 q 314 1186 339 1157 q 289 1247 289 1215 q 304 1283 289 1269 q 342 1296 319 1296 q 426 1257 379 1296 q 522 1132 474 1218 l 501 1136 q 583 1248 536 1207 q 674 1289 629 1289 q 727 1272 706 1289 q 749 1224 749 1254 q 725 1164 749 1189 q 658 1113 701 1139 q 584 1077 622 1090 q 524 1064 546 1064 z "},"Ç":{"ha":901,"x_min":68,"x_max":874,"o":"m 536 -15 q 275 44 379 -15 q 119 210 171 103 q 68 460 68 317 q 126 737 68 618 q 293 921 183 856 q 557 986 403 986 q 788 935 701 986 q 874 807 874 885 q 844 734 874 761 q 760 707 815 707 q 689 722 724 707 q 615 752 654 738 q 521 767 575 767 q 392 740 451 767 q 298 652 333 714 q 263 485 263 590 q 333 258 263 325 q 518 192 403 192 q 603 199 558 192 q 686 215 647 207 q 749 222 725 222 q 824 199 796 222 q 851 132 851 176 q 771 26 851 68 q 536 -15 690 -15 m 403 -289 q 313 -232 313 -289 q 335 -188 313 -201 q 386 -169 357 -175 q 440 -162 411 -165 q 479 -156 468 -158 q 511 -144 499 -151 q 524 -122 524 -136 q 507 -99 524 -107 q 444 -85 490 -90 q 372 -64 399 -76 q 346 -25 346 -51 q 367 7 346 -1 q 418 15 388 15 q 518 -2 468 15 q 601 -53 568 -19 q 633 -135 633 -86 q 603 -211 633 -176 q 522 -267 574 -246 q 403 -289 469 -289 z "},"Ċ":{"ha":901,"x_min":68,"x_max":874,"o":"m 536 -15 q 275 44 379 -15 q 119 210 171 103 q 68 460 68 317 q 126 737 68 618 q 293 921 183 856 q 557 986 403 986 q 788 935 701 986 q 874 807 874 885 q 844 734 874 761 q 760 707 815 707 q 689 722 724 707 q 615 752 654 738 q 521 767 575 767 q 392 740 451 767 q 298 652 333 714 q 263 485 263 590 q 333 258 263 325 q 518 192 403 192 q 603 199 558 192 q 686 215 647 207 q 749 222 725 222 q 824 199 796 222 q 851 132 851 176 q 771 26 851 68 q 536 -15 690 -15 m 528 1274 q 608 1243 583 1274 q 632 1172 632 1213 q 602 1095 632 1122 q 518 1068 572 1068 q 439 1098 465 1068 q 413 1168 413 1128 q 444 1247 413 1221 q 528 1274 476 1274 z "},"D":{"ha":972,"x_min":36,"x_max":904,"o":"m 279 -32 q 144 -21 192 -32 q 78 10 96 -10 q 58 56 60 31 q 105 121 58 94 q 276 154 151 147 l 254 128 q 232 293 239 199 q 226 489 225 388 q 236 683 228 590 q 260 840 244 775 l 381 849 q 304 827 350 836 q 210 818 258 818 q 78 838 121 818 q 36 892 36 857 q 110 987 36 953 q 339 1021 185 1021 q 648 960 522 1021 q 839 792 774 900 q 904 542 904 685 q 860 312 904 417 q 733 130 815 207 q 535 10 650 53 q 279 -32 421 -32 m 476 182 q 577 220 524 182 q 668 333 631 258 q 706 517 706 407 q 683 658 706 597 q 624 758 660 718 q 547 819 588 799 q 471 839 507 839 q 426 803 442 839 q 403 695 410 767 q 396 518 396 624 q 413 268 396 354 q 476 182 429 182 z "},"Ð":{"ha":972,"x_min":36,"x_max":904,"o":"m 279 -32 q 144 -21 192 -32 q 78 10 96 -10 q 58 56 60 31 q 105 121 58 94 q 276 154 151 147 l 254 128 q 232 293 239 199 q 226 489 225 388 q 236 683 228 590 q 260 840 244 775 l 381 849 q 304 827 350 836 q 210 818 258 818 q 78 838 121 818 q 36 892 36 857 q 110 987 36 953 q 339 1021 185 1021 q 648 960 522 1021 q 839 792 774 900 q 904 542 904 685 q 860 312 904 417 q 733 130 815 207 q 535 10 650 53 q 279 -32 421 -32 m 147 421 q 87 436 106 421 q 68 478 68 451 q 86 523 68 506 q 150 550 104 540 q 251 565 193 558 q 369 574 308 571 q 481 578 431 578 q 552 561 531 578 q 574 515 574 544 q 492 443 574 460 q 383 432 449 438 q 253 424 318 426 q 147 421 189 421 m 476 182 q 577 220 524 182 q 668 333 631 258 q 706 517 706 407 q 683 658 706 597 q 624 758 660 718 q 547 819 588 799 q 471 839 507 839 q 426 803 442 839 q 403 695 410 767 q 396 518 396 624 q 413 268 396 354 q 476 182 429 182 z "},"Ď":{"ha":972,"x_min":36,"x_max":904,"o":"m 279 -32 q 144 -21 192 -32 q 78 10 96 -10 q 58 56 60 31 q 105 121 58 94 q 276 154 151 147 l 254 128 q 232 293 239 199 q 226 489 225 388 q 236 683 228 590 q 260 840 244 775 l 381 849 q 304 827 350 836 q 210 818 258 818 q 78 838 121 818 q 36 892 36 857 q 110 987 36 953 q 339 1021 185 1021 q 648 960 522 1021 q 839 792 774 900 q 904 542 904 685 q 860 312 904 417 q 733 130 815 207 q 535 10 650 53 q 279 -32 421 -32 m 476 182 q 577 220 524 182 q 668 333 631 258 q 706 517 706 407 q 683 658 706 597 q 624 758 660 718 q 547 819 588 799 q 471 839 507 839 q 426 803 442 839 q 403 695 410 767 q 396 518 396 624 q 413 268 396 354 q 476 182 429 182 m 485 1064 q 419 1082 456 1064 q 343 1126 383 1100 q 275 1186 300 1157 q 250 1247 250 1215 q 265 1283 250 1269 q 303 1296 281 1296 q 388 1257 340 1296 q 483 1132 435 1218 l 463 1136 q 544 1248 497 1207 q 635 1289 590 1289 q 688 1272 667 1289 q 710 1224 710 1254 q 686 1164 710 1189 q 619 1113 663 1139 q 545 1077 583 1090 q 485 1064 507 1064 z "},"Đ":{"ha":972,"x_min":36,"x_max":904,"o":"m 279 -32 q 144 -21 192 -32 q 78 10 96 -10 q 58 56 60 31 q 105 121 58 94 q 276 154 151 147 l 254 128 q 232 293 239 199 q 226 489 225 388 q 236 683 228 590 q 260 840 244 775 l 381 849 q 304 827 350 836 q 210 818 258 818 q 78 838 121 818 q 36 892 36 857 q 110 987 36 953 q 339 1021 185 1021 q 648 960 522 1021 q 839 792 774 900 q 904 542 904 685 q 860 312 904 417 q 733 130 815 207 q 535 10 650 53 q 279 -32 421 -32 m 147 421 q 87 436 106 421 q 68 478 68 451 q 86 523 68 506 q 150 550 104 540 q 251 565 193 558 q 369 574 308 571 q 481 578 431 578 q 552 561 531 578 q 574 515 574 544 q 492 443 574 460 q 383 432 449 438 q 253 424 318 426 q 147 421 189 421 m 476 182 q 577 220 524 182 q 668 333 631 258 q 706 517 706 407 q 683 658 706 597 q 624 758 660 718 q 547 819 588 799 q 471 839 507 839 q 426 803 442 839 q 403 695 410 767 q 396 518 396 624 q 413 268 396 354 q 476 182 429 182 z "},"E":{"ha":794,"x_min":92,"x_max":758,"o":"m 547 1022 q 713 996 667 1022 q 758 919 758 969 q 705 840 758 867 q 536 813 651 813 q 408 815 479 813 q 260 822 336 817 l 282 839 q 289 701 294 775 q 258 561 283 628 l 251 571 q 344 585 290 579 q 454 596 397 592 q 558 600 511 600 q 686 576 649 600 q 724 519 724 553 q 681 456 724 482 q 535 429 638 429 q 383 435 458 429 q 238 450 307 440 l 254 467 q 277 363 269 422 q 285 245 285 304 q 274 142 285 186 l 258 150 q 364 179 304 167 q 485 199 424 192 q 601 206 547 206 q 717 189 679 206 q 756 132 756 172 q 734 78 756 101 q 661 36 713 56 q 581 15 628 25 q 483 -2 535 4 q 379 -8 431 -8 q 231 15 290 -8 q 146 86 172 39 q 106 221 119 138 q 92 449 92 304 q 101 669 92 582 q 128 810 111 756 q 168 897 146 865 q 261 972 203 944 q 393 1010 319 999 q 547 1022 467 1022 z "},"É":{"ha":794,"x_min":92,"x_max":758,"o":"m 547 1022 q 713 996 667 1022 q 758 919 758 969 q 705 840 758 867 q 536 813 651 813 q 408 815 479 813 q 260 822 336 817 l 282 839 q 289 701 294 775 q 258 561 283 628 l 251 571 q 344 585 290 579 q 454 596 397 592 q 558 600 511 600 q 686 576 649 600 q 724 519 724 553 q 681 456 724 482 q 535 429 638 429 q 383 435 458 429 q 238 450 307 440 l 254 467 q 277 363 269 422 q 285 245 285 304 q 274 142 285 186 l 258 150 q 364 179 304 167 q 485 199 424 192 q 601 206 547 206 q 717 189 679 206 q 756 132 756 172 q 734 78 756 101 q 661 36 713 56 q 581 15 628 25 q 483 -2 535 4 q 379 -8 431 -8 q 231 15 290 -8 q 146 86 172 39 q 106 221 119 138 q 92 449 92 304 q 101 669 92 582 q 128 810 111 756 q 168 897 146 865 q 261 972 203 944 q 393 1010 319 999 q 547 1022 467 1022 m 358 1076 q 388 1126 358 1099 q 464 1189 417 1154 q 553 1247 511 1222 q 628 1271 596 1271 q 676 1255 656 1271 q 710 1217 697 1239 q 722 1175 722 1194 q 697 1131 722 1149 q 619 1094 671 1113 q 535 1069 579 1081 q 452 1052 490 1058 q 389 1046 414 1046 q 367 1055 375 1046 q 358 1076 358 1064 z "},"Ě":{"ha":794,"x_min":92,"x_max":758,"o":"m 547 1022 q 713 996 667 1022 q 758 919 758 969 q 705 840 758 867 q 536 813 651 813 q 408 815 479 813 q 260 822 336 817 l 282 839 q 289 701 294 775 q 258 561 283 628 l 251 571 q 344 585 290 579 q 454 596 397 592 q 558 600 511 600 q 686 576 649 600 q 724 519 724 553 q 681 456 724 482 q 535 429 638 429 q 383 435 458 429 q 238 450 307 440 l 254 467 q 277 363 269 422 q 285 245 285 304 q 274 142 285 186 l 258 150 q 364 179 304 167 q 485 199 424 192 q 601 206 547 206 q 717 189 679 206 q 756 132 756 172 q 734 78 756 101 q 661 36 713 56 q 581 15 628 25 q 483 -2 535 4 q 379 -8 431 -8 q 231 15 290 -8 q 146 86 172 39 q 106 221 119 138 q 92 449 92 304 q 101 669 92 582 q 128 810 111 756 q 168 897 146 865 q 261 972 203 944 q 393 1010 319 999 q 547 1022 467 1022 m 482 1064 q 417 1082 453 1064 q 340 1126 381 1100 q 272 1186 297 1157 q 247 1247 247 1215 q 263 1283 247 1269 q 300 1296 278 1296 q 385 1257 338 1296 q 481 1132 432 1218 l 460 1136 q 541 1248 494 1207 q 632 1289 588 1289 q 685 1272 664 1289 q 707 1224 707 1254 q 683 1164 707 1189 q 617 1113 660 1139 q 542 1077 581 1090 q 482 1064 504 1064 z "},"Ê":{"ha":794,"x_min":92,"x_max":758,"o":"m 547 1022 q 713 996 667 1022 q 758 919 758 969 q 705 840 758 867 q 536 813 651 813 q 408 815 479 813 q 260 822 336 817 l 282 839 q 289 701 294 775 q 258 561 283 628 l 251 571 q 344 585 290 579 q 454 596 397 592 q 558 600 511 600 q 686 576 649 600 q 724 519 724 553 q 681 456 724 482 q 535 429 638 429 q 383 435 458 429 q 238 450 307 440 l 254 467 q 277 363 269 422 q 285 245 285 304 q 274 142 285 186 l 258 150 q 364 179 304 167 q 485 199 424 192 q 601 206 547 206 q 717 189 679 206 q 756 132 756 172 q 734 78 756 101 q 661 36 713 56 q 581 15 628 25 q 483 -2 535 4 q 379 -8 431 -8 q 231 15 290 -8 q 146 86 172 39 q 106 221 119 138 q 92 449 92 304 q 101 669 92 582 q 128 810 111 756 q 168 897 146 865 q 261 972 203 944 q 393 1010 319 999 q 547 1022 467 1022 m 482 1282 q 542 1269 504 1282 q 617 1233 581 1256 q 683 1182 660 1207 q 707 1122 707 1157 q 685 1074 707 1092 q 632 1057 664 1057 q 541 1098 588 1057 q 460 1210 494 1139 l 481 1214 q 385 1089 432 1128 q 300 1050 338 1050 q 263 1063 278 1050 q 247 1099 247 1076 q 272 1160 247 1131 q 340 1219 297 1189 q 417 1265 381 1247 q 482 1282 453 1282 z "},"Ë":{"ha":794,"x_min":92,"x_max":758,"o":"m 547 1022 q 713 996 667 1022 q 758 919 758 969 q 705 840 758 867 q 536 813 651 813 q 408 815 479 813 q 260 822 336 817 l 282 839 q 289 701 294 775 q 258 561 283 628 l 251 571 q 344 585 290 579 q 454 596 397 592 q 558 600 511 600 q 686 576 649 600 q 724 519 724 553 q 681 456 724 482 q 535 429 638 429 q 383 435 458 429 q 238 450 307 440 l 254 467 q 277 363 269 422 q 285 245 285 304 q 274 142 285 186 l 258 150 q 364 179 304 167 q 485 199 424 192 q 601 206 547 206 q 717 189 679 206 q 756 132 756 172 q 734 78 756 101 q 661 36 713 56 q 581 15 628 25 q 483 -2 535 4 q 379 -8 431 -8 q 231 15 290 -8 q 146 86 172 39 q 106 221 119 138 q 92 449 92 304 q 101 669 92 582 q 128 810 111 756 q 168 897 146 865 q 261 972 203 944 q 393 1010 319 999 q 547 1022 467 1022 m 313 1061 q 231 1089 257 1061 q 204 1154 204 1117 q 239 1233 204 1206 q 336 1260 274 1260 q 417 1230 390 1260 q 443 1158 443 1200 q 406 1086 443 1111 q 313 1061 369 1061 m 636 1274 q 721 1243 694 1274 q 747 1172 747 1213 q 715 1094 747 1121 q 622 1068 683 1068 q 538 1097 565 1068 q 510 1168 510 1126 q 544 1247 510 1219 q 636 1274 579 1274 z "},"Ė":{"ha":794,"x_min":92,"x_max":758,"o":"m 547 1022 q 713 996 667 1022 q 758 919 758 969 q 705 840 758 867 q 536 813 651 813 q 408 815 479 813 q 260 822 336 817 l 282 839 q 289 701 294 775 q 258 561 283 628 l 251 571 q 344 585 290 579 q 454 596 397 592 q 558 600 511 600 q 686 576 649 600 q 724 519 724 553 q 681 456 724 482 q 535 429 638 429 q 383 435 458 429 q 238 450 307 440 l 254 467 q 277 363 269 422 q 285 245 285 304 q 274 142 285 186 l 258 150 q 364 179 304 167 q 485 199 424 192 q 601 206 547 206 q 717 189 679 206 q 756 132 756 172 q 734 78 756 101 q 661 36 713 56 q 581 15 628 25 q 483 -2 535 4 q 379 -8 431 -8 q 231 15 290 -8 q 146 86 172 39 q 106 221 119 138 q 92 449 92 304 q 101 669 92 582 q 128 810 111 756 q 168 897 146 865 q 261 972 203 944 q 393 1010 319 999 q 547 1022 467 1022 m 486 1274 q 566 1243 542 1274 q 590 1172 590 1213 q 560 1095 590 1122 q 476 1068 531 1068 q 397 1098 424 1068 q 371 1168 371 1128 q 403 1247 371 1221 q 486 1274 435 1274 z "},"È":{"ha":794,"x_min":92,"x_max":758,"o":"m 547 1022 q 713 996 667 1022 q 758 919 758 969 q 705 840 758 867 q 536 813 651 813 q 408 815 479 813 q 260 822 336 817 l 282 839 q 289 701 294 775 q 258 561 283 628 l 251 571 q 344 585 290 579 q 454 596 397 592 q 558 600 511 600 q 686 576 649 600 q 724 519 724 553 q 681 456 724 482 q 535 429 638 429 q 383 435 458 429 q 238 450 307 440 l 254 467 q 277 363 269 422 q 285 245 285 304 q 274 142 285 186 l 258 150 q 364 179 304 167 q 485 199 424 192 q 601 206 547 206 q 717 189 679 206 q 756 132 756 172 q 734 78 756 101 q 661 36 713 56 q 581 15 628 25 q 483 -2 535 4 q 379 -8 431 -8 q 231 15 290 -8 q 146 86 172 39 q 106 221 119 138 q 92 449 92 304 q 101 669 92 582 q 128 810 111 756 q 168 897 146 865 q 261 972 203 944 q 393 1010 319 999 q 547 1022 467 1022 m 594 1076 q 587 1055 594 1064 q 564 1046 579 1046 q 501 1052 539 1046 q 419 1069 463 1058 q 333 1094 375 1081 q 256 1131 282 1113 q 231 1175 231 1149 q 243 1217 231 1194 q 277 1255 256 1239 q 325 1271 299 1271 q 399 1247 357 1271 q 489 1189 442 1222 q 566 1126 538 1154 q 594 1076 594 1099 z "},"Ē":{"ha":794,"x_min":92,"x_max":758,"o":"m 547 1022 q 713 996 667 1022 q 758 919 758 969 q 705 840 758 867 q 536 813 651 813 q 408 815 479 813 q 260 822 336 817 l 282 839 q 289 701 294 775 q 258 561 283 628 l 251 571 q 344 585 290 579 q 454 596 397 592 q 558 600 511 600 q 686 576 649 600 q 724 519 724 553 q 681 456 724 482 q 535 429 638 429 q 383 435 458 429 q 238 450 307 440 l 254 467 q 277 363 269 422 q 285 245 285 304 q 274 142 285 186 l 258 150 q 364 179 304 167 q 485 199 424 192 q 601 206 547 206 q 717 189 679 206 q 756 132 756 172 q 734 78 756 101 q 661 36 713 56 q 581 15 628 25 q 483 -2 535 4 q 379 -8 431 -8 q 231 15 290 -8 q 146 86 172 39 q 106 221 119 138 q 92 449 92 304 q 101 669 92 582 q 128 810 111 756 q 168 897 146 865 q 261 972 203 944 q 393 1010 319 999 q 547 1022 467 1022 m 318 1061 q 238 1081 264 1061 q 213 1133 213 1101 q 235 1183 213 1165 q 313 1214 258 1200 q 410 1229 357 1224 q 518 1238 464 1235 q 617 1240 572 1240 q 712 1221 683 1240 q 740 1169 740 1201 q 717 1114 740 1135 q 647 1085 693 1093 q 543 1072 604 1078 q 422 1064 482 1067 q 318 1061 363 1061 z "},"Ę":{"ha":794,"x_min":92,"x_max":758,"o":"m 547 1022 q 713 996 667 1022 q 758 919 758 969 q 705 840 758 867 q 536 813 651 813 q 408 815 479 813 q 260 822 336 817 l 282 839 q 289 701 294 775 q 258 561 283 628 l 251 571 q 344 585 290 579 q 454 596 397 592 q 558 600 511 600 q 686 576 649 600 q 724 519 724 553 q 681 456 724 482 q 535 429 638 429 q 383 435 458 429 q 238 450 307 440 l 254 467 q 277 363 269 422 q 285 245 285 304 q 274 142 285 186 l 258 150 q 364 179 304 167 q 485 199 424 192 q 601 206 547 206 q 717 189 679 206 q 756 132 756 172 q 734 78 756 101 q 661 36 713 56 q 581 15 628 25 q 483 -2 535 4 q 379 -8 431 -8 q 231 15 290 -8 q 146 86 172 39 q 106 221 119 138 q 92 449 92 304 q 101 669 92 582 q 128 810 111 756 q 168 897 146 865 q 261 972 203 944 q 393 1010 319 999 q 547 1022 467 1022 m 568 -293 q 449 -261 496 -293 q 403 -167 403 -229 q 441 -63 403 -117 q 567 39 479 -10 l 675 42 q 553 -58 599 -6 q 508 -137 508 -110 q 525 -162 508 -156 q 569 -169 542 -169 q 602 -168 585 -169 q 640 -167 619 -167 q 681 -181 668 -167 q 694 -221 694 -196 q 662 -275 694 -257 q 568 -293 629 -293 z "},"F":{"ha":733,"x_min":92,"x_max":703,"o":"m 531 994 q 663 966 624 994 q 703 889 703 938 q 649 806 703 832 q 485 779 596 779 q 381 781 439 779 q 261 788 322 783 l 275 814 q 283 695 285 765 q 269 561 282 625 l 256 582 q 510 544 417 571 q 642 482 603 518 q 682 401 682 446 q 658 344 682 367 q 586 321 635 321 q 426 355 517 321 q 238 453 335 389 l 268 456 q 292 359 281 419 q 312 231 304 299 q 319 107 319 164 q 292 -1 319 33 q 218 -36 265 -36 q 163 -19 185 -36 q 128 33 140 -1 q 102 176 113 81 q 92 407 92 272 q 114 723 92 606 q 171 889 136 840 q 257 951 200 928 q 386 984 314 974 q 531 994 458 994 z "},"G":{"ha":978,"x_min":68,"x_max":954,"o":"m 738 386 q 660 379 696 381 q 593 378 625 378 q 468 392 500 378 q 436 443 436 407 q 452 486 436 467 q 499 519 468 506 q 605 548 535 535 q 750 561 675 561 q 901 545 847 561 q 954 485 954 529 q 926 426 954 450 q 835 394 899 401 l 738 386 m 840 414 q 892 321 876 368 q 907 236 907 274 q 870 116 907 174 q 756 22 833 58 q 551 -15 678 -15 q 281 45 389 -15 q 121 216 174 106 q 68 474 68 326 q 135 754 68 632 q 324 945 201 876 q 610 1014 446 1014 q 819 966 746 1014 q 892 854 892 918 q 866 794 892 815 q 792 772 840 772 q 731 782 763 772 q 662 801 700 792 q 575 810 624 810 q 411 777 486 810 q 291 670 336 744 q 246 471 246 596 q 287 297 246 364 q 401 198 328 229 q 569 167 475 167 q 670 181 633 167 q 723 222 707 194 q 739 293 739 250 q 733 351 739 317 q 714 421 726 386 l 840 414 z "},"Ğ":{"ha":978,"x_min":68,"x_max":954,"o":"m 738 386 q 660 379 696 381 q 593 378 625 378 q 468 392 500 378 q 436 443 436 407 q 452 486 436 467 q 499 519 468 506 q 605 548 535 535 q 750 561 675 561 q 901 545 847 561 q 954 485 954 529 q 926 426 954 450 q 835 394 899 401 l 738 386 m 840 414 q 892 321 876 368 q 907 236 907 274 q 870 116 907 174 q 756 22 833 58 q 551 -15 678 -15 q 281 45 389 -15 q 121 216 174 106 q 68 474 68 326 q 135 754 68 632 q 324 945 201 876 q 610 1014 446 1014 q 819 966 746 1014 q 892 854 892 918 q 866 794 892 815 q 792 772 840 772 q 731 782 763 772 q 662 801 700 792 q 575 810 624 810 q 411 777 486 810 q 291 670 336 744 q 246 471 246 596 q 287 297 246 364 q 401 198 328 229 q 569 167 475 167 q 670 181 633 167 q 723 222 707 194 q 739 293 739 250 q 733 351 739 317 q 714 421 726 386 l 840 414 m 539 1047 q 390 1099 443 1047 q 336 1219 336 1151 q 390 1276 336 1276 q 454 1224 443 1276 q 481 1170 463 1188 q 538 1153 499 1153 q 591 1168 574 1153 q 617 1215 608 1183 q 642 1271 626 1251 q 688 1290 657 1290 q 728 1274 715 1290 q 742 1226 742 1257 q 718 1138 742 1179 q 649 1072 694 1097 q 539 1047 604 1047 z "},"Ģ":{"ha":978,"x_min":68,"x_max":954,"o":"m 738 386 q 660 379 696 381 q 593 378 625 378 q 468 392 500 378 q 436 443 436 407 q 452 486 436 467 q 499 519 468 506 q 605 548 535 535 q 750 561 675 561 q 901 545 847 561 q 954 485 954 529 q 926 426 954 450 q 835 394 899 401 l 738 386 m 840 414 q 892 321 876 368 q 907 236 907 274 q 870 116 907 174 q 756 22 833 58 q 551 -15 678 -15 q 281 45 389 -15 q 121 216 174 106 q 68 474 68 326 q 135 754 68 632 q 324 945 201 876 q 610 1014 446 1014 q 819 966 746 1014 q 892 854 892 918 q 866 794 892 815 q 792 772 840 772 q 731 782 763 772 q 662 801 700 792 q 575 810 624 810 q 411 777 486 810 q 291 670 336 744 q 246 471 246 596 q 287 297 246 364 q 401 198 328 229 q 569 167 475 167 q 670 181 633 167 q 723 222 707 194 q 739 293 739 250 q 733 351 739 317 q 714 421 726 386 l 840 414 m 528 -244 q 436 -221 463 -244 q 410 -153 410 -197 q 420 -104 410 -128 q 456 -65 431 -81 q 526 -50 482 -50 q 609 -77 578 -50 q 640 -164 640 -104 q 623 -235 640 -196 q 578 -306 606 -274 q 533 -346 556 -332 q 490 -360 511 -360 q 467 -353 476 -360 q 457 -335 457 -347 q 469 -297 457 -321 q 519 -231 481 -272 l 528 -244 z "},"Ġ":{"ha":978,"x_min":68,"x_max":954,"o":"m 738 386 q 660 379 696 381 q 593 378 625 378 q 468 392 500 378 q 436 443 436 407 q 452 486 436 467 q 499 519 468 506 q 605 548 535 535 q 750 561 675 561 q 901 545 847 561 q 954 485 954 529 q 926 426 954 450 q 835 394 899 401 l 738 386 m 840 414 q 892 321 876 368 q 907 236 907 274 q 870 116 907 174 q 756 22 833 58 q 551 -15 678 -15 q 281 45 389 -15 q 121 216 174 106 q 68 474 68 326 q 135 754 68 632 q 324 945 201 876 q 610 1014 446 1014 q 819 966 746 1014 q 892 854 892 918 q 866 794 892 815 q 792 772 840 772 q 731 782 763 772 q 662 801 700 792 q 575 810 624 810 q 411 777 486 810 q 291 670 336 744 q 246 471 246 596 q 287 297 246 364 q 401 198 328 229 q 569 167 475 167 q 670 181 633 167 q 723 222 707 194 q 739 293 739 250 q 733 351 739 317 q 714 421 726 386 l 840 414 m 549 1274 q 628 1243 604 1274 q 653 1172 653 1213 q 623 1095 653 1122 q 539 1068 593 1068 q 460 1098 486 1068 q 433 1168 433 1128 q 465 1247 433 1221 q 549 1274 497 1274 z "},"H":{"ha":933,"x_min":92,"x_max":842,"o":"m 242 1021 q 303 994 282 1021 q 324 906 324 967 q 306 733 324 829 q 254 551 288 638 l 232 579 q 463 601 343 603 q 679 574 582 600 l 654 561 q 627 746 636 654 q 618 908 618 838 q 638 1001 618 974 q 700 1029 657 1029 q 769 998 744 1029 q 808 900 794 967 q 833 733 824 831 q 842 532 842 635 q 836 325 842 431 q 815 129 831 219 q 775 25 803 57 q 699 -7 747 -7 q 627 25 649 -7 q 606 144 606 57 q 619 321 606 229 q 656 501 632 413 l 685 458 q 465 437 579 436 q 242 458 350 438 l 244 506 q 297 319 272 415 q 321 128 321 224 q 294 20 321 51 q 219 -11 268 -11 q 153 13 178 -11 q 117 100 128 36 q 99 256 106 163 q 92 454 92 350 q 103 694 92 578 q 132 894 114 811 q 172 990 146 960 q 242 1021 199 1021 z "},"Ħ":{"ha":933,"x_min":-71,"x_max":1015,"o":"m 219 -11 q 153 13 178 -11 q 117 100 128 36 q 99 256 106 163 q 92 454 92 350 q 103 694 92 578 q 132 894 114 811 q 172 990 146 960 q 242 1021 199 1021 q 303 994 282 1021 q 324 906 324 967 q 306 733 324 829 q 254 551 288 638 l 232 579 q 463 601 343 603 q 679 574 582 600 l 654 561 q 627 746 636 654 q 618 908 618 838 q 638 1001 618 974 q 700 1029 657 1029 q 769 998 744 1029 q 808 900 794 967 q 833 733 824 831 q 842 532 842 635 q 836 325 842 431 q 815 129 831 219 q 775 25 803 57 q 699 -7 747 -7 q 627 25 649 -7 q 606 144 606 57 q 619 321 606 229 q 656 501 632 413 l 685 458 q 465 437 579 436 q 242 458 350 438 l 244 506 q 297 319 272 415 q 321 128 321 224 q 294 20 321 51 q 219 -11 268 -11 m 35 700 q -47 715 -24 700 q -71 754 -71 729 q -49 797 -71 778 q 39 824 -28 815 q 219 841 113 832 q 447 857 326 850 q 687 869 568 864 q 903 874 806 874 q 990 858 965 874 q 1015 814 1015 842 q 994 772 1015 789 q 915 747 972 754 q 760 734 850 740 q 569 722 669 728 q 368 710 468 715 q 181 703 268 706 q 35 700 94 700 z "},"I":{"ha":414,"x_min":92,"x_max":322,"o":"m 213 1035 q 269 1007 249 1035 q 300 921 290 979 q 317 764 311 861 q 322 551 322 667 q 316 360 322 451 q 299 189 310 268 q 264 76 288 108 q 200 44 240 44 q 140 69 161 44 q 110 154 118 94 q 97 296 101 208 q 92 482 92 383 q 100 729 92 618 q 122 914 108 840 q 155 1006 135 976 q 213 1035 175 1035 z "},"Ĳ":{"ha":1285,"x_min":92,"x_max":1254,"o":"m 213 1035 q 269 1007 249 1035 q 300 921 290 979 q 317 764 311 861 q 322 551 322 667 q 316 360 322 451 q 299 189 310 268 q 264 76 288 108 q 200 44 240 44 q 140 69 161 44 q 110 154 118 94 q 97 296 101 208 q 92 482 92 383 q 100 729 92 618 q 122 914 108 840 q 155 1006 135 976 q 213 1035 175 1035 m 894 825 q 774 795 829 806 q 669 785 718 785 q 600 803 625 785 q 575 857 575 821 q 596 915 575 888 q 660 965 617 943 q 790 1007 711 990 q 975 1024 869 1024 q 1099 1015 1046 1024 q 1182 993 1151 1006 q 1238 955 1222 976 q 1254 906 1254 933 q 1229 849 1254 871 q 1149 826 1204 826 q 1080 831 1115 826 q 1006 842 1044 835 l 894 825 m 990 900 q 1101 694 1061 811 q 1140 449 1140 576 q 1103 210 1140 315 q 986 45 1067 106 q 772 -15 906 -15 q 526 76 608 -15 q 444 328 444 168 q 465 460 444 406 q 518 542 485 514 q 590 571 551 571 q 645 549 626 571 q 664 489 664 528 q 653 419 664 457 q 643 344 643 381 q 676 209 643 251 q 781 167 708 167 q 916 245 876 167 q 956 460 956 324 q 935 653 956 558 q 868 846 914 747 l 990 900 z "},"Í":{"ha":418,"x_min":90,"x_max":454,"o":"m 219 58 q 163 88 183 58 q 131 186 143 118 q 110 333 119 249 q 97 501 101 417 q 92 650 92 586 q 102 865 92 788 q 135 975 113 943 q 194 1007 158 1007 q 248 974 228 1007 q 282 875 268 942 q 300 765 292 828 q 314 633 308 701 q 323 503 319 565 q 326 396 326 440 q 317 202 326 276 q 285 93 308 128 q 219 58 263 58 m 90 1057 q 119 1107 90 1079 q 196 1169 149 1135 q 285 1227 243 1203 q 360 1251 328 1251 q 408 1235 388 1251 q 442 1197 429 1219 q 454 1156 454 1175 q 428 1111 454 1129 q 351 1075 403 1093 q 267 1050 311 1061 q 184 1033 222 1039 q 121 1026 146 1026 q 99 1035 107 1026 q 90 1057 90 1044 z "},"Î":{"ha":418,"x_min":17,"x_max":401,"o":"m 219 58 q 163 88 183 58 q 131 186 143 118 q 110 333 119 249 q 97 501 101 417 q 92 650 92 586 q 102 865 92 788 q 135 975 113 943 q 194 1007 158 1007 q 248 974 228 1007 q 282 875 268 942 q 300 765 292 828 q 314 633 308 701 q 323 503 319 565 q 326 396 326 440 q 317 202 326 276 q 285 93 308 128 q 219 58 263 58 m 214 1263 q 267 1249 233 1263 q 333 1213 301 1236 q 384 1163 367 1188 q 401 1103 401 1138 q 381 1055 401 1072 q 332 1038 360 1038 q 256 1078 293 1038 q 192 1190 219 1119 l 213 1194 q 138 1069 175 1108 q 69 1031 101 1031 q 32 1044 47 1031 q 17 1079 17 1057 q 35 1140 17 1111 q 89 1199 54 1169 q 156 1246 125 1229 q 214 1263 188 1263 z "},"Ï":{"ha":418,"x_min":15,"x_max":401,"o":"m 219 58 q 163 88 183 58 q 131 186 143 118 q 110 333 119 249 q 97 501 101 417 q 92 650 92 586 q 102 865 92 788 q 135 975 113 943 q 194 1007 158 1007 q 248 974 228 1007 q 282 875 268 942 q 300 765 292 828 q 314 633 308 701 q 323 503 319 565 q 326 396 326 440 q 317 202 326 276 q 285 93 308 128 q 219 58 263 58 m 89 1042 q 33 1069 50 1042 q 15 1135 15 1097 q 41 1213 15 1186 q 113 1240 67 1240 q 167 1210 149 1240 q 185 1139 185 1181 q 161 1067 185 1092 q 89 1042 138 1042 m 325 1254 q 383 1224 365 1254 q 401 1153 401 1193 q 378 1075 401 1101 q 310 1049 354 1049 q 251 1078 271 1049 q 232 1149 232 1107 q 258 1227 232 1200 q 325 1254 283 1254 z "},"İ":{"ha":414,"x_min":92,"x_max":322,"o":"m 213 1035 q 269 1007 249 1035 q 300 921 290 979 q 317 764 311 861 q 322 551 322 667 q 316 360 322 451 q 299 189 310 268 q 264 76 288 108 q 200 44 240 44 q 140 69 161 44 q 110 154 118 94 q 97 296 101 208 q 92 482 92 383 q 100 729 92 618 q 122 914 108 840 q 155 1006 135 976 q 213 1035 175 1035 m 217 1282 q 297 1251 272 1282 q 321 1181 321 1221 q 291 1103 321 1131 q 207 1076 261 1076 q 128 1106 154 1076 q 101 1176 101 1136 q 133 1256 101 1229 q 217 1282 165 1282 z "},"Ì":{"ha":418,"x_min":-37,"x_max":326,"o":"m 219 58 q 163 88 183 58 q 131 186 143 118 q 110 333 119 249 q 97 501 101 417 q 92 650 92 586 q 102 865 92 788 q 135 975 113 943 q 194 1007 158 1007 q 248 974 228 1007 q 282 875 268 942 q 300 765 292 828 q 314 633 308 701 q 323 503 319 565 q 326 396 326 440 q 317 202 326 276 q 285 93 308 128 q 219 58 263 58 m 326 1057 q 319 1035 326 1044 q 296 1026 311 1026 q 233 1033 271 1026 q 151 1050 194 1039 q 65 1075 107 1061 q -12 1111 14 1093 q -37 1156 -37 1129 q -25 1197 -37 1175 q 9 1235 -12 1219 q 57 1251 31 1251 q 131 1227 89 1251 q 221 1169 174 1203 q 298 1107 269 1135 q 326 1057 326 1079 z "},"Ī":{"ha":414,"x_min":-57,"x_max":471,"o":"m 213 1035 q 269 1007 249 1035 q 300 921 290 979 q 317 764 311 861 q 322 551 322 667 q 316 360 322 451 q 299 189 310 268 q 264 76 288 108 q 200 44 240 44 q 140 69 161 44 q 110 154 118 94 q 97 296 101 208 q 92 482 92 383 q 100 729 92 618 q 122 914 108 840 q 155 1006 135 976 q 213 1035 175 1035 m 49 1069 q -31 1090 -6 1069 q -57 1142 -57 1110 q -34 1191 -57 1174 q 43 1222 -11 1208 q 141 1238 88 1232 q 249 1246 194 1243 q 347 1249 303 1249 q 442 1229 414 1249 q 471 1178 471 1210 q 447 1122 471 1143 q 378 1093 424 1101 q 274 1081 335 1086 q 153 1072 213 1075 q 49 1069 93 1069 z "},"Į":{"ha":414,"x_min":-17,"x_max":322,"o":"m 213 1035 q 269 1007 249 1035 q 300 921 290 979 q 317 764 311 861 q 322 551 322 667 q 316 360 322 451 q 299 189 310 268 q 264 76 288 108 q 200 44 240 44 q 140 69 161 44 q 110 154 118 94 q 97 296 101 208 q 92 482 92 383 q 100 729 92 618 q 122 914 108 840 q 155 1006 135 976 q 213 1035 175 1035 m 149 -265 q 30 -233 76 -265 q -17 -139 -17 -201 q 22 -35 -17 -89 q 147 67 60 18 l 256 69 q 134 -30 179 22 q 89 -110 89 -82 q 106 -135 89 -128 q 150 -142 122 -142 q 183 -140 165 -142 q 221 -139 200 -139 q 262 -153 249 -139 q 275 -193 275 -168 q 242 -247 275 -229 q 149 -265 210 -265 z "},"J":{"ha":871,"x_min":31,"x_max":840,"o":"m 481 825 q 360 795 415 806 q 256 785 304 785 q 186 803 211 785 q 161 857 161 821 q 182 915 161 888 q 246 965 203 943 q 376 1007 297 990 q 561 1024 456 1024 q 685 1015 632 1024 q 768 993 738 1006 q 824 955 808 976 q 840 906 840 933 q 815 849 840 871 q 735 826 790 826 q 666 831 701 826 q 592 842 631 835 l 481 825 m 576 900 q 687 694 647 811 q 726 449 726 576 q 690 210 726 315 q 572 45 653 106 q 358 -15 492 -15 q 113 76 194 -15 q 31 328 31 168 q 51 460 31 406 q 104 542 71 514 q 176 571 138 571 q 231 549 213 571 q 250 489 250 528 q 240 419 250 457 q 229 344 229 381 q 262 209 229 251 q 367 167 294 167 q 502 245 463 167 q 542 460 542 324 q 521 653 542 558 q 454 846 500 747 l 576 900 z "},"K":{"ha":865,"x_min":92,"x_max":832,"o":"m 183 -14 q 143 3 158 -14 q 118 60 128 21 q 100 199 108 104 q 92 413 92 294 q 99 662 92 540 q 122 876 107 783 q 155 967 133 938 q 215 997 176 997 q 260 981 240 997 q 290 921 279 964 q 300 799 300 878 q 297 710 300 760 q 289 601 294 661 l 294 601 q 490 845 406 754 q 640 976 575 936 q 753 1017 704 1017 q 812 992 792 1017 q 832 931 832 967 q 717 747 832 854 q 349 490 603 640 l 360 517 q 692 272 579 378 q 804 83 804 165 q 781 24 804 47 q 714 1 758 1 q 596 40 658 1 q 458 169 533 78 q 286 417 382 260 l 281 417 q 285 351 283 385 q 286 283 286 317 q 264 55 286 124 q 183 -14 242 -14 z "},"Ķ":{"ha":865,"x_min":92,"x_max":832,"o":"m 183 -14 q 143 3 158 -14 q 118 60 128 21 q 100 199 108 104 q 92 413 92 294 q 99 662 92 540 q 122 876 107 783 q 155 967 133 938 q 215 997 176 997 q 260 981 240 997 q 290 921 279 964 q 300 799 300 878 q 297 710 300 760 q 289 601 294 661 l 294 601 q 490 845 406 754 q 640 976 575 936 q 753 1017 704 1017 q 812 992 792 1017 q 832 931 832 967 q 717 747 832 854 q 349 490 603 640 l 360 517 q 692 272 579 378 q 804 83 804 165 q 781 24 804 47 q 714 1 758 1 q 596 40 658 1 q 458 169 533 78 q 286 417 382 260 l 281 417 q 285 351 283 385 q 286 283 286 317 q 264 55 286 124 q 183 -14 242 -14 m 413 -244 q 321 -221 347 -244 q 294 -153 294 -197 q 305 -104 294 -128 q 341 -65 315 -81 q 411 -50 367 -50 q 494 -77 463 -50 q 525 -164 525 -104 q 508 -235 525 -196 q 463 -306 490 -274 q 418 -346 440 -332 q 375 -360 396 -360 q 351 -353 361 -360 q 342 -335 342 -347 q 353 -297 342 -321 q 404 -231 365 -272 l 413 -244 z "},"L":{"ha":767,"x_min":92,"x_max":736,"o":"m 333 -8 q 207 14 249 -8 q 138 94 165 36 q 105 240 118 139 q 92 501 92 340 q 97 717 92 614 q 111 875 101 819 q 148 976 122 946 q 213 1007 174 1007 q 267 976 247 1007 q 296 894 288 946 q 304 779 304 842 q 292 436 304 610 q 260 117 281 263 l 242 142 q 376 215 304 185 q 516 263 447 246 q 636 279 585 279 q 712 258 688 279 q 736 199 736 238 q 702 120 736 160 q 606 51 668 81 q 524 22 571 35 q 427 0 476 8 q 333 -8 378 -8 z "},"Ĺ":{"ha":767,"x_min":92,"x_max":736,"o":"m 333 -8 q 207 14 249 -8 q 138 94 165 36 q 105 240 118 139 q 92 501 92 340 q 97 717 92 614 q 111 875 101 819 q 148 976 122 946 q 213 1007 174 1007 q 267 976 247 1007 q 296 894 288 946 q 304 779 304 842 q 292 436 304 610 q 260 117 281 263 l 242 142 q 376 215 304 185 q 516 263 447 246 q 636 279 585 279 q 712 258 688 279 q 736 199 736 238 q 702 120 736 160 q 606 51 668 81 q 524 22 571 35 q 427 0 476 8 q 333 -8 378 -8 m 239 1076 q 268 1126 239 1099 q 344 1189 297 1154 q 434 1247 392 1222 q 508 1271 476 1271 q 557 1255 536 1271 q 590 1217 578 1239 q 603 1175 603 1194 q 577 1131 603 1149 q 500 1094 551 1113 q 415 1069 460 1081 q 333 1052 371 1058 q 269 1046 294 1046 q 247 1055 256 1046 q 239 1076 239 1064 z "},"Ľ":{"ha":767,"x_min":92,"x_max":736,"o":"m 333 -8 q 207 14 249 -8 q 138 94 165 36 q 105 240 118 139 q 92 501 92 340 q 97 717 92 614 q 111 875 101 819 q 148 976 122 946 q 213 1007 174 1007 q 267 976 247 1007 q 296 894 288 946 q 304 779 304 842 q 292 436 304 610 q 260 117 281 263 l 242 142 q 376 215 304 185 q 516 263 447 246 q 636 279 585 279 q 712 258 688 279 q 736 199 736 238 q 702 120 736 160 q 606 51 668 81 q 524 22 571 35 q 427 0 476 8 q 333 -8 378 -8 m 478 742 q 460 796 461 756 q 468 892 458 836 q 486 978 478 938 q 517 1040 494 1018 q 563 1065 535 1063 q 621 1058 592 1067 q 667 1036 650 1050 q 688 991 689 1018 q 664 919 686 964 q 626 855 647 888 q 585 794 604 822 q 550 749 565 767 q 515 731 538 733 q 478 742 493 729 z "},"Ļ":{"ha":767,"x_min":92,"x_max":736,"o":"m 333 -8 q 207 14 249 -8 q 138 94 165 36 q 105 240 118 139 q 92 501 92 340 q 97 717 92 614 q 111 875 101 819 q 148 976 122 946 q 213 1007 174 1007 q 267 976 247 1007 q 296 894 288 946 q 304 779 304 842 q 292 436 304 610 q 260 117 281 263 l 242 142 q 376 215 304 185 q 516 263 447 246 q 636 279 585 279 q 712 258 688 279 q 736 199 736 238 q 702 120 736 160 q 606 51 668 81 q 524 22 571 35 q 427 0 476 8 q 333 -8 378 -8 m 360 -244 q 268 -221 294 -244 q 242 -153 242 -197 q 252 -104 242 -128 q 288 -65 263 -81 q 358 -50 314 -50 q 441 -77 410 -50 q 472 -164 472 -104 q 455 -235 472 -196 q 410 -306 438 -274 q 365 -346 388 -332 q 322 -360 343 -360 q 299 -353 308 -360 q 289 -335 289 -347 q 301 -297 289 -321 q 351 -231 313 -272 l 360 -244 z "},"Ł":{"ha":767,"x_min":-50,"x_max":736,"o":"m 81 185 q 8 144 36 147 q -35 158 -19 140 q -45 206 -50 178 q 4 282 -40 233 q 98 383 56 336 q 184 474 140 429 q 283 570 228 519 q 413 683 338 621 q 490 727 461 724 q 536 710 518 731 q 547 663 553 690 q 501 594 542 636 q 393 483 444 536 q 291 379 342 429 q 189 281 240 329 q 81 185 138 233 m 333 -8 q 207 14 249 -8 q 138 94 165 36 q 105 240 118 139 q 92 501 92 340 q 97 717 92 614 q 111 875 101 819 q 148 976 122 946 q 213 1007 174 1007 q 267 976 247 1007 q 296 894 288 946 q 304 779 304 842 q 292 436 304 610 q 260 117 281 263 l 242 142 q 376 215 304 185 q 516 263 447 246 q 636 279 585 279 q 712 258 688 279 q 736 199 736 238 q 702 120 736 160 q 606 51 668 81 q 524 22 571 35 q 427 0 476 8 q 333 -8 378 -8 z "},"M":{"ha":1022,"x_min":92,"x_max":931,"o":"m 804 -11 q 752 4 775 -11 q 717 58 729 19 q 704 164 704 96 q 708 376 704 263 q 720 605 713 489 q 735 829 728 721 l 729 829 q 625 524 681 628 q 501 421 569 421 q 424 459 460 421 q 356 588 389 497 q 285 836 324 679 l 279 836 q 288 679 283 763 q 295 511 292 596 q 301 350 299 426 q 303 214 303 274 q 294 119 303 163 q 262 51 285 76 q 199 26 239 26 q 118 70 144 26 q 92 215 92 114 q 95 355 92 275 q 104 520 99 435 q 118 685 110 606 q 136 825 126 765 q 182 959 153 919 q 260 999 211 999 q 339 963 300 999 q 419 844 378 928 q 507 613 461 760 l 513 613 q 597 853 557 763 q 675 985 638 944 q 746 1025 713 1025 q 826 984 799 1025 q 872 868 854 943 q 906 667 893 782 q 924 431 918 551 q 931 207 931 311 q 896 38 931 88 q 804 -11 861 -11 z "},"N":{"ha":953,"x_min":92,"x_max":861,"o":"m 247 988 q 335 940 290 988 q 431 797 381 892 q 540 563 481 703 q 669 238 599 422 l 675 238 q 657 383 665 304 q 642 543 649 463 q 631 694 635 624 q 628 814 628 764 q 649 977 628 929 q 717 1025 671 1025 q 768 1008 749 1025 q 801 960 788 992 q 847 746 833 882 q 861 435 861 610 q 850 206 861 300 q 808 63 839 111 q 719 14 778 14 q 640 45 681 14 q 559 138 600 76 q 474 293 518 200 q 383 510 431 386 q 282 789 335 635 l 276 789 q 293 618 286 717 q 304 417 300 519 q 308 228 308 314 q 283 44 308 99 q 203 -10 257 -10 q 117 47 143 -10 q 92 221 92 103 q 95 389 92 294 q 106 583 99 483 q 124 774 113 683 q 163 937 138 886 q 247 988 188 988 z "},"Ń":{"ha":953,"x_min":92,"x_max":861,"o":"m 247 988 q 335 940 290 988 q 431 797 381 892 q 540 563 481 703 q 669 238 599 422 l 675 238 q 657 383 665 304 q 642 543 649 463 q 631 694 635 624 q 628 814 628 764 q 649 977 628 929 q 717 1025 671 1025 q 768 1008 749 1025 q 801 960 788 992 q 847 746 833 882 q 861 435 861 610 q 850 206 861 300 q 808 63 839 111 q 719 14 778 14 q 640 45 681 14 q 559 138 600 76 q 474 293 518 200 q 383 510 431 386 q 282 789 335 635 l 276 789 q 293 618 286 717 q 304 417 300 519 q 308 228 308 314 q 283 44 308 99 q 203 -10 257 -10 q 117 47 143 -10 q 92 221 92 103 q 95 389 92 294 q 106 583 99 483 q 124 774 113 683 q 163 937 138 886 q 247 988 188 988 m 360 1076 q 389 1126 360 1099 q 465 1189 418 1154 q 555 1247 513 1222 q 629 1271 597 1271 q 678 1255 657 1271 q 711 1217 699 1239 q 724 1175 724 1194 q 698 1131 724 1149 q 621 1094 672 1113 q 536 1069 581 1081 q 453 1052 492 1058 q 390 1046 415 1046 q 368 1055 376 1046 q 360 1076 360 1064 z "},"Ň":{"ha":953,"x_min":92,"x_max":861,"o":"m 247 988 q 335 940 290 988 q 431 797 381 892 q 540 563 481 703 q 669 238 599 422 l 675 238 q 657 383 665 304 q 642 543 649 463 q 631 694 635 624 q 628 814 628 764 q 649 977 628 929 q 717 1025 671 1025 q 768 1008 749 1025 q 801 960 788 992 q 847 746 833 882 q 861 435 861 610 q 850 206 861 300 q 808 63 839 111 q 719 14 778 14 q 640 45 681 14 q 559 138 600 76 q 474 293 518 200 q 383 510 431 386 q 282 789 335 635 l 276 789 q 293 618 286 717 q 304 417 300 519 q 308 228 308 314 q 283 44 308 99 q 203 -10 257 -10 q 117 47 143 -10 q 92 221 92 103 q 95 389 92 294 q 106 583 99 483 q 124 774 113 683 q 163 937 138 886 q 247 988 188 988 m 483 1064 q 418 1082 454 1064 q 342 1126 382 1100 q 274 1186 299 1157 q 249 1247 249 1215 q 264 1283 249 1269 q 301 1296 279 1296 q 386 1257 339 1296 q 482 1132 433 1218 l 461 1136 q 542 1248 496 1207 q 633 1289 589 1289 q 687 1272 665 1289 q 708 1224 708 1254 q 685 1164 708 1189 q 618 1113 661 1139 q 544 1077 582 1090 q 483 1064 506 1064 z "},"Ņ":{"ha":953,"x_min":92,"x_max":861,"o":"m 247 988 q 335 940 290 988 q 431 797 381 892 q 540 563 481 703 q 669 238 599 422 l 675 238 q 657 383 665 304 q 642 543 649 463 q 631 694 635 624 q 628 814 628 764 q 649 977 628 929 q 717 1025 671 1025 q 768 1008 749 1025 q 801 960 788 992 q 847 746 833 882 q 861 435 861 610 q 850 206 861 300 q 808 63 839 111 q 719 14 778 14 q 640 45 681 14 q 559 138 600 76 q 474 293 518 200 q 383 510 431 386 q 282 789 335 635 l 276 789 q 293 618 286 717 q 304 417 300 519 q 308 228 308 314 q 283 44 308 99 q 203 -10 257 -10 q 117 47 143 -10 q 92 221 92 103 q 95 389 92 294 q 106 583 99 483 q 124 774 113 683 q 163 937 138 886 q 247 988 188 988 m 481 -244 q 389 -221 415 -244 q 363 -153 363 -197 q 373 -104 363 -128 q 409 -65 383 -81 q 479 -50 435 -50 q 562 -77 531 -50 q 593 -164 593 -104 q 576 -235 593 -196 q 531 -306 558 -274 q 486 -346 508 -332 q 443 -360 464 -360 q 419 -353 429 -360 q 410 -335 410 -347 q 422 -297 410 -321 q 472 -231 433 -272 l 481 -244 z "},"Ñ":{"ha":953,"x_min":92,"x_max":861,"o":"m 247 988 q 335 940 290 988 q 431 797 381 892 q 540 563 481 703 q 669 238 599 422 l 675 238 q 657 383 665 304 q 642 543 649 463 q 631 694 635 624 q 628 814 628 764 q 649 977 628 929 q 717 1025 671 1025 q 768 1008 749 1025 q 801 960 788 992 q 847 746 833 882 q 861 435 861 610 q 850 206 861 300 q 808 63 839 111 q 719 14 778 14 q 640 45 681 14 q 559 138 600 76 q 474 293 518 200 q 383 510 431 386 q 282 789 335 635 l 276 789 q 293 618 286 717 q 304 417 300 519 q 308 228 308 314 q 283 44 308 99 q 203 -10 257 -10 q 117 47 143 -10 q 92 221 92 103 q 95 389 92 294 q 106 583 99 483 q 124 774 113 683 q 163 937 138 886 q 247 988 188 988 m 400 1256 q 485 1232 447 1256 q 558 1175 522 1208 q 574 1167 568 1167 q 583 1178 581 1168 q 617 1253 599 1229 q 669 1276 635 1276 q 721 1217 721 1276 q 706 1147 721 1186 q 658 1077 690 1107 q 574 1047 625 1047 q 488 1076 525 1047 q 411 1151 450 1104 q 394 1163 401 1164 q 382 1140 388 1161 q 350 1062 369 1086 q 293 1038 331 1038 q 251 1057 267 1038 q 235 1103 235 1076 q 256 1176 235 1142 q 315 1233 278 1211 q 400 1256 353 1256 z "},"Ŋ":{"ha":947,"x_min":92,"x_max":863,"o":"m 675 -289 q 575 -265 619 -289 q 504 -206 531 -242 q 478 -132 478 -169 q 494 -82 478 -100 q 538 -64 511 -64 q 622 -90 578 -64 q 710 -162 667 -115 q 694 -71 700 -117 q 685 19 688 -25 q 593 91 639 35 q 499 244 547 147 q 397 476 450 340 q 282 789 343 613 l 276 789 q 293 618 286 717 q 304 417 300 519 q 308 228 308 314 q 283 44 308 99 q 203 -10 257 -10 q 117 47 143 -10 q 92 221 92 103 q 95 389 92 294 q 106 583 99 483 q 124 774 113 683 q 163 937 138 886 q 247 988 188 988 q 335 940 290 988 q 431 797 381 892 q 540 563 481 703 q 669 238 599 422 l 675 238 q 657 383 665 304 q 642 543 649 463 q 631 694 635 624 q 628 814 628 764 q 649 977 628 929 q 717 1025 671 1025 q 768 1008 749 1025 q 801 960 788 992 q 834 832 822 908 q 852 669 846 756 q 861 496 858 582 q 862 438 861 482 q 862 333 863 394 q 860 200 861 271 q 856 61 860 129 q 848 -63 853 -7 q 835 -153 843 -119 q 776 -257 817 -225 q 675 -289 736 -289 z "},"O":{"ha":1040,"x_min":68,"x_max":972,"o":"m 504 10 q 275 64 374 10 q 122 219 176 118 q 68 457 68 319 q 123 725 68 610 q 277 905 178 840 q 508 969 376 969 q 753 907 649 969 q 915 733 857 844 q 972 472 972 621 q 914 226 972 329 q 751 66 856 122 q 504 10 646 10 m 522 214 q 654 250 597 214 q 742 352 711 286 q 774 506 774 418 q 742 659 774 593 q 654 761 711 725 q 522 797 597 797 q 392 761 449 797 q 303 659 335 725 q 271 506 271 593 q 303 352 271 418 q 392 250 335 286 q 522 214 449 214 z "},"Ó":{"ha":1040,"x_min":68,"x_max":972,"o":"m 504 10 q 275 64 374 10 q 122 219 176 118 q 68 457 68 319 q 123 725 68 610 q 277 905 178 840 q 508 969 376 969 q 753 907 649 969 q 915 733 857 844 q 972 472 972 621 q 914 226 972 329 q 751 66 856 122 q 504 10 646 10 m 522 214 q 654 250 597 214 q 742 352 711 286 q 774 506 774 418 q 742 659 774 593 q 654 761 711 725 q 522 797 597 797 q 392 761 449 797 q 303 659 335 725 q 271 506 271 593 q 303 352 271 418 q 392 250 335 286 q 522 214 449 214 m 403 1019 q 432 1069 403 1042 q 508 1132 461 1097 q 598 1190 556 1165 q 672 1214 640 1214 q 721 1198 700 1214 q 754 1160 742 1182 q 767 1118 767 1138 q 741 1074 767 1092 q 664 1038 715 1056 q 579 1013 624 1024 q 497 995 535 1001 q 433 989 458 989 q 411 998 419 989 q 403 1019 403 1007 z "},"Ô":{"ha":1040,"x_min":68,"x_max":972,"o":"m 504 10 q 275 64 374 10 q 122 219 176 118 q 68 457 68 319 q 123 725 68 610 q 277 905 178 840 q 508 969 376 969 q 753 907 649 969 q 915 733 857 844 q 972 472 972 621 q 914 226 972 329 q 751 66 856 122 q 504 10 646 10 m 522 214 q 654 250 597 214 q 742 352 711 286 q 774 506 774 418 q 742 659 774 593 q 654 761 711 725 q 522 797 597 797 q 392 761 449 797 q 303 659 335 725 q 271 506 271 593 q 303 352 271 418 q 392 250 335 286 q 522 214 449 214 m 526 1225 q 587 1212 549 1225 q 661 1176 625 1199 q 728 1125 704 1150 q 751 1065 751 1100 q 730 1017 751 1035 q 676 1000 708 1000 q 585 1041 632 1000 q 504 1153 539 1082 l 525 1157 q 429 1032 476 1071 q 344 993 382 993 q 307 1006 322 993 q 292 1042 292 1019 q 317 1103 292 1074 q 385 1163 342 1132 q 461 1208 425 1190 q 526 1225 497 1225 z "},"Ö":{"ha":1040,"x_min":68,"x_max":972,"o":"m 504 10 q 275 64 374 10 q 122 219 176 118 q 68 457 68 319 q 123 725 68 610 q 277 905 178 840 q 508 969 376 969 q 753 907 649 969 q 915 733 857 844 q 972 472 972 621 q 914 226 972 329 q 751 66 856 122 q 504 10 646 10 m 522 214 q 654 250 597 214 q 742 352 711 286 q 774 506 774 418 q 742 659 774 593 q 654 761 711 725 q 522 797 597 797 q 392 761 449 797 q 303 659 335 725 q 271 506 271 593 q 303 352 271 418 q 392 250 335 286 q 522 214 449 214 m 357 1004 q 275 1032 301 1004 q 249 1097 249 1060 q 283 1176 249 1149 q 381 1203 318 1203 q 461 1173 435 1203 q 488 1101 488 1143 q 451 1029 488 1054 q 357 1004 414 1004 m 681 1217 q 765 1186 739 1217 q 792 1115 792 1156 q 760 1038 792 1064 q 667 1011 728 1011 q 582 1040 610 1011 q 554 1111 554 1069 q 589 1190 554 1163 q 681 1217 624 1217 z "},"Ò":{"ha":1040,"x_min":68,"x_max":972,"o":"m 504 10 q 275 64 374 10 q 122 219 176 118 q 68 457 68 319 q 123 725 68 610 q 277 905 178 840 q 508 969 376 969 q 753 907 649 969 q 915 733 857 844 q 972 472 972 621 q 914 226 972 329 q 751 66 856 122 q 504 10 646 10 m 522 214 q 654 250 597 214 q 742 352 711 286 q 774 506 774 418 q 742 659 774 593 q 654 761 711 725 q 522 797 597 797 q 392 761 449 797 q 303 659 335 725 q 271 506 271 593 q 303 352 271 418 q 392 250 335 286 q 522 214 449 214 m 639 1019 q 631 998 639 1007 q 608 989 624 989 q 545 995 583 989 q 463 1013 507 1001 q 378 1038 419 1024 q 301 1074 326 1056 q 275 1118 275 1092 q 288 1160 275 1138 q 322 1198 300 1182 q 369 1214 343 1214 q 444 1190 401 1214 q 533 1132 486 1165 q 610 1069 582 1097 q 639 1019 639 1042 z "},"Ő":{"ha":1040,"x_min":68,"x_max":972,"o":"m 504 10 q 275 64 374 10 q 122 219 176 118 q 68 457 68 319 q 123 725 68 610 q 277 905 178 840 q 508 969 376 969 q 753 907 649 969 q 915 733 857 844 q 972 472 972 621 q 914 226 972 329 q 751 66 856 122 q 504 10 646 10 m 522 214 q 654 250 597 214 q 742 352 711 286 q 774 506 774 418 q 742 659 774 593 q 654 761 711 725 q 522 797 597 797 q 392 761 449 797 q 303 659 335 725 q 271 506 271 593 q 303 352 271 418 q 392 250 335 286 q 522 214 449 214 m 621 992 q 595 1001 607 992 q 583 1026 583 1011 q 596 1072 583 1044 q 629 1135 608 1100 q 661 1183 643 1156 q 701 1232 679 1211 q 751 1253 724 1253 q 795 1242 772 1253 q 833 1213 818 1231 q 849 1179 849 1196 q 797 1107 849 1153 q 747 1065 775 1086 q 691 1027 718 1044 q 646 999 664 1010 q 634 994 640 996 q 621 992 628 992 m 354 992 q 328 1001 340 992 q 317 1025 317 1010 q 329 1072 317 1044 q 364 1133 342 1099 q 401 1191 383 1164 q 440 1235 419 1218 q 486 1251 460 1251 q 529 1240 507 1251 q 567 1213 551 1229 q 582 1179 582 1196 q 533 1106 582 1150 q 478 1063 508 1085 q 419 1024 447 1042 q 374 999 392 1007 q 363 994 368 996 q 354 992 357 992 z "},"Ō":{"ha":1040,"x_min":68,"x_max":972,"o":"m 504 10 q 275 64 374 10 q 122 219 176 118 q 68 457 68 319 q 123 725 68 610 q 277 905 178 840 q 508 969 376 969 q 753 907 649 969 q 915 733 857 844 q 972 472 972 621 q 914 226 972 329 q 751 66 856 122 q 504 10 646 10 m 522 214 q 654 250 597 214 q 742 352 711 286 q 774 506 774 418 q 742 659 774 593 q 654 761 711 725 q 522 797 597 797 q 392 761 449 797 q 303 659 335 725 q 271 506 271 593 q 303 352 271 418 q 392 250 335 286 q 522 214 449 214 m 363 1004 q 283 1024 308 1004 q 257 1076 257 1044 q 280 1126 257 1108 q 357 1157 303 1143 q 455 1172 401 1167 q 563 1181 508 1178 q 661 1183 617 1183 q 756 1164 728 1183 q 785 1113 785 1144 q 761 1057 785 1078 q 692 1028 738 1036 q 588 1015 649 1021 q 467 1007 526 1010 q 363 1004 407 1004 z "},"Ø":{"ha":1040,"x_min":68,"x_max":972,"o":"m 504 10 q 275 64 374 10 q 122 219 176 118 q 68 457 68 319 q 123 725 68 610 q 277 905 178 840 q 508 969 376 969 q 753 907 649 969 q 915 733 857 844 q 972 472 972 621 q 914 226 972 329 q 751 66 856 122 q 504 10 646 10 m 522 214 q 661 250 601 214 q 754 352 721 286 q 788 506 788 418 q 754 659 788 593 q 661 761 721 725 q 522 797 601 797 q 385 761 444 797 q 291 659 325 725 q 257 506 257 593 q 291 352 257 418 q 385 250 325 286 q 522 214 444 214 m 213 71 q 290 221 243 132 q 392 412 336 310 q 505 617 447 514 q 615 810 563 719 q 707 964 668 900 q 764 1028 739 1015 q 811 1029 789 1040 q 836 989 833 1019 q 811 901 839 958 q 721 724 771 819 q 616 528 671 628 q 507 335 561 429 q 404 160 453 242 q 319 22 356 79 q 256 -49 282 -37 q 210 -51 231 -61 q 187 -12 188 -40 q 213 71 186 15 z "},"Õ":{"ha":1040,"x_min":68,"x_max":972,"o":"m 504 10 q 275 64 374 10 q 122 219 176 118 q 68 457 68 319 q 123 725 68 610 q 277 905 178 840 q 508 969 376 969 q 753 907 649 969 q 915 733 857 844 q 972 472 972 621 q 914 226 972 329 q 751 66 856 122 q 504 10 646 10 m 522 214 q 654 250 597 214 q 742 352 711 286 q 774 506 774 418 q 742 659 774 593 q 654 761 711 725 q 522 797 597 797 q 392 761 449 797 q 303 659 335 725 q 271 506 271 593 q 303 352 271 418 q 392 250 335 286 q 522 214 449 214 m 443 1199 q 528 1175 490 1199 q 601 1118 565 1151 q 617 1110 611 1110 q 626 1121 624 1111 q 660 1196 642 1172 q 713 1219 678 1219 q 764 1160 764 1219 q 749 1090 764 1129 q 701 1020 733 1050 q 617 990 668 990 q 531 1019 568 990 q 454 1094 493 1047 q 438 1106 444 1107 q 425 1083 431 1104 q 393 1005 413 1029 q 336 981 374 981 q 294 1000 310 981 q 278 1046 278 1019 q 299 1119 278 1085 q 358 1176 321 1154 q 443 1199 396 1199 z "},"Œ":{"ha":1476,"x_min":68,"x_max":1440,"o":"m 504 10 q 275 64 374 10 q 122 219 176 118 q 68 457 68 319 q 123 725 68 610 q 277 905 178 840 q 508 969 376 969 q 731 907 640 969 q 869 733 822 844 q 917 472 917 621 q 810 134 917 258 q 504 10 703 10 m 522 214 q 654 250 597 214 q 742 352 711 286 q 774 506 774 418 q 742 659 774 593 q 654 761 711 725 q 522 797 597 797 q 392 761 449 797 q 303 659 335 725 q 271 506 271 593 q 303 352 271 418 q 392 250 335 286 q 522 214 449 214 m 1229 1022 q 1394 996 1349 1022 q 1440 919 1440 969 q 1387 840 1440 867 q 1218 813 1333 813 q 1090 815 1161 813 q 942 822 1018 817 l 964 839 q 971 701 976 775 q 940 561 965 628 l 933 571 q 1026 585 972 579 q 1136 596 1079 592 q 1240 600 1193 600 q 1368 576 1331 600 q 1406 519 1406 553 q 1363 456 1406 482 q 1217 429 1319 429 q 1065 435 1140 429 q 919 450 989 440 l 936 467 q 959 363 951 422 q 967 245 967 304 q 956 142 967 186 l 940 150 q 1046 179 986 167 q 1167 199 1106 192 q 1283 206 1229 206 q 1399 189 1361 206 q 1438 132 1438 172 q 1416 78 1438 101 q 1343 36 1394 56 q 1263 15 1310 25 q 1165 -2 1217 4 q 1061 -8 1113 -8 q 913 15 972 -8 q 828 86 854 39 q 788 221 801 138 q 774 449 774 304 q 783 669 774 582 q 810 810 793 756 q 850 897 828 865 q 943 972 885 944 q 1075 1010 1001 999 q 1229 1022 1149 1022 z "},"P":{"ha":833,"x_min":92,"x_max":799,"o":"m 476 999 q 720 914 642 999 q 799 692 799 829 q 755 528 799 597 q 636 420 711 458 q 467 382 561 382 q 373 392 422 382 q 271 429 324 401 l 278 447 q 297 362 289 413 q 309 258 304 311 q 314 160 314 204 q 287 34 314 78 q 207 -10 260 -10 q 137 18 163 -10 q 101 110 111 46 q 92 281 92 174 q 110 631 92 486 q 175 860 129 776 q 287 961 211 924 q 476 999 363 999 m 450 546 q 585 590 533 546 q 638 719 638 635 q 601 812 638 775 q 486 849 564 849 q 388 823 429 849 q 324 752 346 797 q 303 649 303 707 q 338 570 303 594 q 450 546 374 546 z "},"Þ":{"ha":833,"x_min":92,"x_max":799,"o":"m 207 -10 q 115 56 139 -10 q 92 281 92 121 q 92 375 92 313 q 92 515 92 438 q 92 668 92 593 q 92 800 92 743 q 92 878 92 857 q 119 1003 92 960 q 199 1047 146 1047 q 241 1033 224 1047 q 269 993 258 1019 q 282 929 279 967 q 283 890 283 911 q 280 844 282 868 q 272 796 278 821 q 387 847 338 833 q 488 860 436 860 q 722 775 644 860 q 799 553 799 690 q 755 389 799 458 q 636 281 711 319 q 467 243 561 243 q 379 251 425 243 q 285 283 333 260 q 307 218 300 249 q 314 160 314 188 q 287 34 314 78 q 207 -10 260 -10 m 450 407 q 585 451 533 407 q 638 581 638 496 q 601 673 638 636 q 486 710 564 710 q 388 684 429 710 q 324 613 346 658 q 303 510 303 568 q 338 431 303 456 q 450 407 374 407 z "},"Q":{"ha":1083,"x_min":68,"x_max":1094,"o":"m 513 10 q 275 65 375 10 q 122 224 175 121 q 68 468 68 326 q 127 751 68 629 q 294 940 186 872 q 547 1008 401 1008 q 738 970 653 1008 q 884 866 824 932 q 977 713 944 800 q 1010 528 1010 626 q 985 348 1010 431 q 914 213 960 265 l 840 140 q 704 44 789 78 q 513 10 619 10 m 1018 -25 q 919 19 971 -25 q 813 147 868 64 l 897 228 q 1042 142 990 189 q 1094 47 1094 94 q 1074 -3 1094 19 q 1018 -25 1054 -25 m 744 238 q 617 325 664 275 q 571 414 571 375 q 590 465 571 447 q 639 482 610 482 q 729 437 688 482 q 808 308 771 392 l 744 238 m 550 207 q 656 224 607 207 q 747 275 706 240 l 789 310 q 814 392 804 346 q 824 492 824 438 q 747 738 824 651 q 543 825 669 825 q 403 785 464 825 q 310 675 343 746 q 276 508 276 604 q 310 349 276 417 q 406 244 344 281 q 550 207 468 207 z "},"R":{"ha":899,"x_min":92,"x_max":853,"o":"m 208 -10 q 138 19 163 -10 q 102 112 113 47 q 92 285 92 176 q 115 645 92 494 q 196 879 139 796 q 337 993 251 960 q 522 1026 422 1026 q 772 947 692 1026 q 853 740 853 868 q 793 554 853 626 q 633 453 733 482 q 408 439 532 425 l 408 433 q 744 245 642 333 q 846 93 846 157 q 820 31 846 54 q 749 7 794 7 q 624 44 693 7 q 470 169 554 82 q 285 406 386 257 l 279 406 q 291 330 286 375 q 299 238 296 285 q 303 149 303 190 q 281 31 303 72 q 208 -10 260 -10 m 450 565 q 558 585 510 565 q 636 642 607 606 q 665 729 665 679 q 621 833 665 794 q 488 872 576 872 q 386 847 428 872 q 323 779 344 821 q 301 689 301 738 q 338 600 301 635 q 450 565 374 565 z "},"Ŕ":{"ha":899,"x_min":92,"x_max":853,"o":"m 208 -10 q 138 19 163 -10 q 102 112 113 47 q 92 285 92 176 q 115 645 92 494 q 196 879 139 796 q 337 993 251 960 q 522 1026 422 1026 q 772 947 692 1026 q 853 740 853 868 q 793 554 853 626 q 633 453 733 482 q 408 439 532 425 l 408 433 q 744 245 642 333 q 846 93 846 157 q 820 31 846 54 q 749 7 794 7 q 624 44 693 7 q 470 169 554 82 q 285 406 386 257 l 279 406 q 291 330 286 375 q 299 238 296 285 q 303 149 303 190 q 281 31 303 72 q 208 -10 260 -10 m 450 565 q 558 585 510 565 q 636 642 607 606 q 665 729 665 679 q 621 833 665 794 q 488 872 576 872 q 386 847 428 872 q 323 779 344 821 q 301 689 301 738 q 338 600 301 635 q 450 565 374 565 m 325 1076 q 354 1126 325 1099 q 431 1189 383 1154 q 520 1247 478 1222 q 594 1271 563 1271 q 643 1255 622 1271 q 676 1217 664 1239 q 689 1175 689 1194 q 663 1131 689 1149 q 586 1094 638 1113 q 501 1069 546 1081 q 419 1052 457 1058 q 356 1046 381 1046 q 333 1055 342 1046 q 325 1076 325 1064 z "},"Ř":{"ha":899,"x_min":92,"x_max":853,"o":"m 208 -10 q 138 19 163 -10 q 102 112 113 47 q 92 285 92 176 q 115 645 92 494 q 196 879 139 796 q 337 993 251 960 q 522 1026 422 1026 q 772 947 692 1026 q 853 740 853 868 q 793 554 853 626 q 633 453 733 482 q 408 439 532 425 l 408 433 q 744 245 642 333 q 846 93 846 157 q 820 31 846 54 q 749 7 794 7 q 624 44 693 7 q 470 169 554 82 q 285 406 386 257 l 279 406 q 291 330 286 375 q 299 238 296 285 q 303 149 303 190 q 281 31 303 72 q 208 -10 260 -10 m 450 565 q 558 585 510 565 q 636 642 607 606 q 665 729 665 679 q 621 833 665 794 q 488 872 576 872 q 386 847 428 872 q 323 779 344 821 q 301 689 301 738 q 338 600 301 635 q 450 565 374 565 m 449 1064 q 383 1082 419 1064 q 307 1126 347 1100 q 239 1186 264 1157 q 214 1247 214 1215 q 229 1283 214 1269 q 267 1296 244 1296 q 351 1257 304 1296 q 447 1132 399 1218 l 426 1136 q 508 1248 461 1207 q 599 1289 554 1289 q 652 1272 631 1289 q 674 1224 674 1254 q 650 1164 674 1189 q 583 1113 626 1139 q 509 1077 547 1090 q 449 1064 471 1064 z "},"Ŗ":{"ha":899,"x_min":92,"x_max":853,"o":"m 208 -10 q 138 19 163 -10 q 102 112 113 47 q 92 285 92 176 q 115 645 92 494 q 196 879 139 796 q 337 993 251 960 q 522 1026 422 1026 q 772 947 692 1026 q 853 740 853 868 q 793 554 853 626 q 633 453 733 482 q 408 439 532 425 l 408 433 q 744 245 642 333 q 846 93 846 157 q 820 31 846 54 q 749 7 794 7 q 624 44 693 7 q 470 169 554 82 q 285 406 386 257 l 279 406 q 291 330 286 375 q 299 238 296 285 q 303 149 303 190 q 281 31 303 72 q 208 -10 260 -10 m 450 565 q 558 585 510 565 q 636 642 607 606 q 665 729 665 679 q 621 833 665 794 q 488 872 576 872 q 386 847 428 872 q 323 779 344 821 q 301 689 301 738 q 338 600 301 635 q 450 565 374 565 m 446 -244 q 354 -221 381 -244 q 328 -153 328 -197 q 338 -104 328 -128 q 374 -65 349 -81 q 444 -50 400 -50 q 527 -77 496 -50 q 558 -164 558 -104 q 541 -235 558 -196 q 496 -306 524 -274 q 451 -346 474 -332 q 408 -360 429 -360 q 385 -353 394 -360 q 375 -335 375 -347 q 387 -297 375 -321 q 438 -231 399 -272 l 446 -244 z "},"S":{"ha":799,"x_min":35,"x_max":764,"o":"m 365 -4 q 263 1 319 -4 q 155 23 207 7 q 69 67 103 39 q 35 142 35 96 q 65 213 35 189 q 163 236 94 236 q 269 224 210 236 q 382 211 328 211 q 501 236 463 211 q 539 304 539 261 q 524 351 539 331 q 467 393 510 372 q 338 439 424 414 q 178 498 239 465 q 89 576 117 531 q 61 685 61 622 q 88 817 61 761 q 161 913 115 874 q 264 976 207 953 q 380 1011 321 1000 q 493 1022 439 1022 q 688 985 613 1022 q 764 885 764 947 q 735 813 764 840 q 649 785 707 785 q 589 792 624 785 q 513 806 554 799 q 421 813 471 813 q 290 786 336 813 q 244 701 244 760 q 258 656 244 676 q 314 613 271 635 q 446 561 357 590 q 618 488 556 528 q 707 399 681 449 q 733 286 733 349 q 687 134 733 200 q 558 32 640 68 q 365 -4 475 -4 z "},"Ś":{"ha":799,"x_min":35,"x_max":764,"o":"m 365 -4 q 263 1 319 -4 q 155 23 207 7 q 69 67 103 39 q 35 142 35 96 q 65 213 35 189 q 163 236 94 236 q 269 224 210 236 q 382 211 328 211 q 501 236 463 211 q 539 304 539 261 q 524 351 539 331 q 467 393 510 372 q 338 439 424 414 q 178 498 239 465 q 89 576 117 531 q 61 685 61 622 q 88 817 61 761 q 161 913 115 874 q 264 976 207 953 q 380 1011 321 1000 q 493 1022 439 1022 q 688 985 613 1022 q 764 885 764 947 q 735 813 764 840 q 649 785 707 785 q 589 792 624 785 q 513 806 554 799 q 421 813 471 813 q 290 786 336 813 q 244 701 244 760 q 258 656 244 676 q 314 613 271 635 q 446 561 357 590 q 618 488 556 528 q 707 399 681 449 q 733 286 733 349 q 687 134 733 200 q 558 32 640 68 q 365 -4 475 -4 m 282 1076 q 311 1126 282 1099 q 388 1189 340 1154 q 477 1247 435 1222 q 551 1271 519 1271 q 600 1255 579 1271 q 633 1217 621 1239 q 646 1175 646 1194 q 620 1131 646 1149 q 543 1094 594 1113 q 458 1069 503 1081 q 376 1052 414 1058 q 313 1046 338 1046 q 290 1055 299 1046 q 282 1076 282 1064 z "},"Š":{"ha":799,"x_min":35,"x_max":764,"o":"m 365 -4 q 263 1 319 -4 q 155 23 207 7 q 69 67 103 39 q 35 142 35 96 q 65 213 35 189 q 163 236 94 236 q 269 224 210 236 q 382 211 328 211 q 501 236 463 211 q 539 304 539 261 q 524 351 539 331 q 467 393 510 372 q 338 439 424 414 q 178 498 239 465 q 89 576 117 531 q 61 685 61 622 q 88 817 61 761 q 161 913 115 874 q 264 976 207 953 q 380 1011 321 1000 q 493 1022 439 1022 q 688 985 613 1022 q 764 885 764 947 q 735 813 764 840 q 649 785 707 785 q 589 792 624 785 q 513 806 554 799 q 421 813 471 813 q 290 786 336 813 q 244 701 244 760 q 258 656 244 676 q 314 613 271 635 q 446 561 357 590 q 618 488 556 528 q 707 399 681 449 q 733 286 733 349 q 687 134 733 200 q 558 32 640 68 q 365 -4 475 -4 m 406 1064 q 340 1082 376 1064 q 264 1126 304 1100 q 196 1186 221 1157 q 171 1247 171 1215 q 186 1283 171 1269 q 224 1296 201 1296 q 308 1257 261 1296 q 404 1132 356 1218 l 383 1136 q 465 1248 418 1207 q 556 1289 511 1289 q 609 1272 588 1289 q 631 1224 631 1254 q 607 1164 631 1189 q 540 1113 583 1139 q 466 1077 504 1090 q 406 1064 428 1064 z "},"Ş":{"ha":799,"x_min":35,"x_max":764,"o":"m 365 -4 q 263 1 319 -4 q 155 23 207 7 q 69 67 103 39 q 35 142 35 96 q 65 213 35 189 q 163 236 94 236 q 269 224 210 236 q 382 211 328 211 q 501 236 463 211 q 539 304 539 261 q 524 351 539 331 q 467 393 510 372 q 338 439 424 414 q 178 498 239 465 q 89 576 117 531 q 61 685 61 622 q 88 817 61 761 q 161 913 115 874 q 264 976 207 953 q 380 1011 321 1000 q 493 1022 439 1022 q 688 985 613 1022 q 764 885 764 947 q 735 813 764 840 q 649 785 707 785 q 589 792 624 785 q 513 806 554 799 q 421 813 471 813 q 290 786 336 813 q 244 701 244 760 q 258 656 244 676 q 314 613 271 635 q 446 561 357 590 q 618 488 556 528 q 707 399 681 449 q 733 286 733 349 q 687 134 733 200 q 558 32 640 68 q 365 -4 475 -4 m 353 -289 q 263 -232 263 -289 q 285 -188 263 -201 q 336 -169 307 -175 q 390 -162 361 -165 q 429 -156 418 -158 q 461 -144 449 -151 q 474 -122 474 -136 q 457 -99 474 -107 q 394 -85 440 -90 q 322 -64 349 -76 q 296 -25 296 -51 q 317 7 296 -1 q 368 15 338 15 q 468 -2 418 15 q 551 -53 518 -19 q 583 -135 583 -86 q 553 -211 583 -176 q 472 -267 524 -246 q 353 -289 419 -289 z "},"Ș":{"ha":799,"x_min":35,"x_max":764,"o":"m 365 -4 q 263 1 319 -4 q 155 23 207 7 q 69 67 103 39 q 35 142 35 96 q 65 213 35 189 q 163 236 94 236 q 269 224 210 236 q 382 211 328 211 q 501 236 463 211 q 539 304 539 261 q 524 351 539 331 q 467 393 510 372 q 338 439 424 414 q 178 498 239 465 q 89 576 117 531 q 61 685 61 622 q 88 817 61 761 q 161 913 115 874 q 264 976 207 953 q 380 1011 321 1000 q 493 1022 439 1022 q 688 985 613 1022 q 764 885 764 947 q 735 813 764 840 q 649 785 707 785 q 589 792 624 785 q 513 806 554 799 q 421 813 471 813 q 290 786 336 813 q 244 701 244 760 q 258 656 244 676 q 314 613 271 635 q 446 561 357 590 q 618 488 556 528 q 707 399 681 449 q 733 286 733 349 q 687 134 733 200 q 558 32 640 68 q 365 -4 475 -4 m 403 -244 q 311 -221 338 -244 q 285 -153 285 -197 q 295 -104 285 -128 q 331 -65 306 -81 q 401 -50 357 -50 q 484 -77 453 -50 q 515 -164 515 -104 q 498 -235 515 -196 q 453 -306 481 -274 q 408 -346 431 -332 q 365 -360 386 -360 q 342 -353 351 -360 q 332 -335 332 -347 q 344 -297 332 -321 q 394 -231 356 -272 l 403 -244 z "},"ẞ":{"ha":886,"x_min":85,"x_max":831,"o":"m 199 -14 q 116 24 147 -14 q 85 132 85 61 q 101 359 85 242 q 136 614 117 476 q 157 754 147 685 q 175 888 167 824 q 197 947 181 925 q 244 981 214 969 q 315 994 274 992 q 366 998 340 997 q 426 999 392 999 q 511 1000 461 1000 q 666 971 599 1000 q 772 885 733 942 q 810 744 810 828 q 759 612 810 672 q 615 507 708 551 q 776 411 722 469 q 831 263 831 353 q 792 123 831 183 q 683 28 753 63 q 519 -6 613 -6 q 419 19 451 -6 q 388 78 388 43 q 422 139 388 121 q 517 168 457 157 q 617 208 588 181 q 647 279 647 236 q 621 340 647 315 q 533 389 594 364 q 469 425 489 407 q 450 481 450 443 q 469 531 450 508 q 518 576 489 554 q 576 622 547 597 q 625 675 606 646 q 644 742 644 704 q 603 824 644 793 q 492 854 563 854 q 397 840 440 854 q 329 796 353 825 q 318 652 322 731 q 311 492 314 574 q 307 336 308 411 q 305 203 306 261 q 304 114 304 146 q 278 24 304 61 q 199 -14 251 -14 z "},"T":{"ha":829,"x_min":31,"x_max":799,"o":"m 432 1021 q 605 1010 535 1021 q 718 985 675 1000 q 781 943 764 967 q 799 889 799 919 q 765 817 799 844 q 661 789 731 789 q 560 799 614 789 q 449 828 506 808 l 467 847 q 489 688 479 775 q 506 510 499 600 q 517 342 514 421 q 521 207 521 263 q 494 44 521 99 q 401 -10 467 -10 q 315 40 342 -10 q 289 190 289 89 q 295 343 289 257 q 313 521 301 429 q 337 697 324 613 q 364 843 350 781 l 389 828 q 317 806 358 817 q 233 790 275 796 q 160 783 192 783 q 60 806 89 783 q 31 868 31 829 q 53 930 31 904 q 121 975 75 956 q 251 1009 174 997 q 432 1021 328 1021 z "},"Ť":{"ha":829,"x_min":31,"x_max":799,"o":"m 432 1021 q 605 1010 535 1021 q 718 985 675 1000 q 781 943 764 967 q 799 889 799 919 q 765 817 799 844 q 661 789 731 789 q 560 799 614 789 q 449 828 506 808 l 467 847 q 489 688 479 775 q 506 510 499 600 q 517 342 514 421 q 521 207 521 263 q 494 44 521 99 q 401 -10 467 -10 q 315 40 342 -10 q 289 190 289 89 q 295 343 289 257 q 313 521 301 429 q 337 697 324 613 q 364 843 350 781 l 389 828 q 317 806 358 817 q 233 790 275 796 q 160 783 192 783 q 60 806 89 783 q 31 868 31 829 q 53 930 31 904 q 121 975 75 956 q 251 1009 174 997 q 432 1021 328 1021 m 421 1064 q 356 1082 392 1064 q 279 1126 319 1100 q 211 1186 236 1157 q 186 1247 186 1215 q 201 1283 186 1269 q 239 1296 217 1296 q 324 1257 276 1296 q 419 1132 371 1218 l 399 1136 q 480 1248 433 1207 q 571 1289 526 1289 q 624 1272 603 1289 q 646 1224 646 1254 q 622 1164 646 1189 q 556 1113 599 1139 q 481 1077 519 1090 q 421 1064 443 1064 z "},"Ț":{"ha":829,"x_min":31,"x_max":799,"o":"m 432 1021 q 605 1010 535 1021 q 718 985 675 1000 q 781 943 764 967 q 799 889 799 919 q 765 817 799 844 q 661 789 731 789 q 560 799 614 789 q 449 828 506 808 l 467 847 q 489 688 479 775 q 506 510 499 600 q 517 342 514 421 q 521 207 521 263 q 494 44 521 99 q 401 -10 467 -10 q 315 40 342 -10 q 289 190 289 89 q 295 343 289 257 q 313 521 301 429 q 337 697 324 613 q 364 843 350 781 l 389 828 q 317 806 358 817 q 233 790 275 796 q 160 783 192 783 q 60 806 89 783 q 31 868 31 829 q 53 930 31 904 q 121 975 75 956 q 251 1009 174 997 q 432 1021 328 1021 m 418 -244 q 326 -221 353 -244 q 300 -153 300 -197 q 310 -104 300 -128 q 347 -65 321 -81 q 417 -50 372 -50 q 499 -77 468 -50 q 531 -164 531 -104 q 513 -235 531 -196 q 468 -306 496 -274 q 424 -346 446 -332 q 381 -360 401 -360 q 357 -353 367 -360 q 347 -335 347 -347 q 359 -297 347 -321 q 410 -231 371 -272 l 418 -244 z "},"U":{"ha":890,"x_min":92,"x_max":799,"o":"m 426 -11 q 170 89 249 -11 q 92 419 92 189 q 97 578 92 497 q 110 735 101 660 q 132 867 119 811 q 172 959 144 925 q 253 993 199 993 q 317 968 294 993 q 340 892 340 943 q 331 807 340 860 q 309 692 321 754 q 288 566 297 629 q 278 449 278 503 q 322 255 278 310 q 449 200 365 200 q 569 260 529 200 q 608 449 608 319 q 603 551 608 489 q 590 682 597 614 q 578 808 583 750 q 572 894 572 865 q 657 1015 572 1015 q 732 985 706 1015 q 768 896 758 956 q 785 769 778 843 q 795 614 792 694 q 799 463 799 533 q 760 190 799 294 q 640 38 722 86 q 426 -11 558 -11 z "},"Ú":{"ha":890,"x_min":92,"x_max":799,"o":"m 426 -11 q 170 89 249 -11 q 92 419 92 189 q 97 578 92 497 q 110 735 101 660 q 132 867 119 811 q 172 959 144 925 q 253 993 199 993 q 317 968 294 993 q 340 892 340 943 q 331 807 340 860 q 309 692 321 754 q 288 566 297 629 q 278 449 278 503 q 322 255 278 310 q 449 200 365 200 q 569 260 529 200 q 608 449 608 319 q 603 551 608 489 q 590 682 597 614 q 578 808 583 750 q 572 894 572 865 q 657 1015 572 1015 q 732 985 706 1015 q 768 896 758 956 q 785 769 778 843 q 795 614 792 694 q 799 463 799 533 q 760 190 799 294 q 640 38 722 86 q 426 -11 558 -11 m 326 1063 q 356 1113 326 1085 q 432 1175 385 1140 q 522 1233 479 1208 q 596 1257 564 1257 q 644 1241 624 1257 q 678 1203 665 1225 q 690 1161 690 1181 q 665 1117 690 1135 q 588 1081 639 1099 q 503 1056 547 1067 q 420 1038 458 1044 q 357 1032 382 1032 q 335 1041 343 1032 q 326 1063 326 1050 z "},"Ŭ":{"ha":890,"x_min":92,"x_max":799,"o":"m 426 -11 q 170 89 249 -11 q 92 419 92 189 q 97 578 92 497 q 110 735 101 660 q 132 867 119 811 q 172 959 144 925 q 253 993 199 993 q 317 968 294 993 q 340 892 340 943 q 331 807 340 860 q 309 692 321 754 q 288 566 297 629 q 278 449 278 503 q 322 255 278 310 q 449 200 365 200 q 569 260 529 200 q 608 449 608 319 q 603 551 608 489 q 590 682 597 614 q 578 808 583 750 q 572 894 572 865 q 657 1015 572 1015 q 732 985 706 1015 q 768 896 758 956 q 785 769 778 843 q 795 614 792 694 q 799 463 799 533 q 760 190 799 294 q 640 38 722 86 q 426 -11 558 -11 m 444 1033 q 295 1085 349 1033 q 242 1206 242 1138 q 296 1263 242 1263 q 360 1210 349 1263 q 386 1156 368 1174 q 443 1139 404 1139 q 497 1154 479 1139 q 522 1201 514 1169 q 547 1257 532 1238 q 593 1276 563 1276 q 634 1260 621 1276 q 647 1213 647 1243 q 624 1124 647 1165 q 555 1058 600 1083 q 444 1033 510 1033 z "},"Û":{"ha":890,"x_min":92,"x_max":799,"o":"m 426 -11 q 170 89 249 -11 q 92 419 92 189 q 97 578 92 497 q 110 735 101 660 q 132 867 119 811 q 172 959 144 925 q 253 993 199 993 q 317 968 294 993 q 340 892 340 943 q 331 807 340 860 q 309 692 321 754 q 288 566 297 629 q 278 449 278 503 q 322 255 278 310 q 449 200 365 200 q 569 260 529 200 q 608 449 608 319 q 603 551 608 489 q 590 682 597 614 q 578 808 583 750 q 572 894 572 865 q 657 1015 572 1015 q 732 985 706 1015 q 768 896 758 956 q 785 769 778 843 q 795 614 792 694 q 799 463 799 533 q 760 190 799 294 q 640 38 722 86 q 426 -11 558 -11 m 450 1268 q 510 1255 472 1268 q 585 1219 549 1242 q 651 1168 628 1193 q 675 1108 675 1143 q 653 1060 675 1078 q 600 1043 632 1043 q 509 1084 556 1043 q 428 1196 463 1125 l 449 1200 q 353 1075 400 1114 q 268 1036 306 1036 q 231 1049 246 1036 q 215 1085 215 1063 q 240 1146 215 1117 q 308 1206 265 1175 q 385 1251 349 1233 q 450 1268 421 1268 z "},"Ü":{"ha":890,"x_min":92,"x_max":799,"o":"m 426 -11 q 170 89 249 -11 q 92 419 92 189 q 97 578 92 497 q 110 735 101 660 q 132 867 119 811 q 172 959 144 925 q 253 993 199 993 q 317 968 294 993 q 340 892 340 943 q 331 807 340 860 q 309 692 321 754 q 288 566 297 629 q 278 449 278 503 q 322 255 278 310 q 449 200 365 200 q 569 260 529 200 q 608 449 608 319 q 603 551 608 489 q 590 682 597 614 q 578 808 583 750 q 572 894 572 865 q 657 1015 572 1015 q 732 985 706 1015 q 768 896 758 956 q 785 769 778 843 q 795 614 792 694 q 799 463 799 533 q 760 190 799 294 q 640 38 722 86 q 426 -11 558 -11 m 281 1047 q 199 1075 225 1047 q 172 1140 172 1103 q 207 1219 172 1192 q 304 1246 242 1246 q 385 1216 358 1246 q 411 1144 411 1186 q 374 1072 411 1097 q 281 1047 338 1047 m 604 1260 q 689 1229 663 1260 q 715 1158 715 1199 q 683 1081 715 1107 q 590 1054 651 1054 q 506 1083 533 1054 q 478 1154 478 1113 q 513 1233 478 1206 q 604 1260 547 1260 z "},"Ù":{"ha":890,"x_min":92,"x_max":799,"o":"m 426 -11 q 170 89 249 -11 q 92 419 92 189 q 97 578 92 497 q 110 735 101 660 q 132 867 119 811 q 172 959 144 925 q 253 993 199 993 q 317 968 294 993 q 340 892 340 943 q 331 807 340 860 q 309 692 321 754 q 288 566 297 629 q 278 449 278 503 q 322 255 278 310 q 449 200 365 200 q 569 260 529 200 q 608 449 608 319 q 603 551 608 489 q 590 682 597 614 q 578 808 583 750 q 572 894 572 865 q 657 1015 572 1015 q 732 985 706 1015 q 768 896 758 956 q 785 769 778 843 q 795 614 792 694 q 799 463 799 533 q 760 190 799 294 q 640 38 722 86 q 426 -11 558 -11 m 563 1063 q 555 1041 563 1050 q 532 1032 547 1032 q 469 1038 507 1032 q 387 1056 431 1044 q 301 1081 343 1067 q 224 1117 250 1099 q 199 1161 199 1135 q 211 1203 199 1181 q 245 1241 224 1225 q 293 1257 267 1257 q 367 1233 325 1257 q 457 1175 410 1208 q 534 1113 506 1140 q 563 1063 563 1085 z "},"Ű":{"ha":890,"x_min":92,"x_max":799,"o":"m 426 -11 q 170 89 249 -11 q 92 419 92 189 q 97 578 92 497 q 110 735 101 660 q 132 867 119 811 q 172 959 144 925 q 253 993 199 993 q 317 968 294 993 q 340 892 340 943 q 331 807 340 860 q 309 692 321 754 q 288 566 297 629 q 278 449 278 503 q 322 255 278 310 q 449 200 365 200 q 569 260 529 200 q 608 449 608 319 q 603 551 608 489 q 590 682 597 614 q 578 808 583 750 q 572 894 572 865 q 657 1015 572 1015 q 732 985 706 1015 q 768 896 758 956 q 785 769 778 843 q 795 614 792 694 q 799 463 799 533 q 760 190 799 294 q 640 38 722 86 q 426 -11 558 -11 m 544 1035 q 519 1044 531 1035 q 507 1069 507 1054 q 519 1115 507 1088 q 553 1178 532 1143 q 585 1226 567 1199 q 625 1275 603 1254 q 675 1296 647 1296 q 719 1285 696 1296 q 757 1256 742 1274 q 772 1222 772 1239 q 721 1150 772 1196 q 670 1108 699 1129 q 615 1070 642 1088 q 569 1042 588 1053 q 558 1037 564 1039 q 544 1035 551 1035 m 278 1035 q 252 1044 264 1035 q 240 1068 240 1053 q 253 1115 240 1088 q 288 1176 265 1142 q 325 1234 307 1207 q 363 1278 343 1261 q 410 1294 383 1294 q 453 1283 431 1294 q 490 1256 475 1272 q 506 1222 506 1239 q 457 1149 506 1193 q 401 1106 432 1128 q 343 1067 371 1085 q 297 1042 315 1050 q 286 1037 292 1039 q 278 1035 281 1035 z "},"Ū":{"ha":890,"x_min":92,"x_max":799,"o":"m 426 -11 q 170 89 249 -11 q 92 419 92 189 q 97 578 92 497 q 110 735 101 660 q 132 867 119 811 q 172 959 144 925 q 253 993 199 993 q 317 968 294 993 q 340 892 340 943 q 331 807 340 860 q 309 692 321 754 q 288 566 297 629 q 278 449 278 503 q 322 255 278 310 q 449 200 365 200 q 569 260 529 200 q 608 449 608 319 q 603 551 608 489 q 590 682 597 614 q 578 808 583 750 q 572 894 572 865 q 657 1015 572 1015 q 732 985 706 1015 q 768 896 758 956 q 785 769 778 843 q 795 614 792 694 q 799 463 799 533 q 760 190 799 294 q 640 38 722 86 q 426 -11 558 -11 m 286 1047 q 206 1067 232 1047 q 181 1119 181 1088 q 203 1169 181 1151 q 281 1200 226 1186 q 378 1215 325 1210 q 486 1224 432 1221 q 585 1226 540 1226 q 680 1207 651 1226 q 708 1156 708 1188 q 685 1100 708 1121 q 615 1071 661 1079 q 511 1058 572 1064 q 390 1050 450 1053 q 286 1047 331 1047 z "},"Ų":{"ha":890,"x_min":92,"x_max":799,"o":"m 426 -11 q 170 89 249 -11 q 92 419 92 189 q 97 578 92 497 q 110 735 101 660 q 132 867 119 811 q 172 959 144 925 q 253 993 199 993 q 317 968 294 993 q 340 892 340 943 q 331 807 340 860 q 309 692 321 754 q 288 566 297 629 q 278 449 278 503 q 322 255 278 310 q 449 200 365 200 q 569 260 529 200 q 608 449 608 319 q 603 551 608 489 q 590 682 597 614 q 578 808 583 750 q 572 894 572 865 q 657 1015 572 1015 q 732 985 706 1015 q 768 896 758 956 q 785 769 778 843 q 795 614 792 694 q 799 463 799 533 q 760 190 799 294 q 640 38 722 86 q 426 -11 558 -11 m 539 -293 q 420 -261 467 -293 q 374 -167 374 -229 q 412 -63 374 -117 q 538 39 450 -10 l 646 42 q 524 -58 569 -6 q 479 -137 479 -110 q 496 -162 479 -156 q 540 -169 513 -169 q 573 -168 556 -169 q 611 -167 590 -167 q 652 -181 639 -167 q 665 -221 665 -196 q 633 -275 665 -257 q 539 -293 600 -293 z "},"Ů":{"ha":890,"x_min":92,"x_max":799,"o":"m 426 -11 q 170 89 249 -11 q 92 419 92 189 q 97 578 92 497 q 110 735 101 660 q 132 867 119 811 q 172 959 144 925 q 253 993 199 993 q 317 968 294 993 q 340 892 340 943 q 331 807 340 860 q 309 692 321 754 q 288 566 297 629 q 278 449 278 503 q 322 255 278 310 q 449 200 365 200 q 569 260 529 200 q 608 449 608 319 q 603 551 608 489 q 590 682 597 614 q 578 808 583 750 q 572 894 572 865 q 657 1015 572 1015 q 732 985 706 1015 q 768 896 758 956 q 785 769 778 843 q 795 614 792 694 q 799 463 799 533 q 760 190 799 294 q 640 38 722 86 q 426 -11 558 -11 m 442 1029 q 310 1059 363 1029 q 257 1151 257 1089 q 309 1256 257 1215 q 458 1297 361 1297 q 589 1259 547 1297 q 631 1168 631 1221 q 580 1068 631 1107 q 442 1029 529 1029 m 433 1104 q 510 1119 479 1104 q 542 1163 542 1133 q 518 1209 542 1192 q 444 1226 494 1226 q 369 1206 393 1226 q 346 1161 346 1185 q 370 1120 346 1136 q 433 1104 394 1104 z "},"V":{"ha":879,"x_min":42,"x_max":838,"o":"m 744 1026 q 815 983 793 1026 q 838 854 838 940 q 824 708 838 794 q 783 524 810 621 q 717 332 756 426 q 631 160 679 238 q 527 37 583 83 q 407 -10 471 -10 q 294 33 344 -10 q 202 148 243 76 q 131 308 161 219 q 81 488 101 396 q 51 662 61 579 q 42 803 42 744 q 67 952 42 906 q 146 999 92 999 q 222 951 199 999 q 258 790 246 903 q 292 585 271 689 q 346 377 314 481 q 419 171 378 274 l 425 171 q 491 329 460 246 q 549 499 522 413 q 596 670 576 586 q 628 828 615 754 q 669 978 646 929 q 744 1026 692 1026 z "},"W":{"ha":1115,"x_min":92,"x_max":1024,"o":"m 92 757 q 122 934 92 881 q 214 988 151 988 q 276 964 254 988 q 308 901 299 940 q 317 811 317 861 q 314 636 317 738 q 306 428 311 535 q 294 232 301 322 l 300 232 q 381 533 340 410 q 464 720 422 656 q 549 785 506 785 q 639 718 596 785 q 724 526 682 651 q 811 228 767 401 l 817 228 q 809 432 813 326 q 803 641 806 538 q 801 833 801 744 q 814 951 801 910 q 849 1008 826 992 q 900 1025 871 1025 q 992 959 960 1025 q 1024 765 1024 893 q 1016 551 1024 661 q 993 338 1008 442 q 956 146 978 235 q 908 31 938 72 q 829 -11 878 -11 q 755 31 792 -11 q 683 149 718 72 q 617 331 649 226 q 558 563 586 436 l 553 563 q 494 335 525 436 q 428 162 463 233 q 355 53 394 90 q 271 15 315 15 q 193 56 221 15 q 147 189 165 96 q 126 320 136 246 q 109 474 117 394 q 97 628 101 554 q 92 757 92 701 z "},"Ẃ":{"ha":1115,"x_min":92,"x_max":1024,"o":"m 92 757 q 122 934 92 881 q 214 988 151 988 q 276 964 254 988 q 308 901 299 940 q 317 811 317 861 q 314 636 317 738 q 306 428 311 535 q 294 232 301 322 l 300 232 q 381 533 340 410 q 464 720 422 656 q 549 785 506 785 q 639 718 596 785 q 724 526 682 651 q 811 228 767 401 l 817 228 q 809 432 813 326 q 803 641 806 538 q 801 833 801 744 q 814 951 801 910 q 849 1008 826 992 q 900 1025 871 1025 q 992 959 960 1025 q 1024 765 1024 893 q 1016 551 1024 661 q 993 338 1008 442 q 956 146 978 235 q 908 31 938 72 q 829 -11 878 -11 q 755 31 792 -11 q 683 149 718 72 q 617 331 649 226 q 558 563 586 436 l 553 563 q 494 335 525 436 q 428 162 463 233 q 355 53 394 90 q 271 15 315 15 q 193 56 221 15 q 147 189 165 96 q 126 320 136 246 q 109 474 117 394 q 97 628 101 554 q 92 757 92 701 m 440 1076 q 469 1126 440 1099 q 546 1189 499 1154 q 635 1247 593 1222 q 710 1271 678 1271 q 758 1255 738 1271 q 792 1217 779 1239 q 804 1175 804 1194 q 778 1131 804 1149 q 701 1094 753 1113 q 617 1069 661 1081 q 534 1052 572 1058 q 471 1046 496 1046 q 449 1055 457 1046 q 440 1076 440 1064 z "},"Ŵ":{"ha":1115,"x_min":92,"x_max":1024,"o":"m 92 757 q 122 934 92 881 q 214 988 151 988 q 276 964 254 988 q 308 901 299 940 q 317 811 317 861 q 314 636 317 738 q 306 428 311 535 q 294 232 301 322 l 300 232 q 381 533 340 410 q 464 720 422 656 q 549 785 506 785 q 639 718 596 785 q 724 526 682 651 q 811 228 767 401 l 817 228 q 809 432 813 326 q 803 641 806 538 q 801 833 801 744 q 814 951 801 910 q 849 1008 826 992 q 900 1025 871 1025 q 992 959 960 1025 q 1024 765 1024 893 q 1016 551 1024 661 q 993 338 1008 442 q 956 146 978 235 q 908 31 938 72 q 829 -11 878 -11 q 755 31 792 -11 q 683 149 718 72 q 617 331 649 226 q 558 563 586 436 l 553 563 q 494 335 525 436 q 428 162 463 233 q 355 53 394 90 q 271 15 315 15 q 193 56 221 15 q 147 189 165 96 q 126 320 136 246 q 109 474 117 394 q 97 628 101 554 q 92 757 92 701 m 564 1282 q 624 1269 586 1282 q 699 1233 663 1256 q 765 1182 742 1207 q 789 1122 789 1157 q 767 1074 789 1092 q 714 1057 746 1057 q 623 1098 669 1057 q 542 1210 576 1139 l 563 1214 q 467 1089 514 1128 q 382 1050 419 1050 q 344 1063 360 1050 q 329 1099 329 1076 q 354 1160 329 1131 q 422 1219 379 1189 q 499 1265 463 1247 q 564 1282 535 1282 z "},"Ẅ":{"ha":1115,"x_min":92,"x_max":1024,"o":"m 92 757 q 122 934 92 881 q 214 988 151 988 q 276 964 254 988 q 308 901 299 940 q 317 811 317 861 q 314 636 317 738 q 306 428 311 535 q 294 232 301 322 l 300 232 q 381 533 340 410 q 464 720 422 656 q 549 785 506 785 q 639 718 596 785 q 724 526 682 651 q 811 228 767 401 l 817 228 q 809 432 813 326 q 803 641 806 538 q 801 833 801 744 q 814 951 801 910 q 849 1008 826 992 q 900 1025 871 1025 q 992 959 960 1025 q 1024 765 1024 893 q 1016 551 1024 661 q 993 338 1008 442 q 956 146 978 235 q 908 31 938 72 q 829 -11 878 -11 q 755 31 792 -11 q 683 149 718 72 q 617 331 649 226 q 558 563 586 436 l 553 563 q 494 335 525 436 q 428 162 463 233 q 355 53 394 90 q 271 15 315 15 q 193 56 221 15 q 147 189 165 96 q 126 320 136 246 q 109 474 117 394 q 97 628 101 554 q 92 757 92 701 m 394 1061 q 313 1089 339 1061 q 286 1154 286 1117 q 321 1233 286 1206 q 418 1260 356 1260 q 499 1230 472 1260 q 525 1158 525 1200 q 488 1086 525 1111 q 394 1061 451 1061 m 718 1274 q 803 1243 776 1274 q 829 1172 829 1213 q 797 1094 829 1121 q 704 1068 765 1068 q 619 1097 647 1068 q 592 1168 592 1126 q 626 1247 592 1219 q 718 1274 661 1274 z "},"Ẁ":{"ha":1115,"x_min":92,"x_max":1024,"o":"m 92 757 q 122 934 92 881 q 214 988 151 988 q 276 964 254 988 q 308 901 299 940 q 317 811 317 861 q 314 636 317 738 q 306 428 311 535 q 294 232 301 322 l 300 232 q 381 533 340 410 q 464 720 422 656 q 549 785 506 785 q 639 718 596 785 q 724 526 682 651 q 811 228 767 401 l 817 228 q 809 432 813 326 q 803 641 806 538 q 801 833 801 744 q 814 951 801 910 q 849 1008 826 992 q 900 1025 871 1025 q 992 959 960 1025 q 1024 765 1024 893 q 1016 551 1024 661 q 993 338 1008 442 q 956 146 978 235 q 908 31 938 72 q 829 -11 878 -11 q 755 31 792 -11 q 683 149 718 72 q 617 331 649 226 q 558 563 586 436 l 553 563 q 494 335 525 436 q 428 162 463 233 q 355 53 394 90 q 271 15 315 15 q 193 56 221 15 q 147 189 165 96 q 126 320 136 246 q 109 474 117 394 q 97 628 101 554 q 92 757 92 701 m 676 1076 q 669 1055 676 1064 q 646 1046 661 1046 q 583 1052 621 1046 q 501 1069 544 1058 q 415 1094 457 1081 q 338 1131 364 1113 q 313 1175 313 1149 q 325 1217 313 1194 q 359 1255 338 1239 q 407 1271 381 1271 q 481 1247 439 1271 q 571 1189 524 1222 q 648 1126 619 1154 q 676 1076 676 1099 z "},"X":{"ha":990,"x_min":36,"x_max":954,"o":"m 121 -10 q 59 16 82 -10 q 36 79 36 42 q 78 199 36 131 q 203 347 121 268 q 406 506 286 425 l 406 511 q 169 712 246 618 q 92 878 92 806 q 104 928 92 907 q 137 962 117 950 q 178 974 157 974 q 341 875 256 974 q 499 589 426 776 l 504 589 q 637 840 574 744 q 758 981 700 936 q 871 1025 817 1025 q 913 1011 894 1025 q 943 974 932 997 q 954 919 954 950 q 858 736 954 839 q 586 524 761 633 l 586 518 q 854 293 768 396 q 940 113 940 190 q 925 56 940 79 q 887 19 910 32 q 840 6 864 6 q 662 117 750 6 q 492 438 574 228 l 486 438 q 351 181 415 279 q 229 36 286 82 q 121 -10 172 -10 z "},"Y":{"ha":892,"x_min":31,"x_max":861,"o":"m 400 -12 q 319 24 350 -12 q 288 157 288 61 q 297 297 288 225 q 322 435 307 369 q 356 544 338 500 l 364 506 q 161 674 233 600 q 60 803 89 747 q 31 901 31 860 q 45 960 31 936 q 83 997 60 983 q 136 1010 107 1010 q 272 908 203 1010 q 415 607 340 807 l 421 607 q 548 842 483 750 q 672 980 613 935 q 776 1025 732 1025 q 839 998 817 1025 q 861 928 861 971 q 813 791 861 865 q 674 642 764 717 q 457 504 583 567 l 469 531 q 502 410 488 475 q 525 283 517 346 q 533 169 533 219 q 497 34 533 81 q 400 -12 460 -12 z "},"Ý":{"ha":892,"x_min":31,"x_max":861,"o":"m 400 -12 q 319 24 350 -12 q 288 157 288 61 q 297 297 288 225 q 322 435 307 369 q 356 544 338 500 l 364 506 q 161 674 233 600 q 60 803 89 747 q 31 901 31 860 q 45 960 31 936 q 83 997 60 983 q 136 1010 107 1010 q 272 908 203 1010 q 415 607 340 807 l 421 607 q 548 842 483 750 q 672 980 613 935 q 776 1025 732 1025 q 839 998 817 1025 q 861 928 861 971 q 813 791 861 865 q 674 642 764 717 q 457 504 583 567 l 469 531 q 502 410 488 475 q 525 283 517 346 q 533 169 533 219 q 497 34 533 81 q 400 -12 460 -12 m 329 1068 q 358 1118 329 1090 q 435 1181 388 1146 q 524 1238 482 1214 q 599 1263 567 1263 q 647 1247 626 1263 q 681 1208 668 1231 q 693 1167 693 1186 q 667 1122 693 1140 q 590 1086 642 1104 q 506 1061 550 1072 q 423 1044 461 1050 q 360 1038 385 1038 q 338 1047 346 1038 q 329 1068 329 1056 z "},"Ŷ":{"ha":892,"x_min":31,"x_max":861,"o":"m 400 -12 q 319 24 350 -12 q 288 157 288 61 q 297 297 288 225 q 322 435 307 369 q 356 544 338 500 l 364 506 q 161 674 233 600 q 60 803 89 747 q 31 901 31 860 q 45 960 31 936 q 83 997 60 983 q 136 1010 107 1010 q 272 908 203 1010 q 415 607 340 807 l 421 607 q 548 842 483 750 q 672 980 613 935 q 776 1025 732 1025 q 839 998 817 1025 q 861 928 861 971 q 813 791 861 865 q 674 642 764 717 q 457 504 583 567 l 469 531 q 502 410 488 475 q 525 283 517 346 q 533 169 533 219 q 497 34 533 81 q 400 -12 460 -12 m 453 1274 q 513 1260 475 1274 q 588 1225 551 1247 q 654 1174 631 1199 q 678 1114 678 1149 q 656 1066 678 1083 q 603 1049 635 1049 q 512 1090 558 1049 q 431 1201 465 1131 l 451 1206 q 356 1081 403 1119 q 271 1042 308 1042 q 233 1055 249 1042 q 218 1090 218 1068 q 243 1151 218 1122 q 311 1211 268 1181 q 388 1256 351 1239 q 453 1274 424 1274 z "},"Ÿ":{"ha":892,"x_min":31,"x_max":861,"o":"m 400 -12 q 319 24 350 -12 q 288 157 288 61 q 297 297 288 225 q 322 435 307 369 q 356 544 338 500 l 364 506 q 161 674 233 600 q 60 803 89 747 q 31 901 31 860 q 45 960 31 936 q 83 997 60 983 q 136 1010 107 1010 q 272 908 203 1010 q 415 607 340 807 l 421 607 q 548 842 483 750 q 672 980 613 935 q 776 1025 732 1025 q 839 998 817 1025 q 861 928 861 971 q 813 791 861 865 q 674 642 764 717 q 457 504 583 567 l 469 531 q 502 410 488 475 q 525 283 517 346 q 533 169 533 219 q 497 34 533 81 q 400 -12 460 -12 m 283 1053 q 201 1081 228 1053 q 175 1146 175 1108 q 210 1224 175 1197 q 307 1251 244 1251 q 388 1222 361 1251 q 414 1150 414 1192 q 377 1078 414 1103 q 283 1053 340 1053 m 607 1265 q 692 1235 665 1265 q 718 1164 718 1204 q 686 1086 718 1113 q 593 1060 654 1060 q 508 1089 536 1060 q 481 1160 481 1118 q 515 1238 481 1211 q 607 1265 550 1265 z "},"Ỳ":{"ha":892,"x_min":31,"x_max":861,"o":"m 400 -12 q 319 24 350 -12 q 288 157 288 61 q 297 297 288 225 q 322 435 307 369 q 356 544 338 500 l 364 506 q 161 674 233 600 q 60 803 89 747 q 31 901 31 860 q 45 960 31 936 q 83 997 60 983 q 136 1010 107 1010 q 272 908 203 1010 q 415 607 340 807 l 421 607 q 548 842 483 750 q 672 980 613 935 q 776 1025 732 1025 q 839 998 817 1025 q 861 928 861 971 q 813 791 861 865 q 674 642 764 717 q 457 504 583 567 l 469 531 q 502 410 488 475 q 525 283 517 346 q 533 169 533 219 q 497 34 533 81 q 400 -12 460 -12 m 565 1068 q 558 1047 565 1056 q 535 1038 550 1038 q 472 1044 510 1038 q 390 1061 433 1050 q 304 1086 346 1072 q 227 1122 253 1104 q 201 1167 201 1140 q 214 1208 201 1186 q 248 1247 226 1231 q 296 1263 269 1263 q 370 1238 328 1263 q 460 1181 413 1214 q 537 1118 508 1146 q 565 1068 565 1090 z "},"Z":{"ha":824,"x_min":36,"x_max":788,"o":"m 36 131 q 93 277 36 185 q 278 508 150 369 q 618 835 406 646 l 618 839 q 463 807 547 822 q 299 783 378 792 q 169 774 221 774 q 69 796 101 774 q 38 861 38 818 q 54 920 38 894 q 110 964 71 946 q 281 1008 171 992 q 514 1024 392 1024 q 669 1010 608 1024 q 758 963 729 996 q 788 874 788 931 q 748 762 788 832 q 631 599 708 692 q 443 394 554 506 q 190 156 332 282 l 190 151 q 337 201 254 179 q 503 235 419 222 q 654 249 588 249 q 748 228 719 249 q 776 158 776 207 q 735 74 776 106 q 618 26 694 42 q 487 6 554 14 q 356 -6 419 -3 q 242 -10 293 -10 q 89 23 142 -10 q 36 131 36 56 z "},"Ź":{"ha":824,"x_min":36,"x_max":788,"o":"m 36 131 q 93 277 36 185 q 278 508 150 369 q 618 835 406 646 l 618 839 q 463 807 547 822 q 299 783 378 792 q 169 774 221 774 q 69 796 101 774 q 38 861 38 818 q 54 920 38 894 q 110 964 71 946 q 281 1008 171 992 q 514 1024 392 1024 q 669 1010 608 1024 q 758 963 729 996 q 788 874 788 931 q 748 762 788 832 q 631 599 708 692 q 443 394 554 506 q 190 156 332 282 l 190 151 q 337 201 254 179 q 503 235 419 222 q 654 249 588 249 q 748 228 719 249 q 776 158 776 207 q 735 74 776 106 q 618 26 694 42 q 487 6 554 14 q 356 -6 419 -3 q 242 -10 293 -10 q 89 23 142 -10 q 36 131 36 56 m 297 1076 q 326 1126 297 1099 q 403 1189 356 1154 q 492 1247 450 1222 q 567 1271 535 1271 q 615 1255 594 1271 q 649 1217 636 1239 q 661 1175 661 1194 q 635 1131 661 1149 q 558 1094 610 1113 q 474 1069 518 1081 q 391 1052 429 1058 q 328 1046 353 1046 q 306 1055 314 1046 q 297 1076 297 1064 z "},"Ž":{"ha":824,"x_min":36,"x_max":788,"o":"m 36 131 q 93 277 36 185 q 278 508 150 369 q 618 835 406 646 l 618 839 q 463 807 547 822 q 299 783 378 792 q 169 774 221 774 q 69 796 101 774 q 38 861 38 818 q 54 920 38 894 q 110 964 71 946 q 281 1008 171 992 q 514 1024 392 1024 q 669 1010 608 1024 q 758 963 729 996 q 788 874 788 931 q 748 762 788 832 q 631 599 708 692 q 443 394 554 506 q 190 156 332 282 l 190 151 q 337 201 254 179 q 503 235 419 222 q 654 249 588 249 q 748 228 719 249 q 776 158 776 207 q 735 74 776 106 q 618 26 694 42 q 487 6 554 14 q 356 -6 419 -3 q 242 -10 293 -10 q 89 23 142 -10 q 36 131 36 56 m 421 1064 q 356 1082 392 1064 q 279 1126 319 1100 q 211 1186 236 1157 q 186 1247 186 1215 q 201 1283 186 1269 q 239 1296 217 1296 q 324 1257 276 1296 q 419 1132 371 1218 l 399 1136 q 480 1248 433 1207 q 571 1289 526 1289 q 624 1272 603 1289 q 646 1224 646 1254 q 622 1164 646 1189 q 556 1113 599 1139 q 481 1077 519 1090 q 421 1064 443 1064 z "},"Ż":{"ha":824,"x_min":36,"x_max":788,"o":"m 36 131 q 93 277 36 185 q 278 508 150 369 q 618 835 406 646 l 618 839 q 463 807 547 822 q 299 783 378 792 q 169 774 221 774 q 69 796 101 774 q 38 861 38 818 q 54 920 38 894 q 110 964 71 946 q 281 1008 171 992 q 514 1024 392 1024 q 669 1010 608 1024 q 758 963 729 996 q 788 874 788 931 q 748 762 788 832 q 631 599 708 692 q 443 394 554 506 q 190 156 332 282 l 190 151 q 337 201 254 179 q 503 235 419 222 q 654 249 588 249 q 748 228 719 249 q 776 158 776 207 q 735 74 776 106 q 618 26 694 42 q 487 6 554 14 q 356 -6 419 -3 q 242 -10 293 -10 q 89 23 142 -10 q 36 131 36 56 m 425 1274 q 505 1243 481 1274 q 529 1172 529 1213 q 499 1095 529 1122 q 415 1068 469 1068 q 336 1098 363 1068 q 310 1168 310 1128 q 342 1247 310 1221 q 425 1274 374 1274 z "},"a":{"ha":869,"x_min":35,"x_max":785,"o":"m 692 -14 q 627 23 644 -14 q 607 140 610 60 l 621 133 q 326 -18 543 -18 q 163 17 228 -18 q 66 112 97 53 q 35 240 35 171 q 118 430 35 360 q 339 500 201 500 q 496 474 429 500 q 610 400 563 447 l 586 403 q 526 603 576 543 q 382 664 475 664 q 282 647 328 664 q 198 613 236 631 q 126 596 160 596 q 74 618 93 596 q 56 675 56 640 q 103 769 56 725 q 231 842 151 814 q 403 869 310 869 q 596 815 515 869 q 718 657 676 761 q 769 458 754 568 q 785 224 785 349 q 775 78 785 129 q 745 6 765 26 q 692 -14 725 -14 m 385 142 q 478 155 431 142 q 557 194 525 168 q 589 260 589 221 q 562 315 589 293 q 491 347 535 336 q 397 358 447 358 q 269 329 313 358 q 225 251 225 300 q 266 170 225 199 q 385 142 307 142 z "},"á":{"ha":869,"x_min":35,"x_max":785,"o":"m 692 -14 q 627 23 644 -14 q 607 140 610 60 l 621 133 q 326 -18 543 -18 q 163 17 228 -18 q 66 112 97 53 q 35 240 35 171 q 118 430 35 360 q 339 500 201 500 q 496 474 429 500 q 610 400 563 447 l 586 403 q 526 603 576 543 q 382 664 475 664 q 282 647 328 664 q 198 613 236 631 q 126 596 160 596 q 74 618 93 596 q 56 675 56 640 q 103 769 56 725 q 231 842 151 814 q 403 869 310 869 q 596 815 515 869 q 718 657 676 761 q 769 458 754 568 q 785 224 785 349 q 775 78 785 129 q 745 6 765 26 q 692 -14 725 -14 m 385 142 q 478 155 431 142 q 557 194 525 168 q 589 260 589 221 q 562 315 589 293 q 491 347 535 336 q 397 358 447 358 q 269 329 313 358 q 225 251 225 300 q 266 170 225 199 q 385 142 307 142 m 265 932 q 294 982 265 954 q 371 1044 324 1010 q 460 1102 418 1078 q 535 1126 503 1126 q 583 1110 563 1126 q 617 1072 604 1094 q 629 1031 629 1050 q 603 986 629 1004 q 526 950 578 968 q 442 925 486 936 q 359 908 397 914 q 296 901 321 901 q 274 910 282 901 q 265 932 265 919 z "},"ă":{"ha":869,"x_min":35,"x_max":785,"o":"m 692 -14 q 627 23 644 -14 q 607 140 610 60 l 621 133 q 326 -18 543 -18 q 163 17 228 -18 q 66 112 97 53 q 35 240 35 171 q 118 430 35 360 q 339 500 201 500 q 496 474 429 500 q 610 400 563 447 l 586 403 q 526 603 576 543 q 382 664 475 664 q 282 647 328 664 q 198 613 236 631 q 126 596 160 596 q 74 618 93 596 q 56 675 56 640 q 103 769 56 725 q 231 842 151 814 q 403 869 310 869 q 596 815 515 869 q 718 657 676 761 q 769 458 754 568 q 785 224 785 349 q 775 78 785 129 q 745 6 765 26 q 692 -14 725 -14 m 385 142 q 478 155 431 142 q 557 194 525 168 q 589 260 589 221 q 562 315 589 293 q 491 347 535 336 q 397 358 447 358 q 269 329 313 358 q 225 251 225 300 q 266 170 225 199 q 385 142 307 142 m 383 903 q 234 955 288 903 q 181 1075 181 1007 q 235 1132 181 1132 q 299 1079 288 1132 q 325 1026 307 1043 q 382 1008 343 1008 q 435 1024 418 1008 q 461 1071 453 1039 q 486 1126 471 1107 q 532 1146 501 1146 q 573 1129 560 1146 q 586 1082 586 1113 q 563 994 586 1035 q 494 928 539 953 q 383 903 449 903 z "},"ǎ":{"ha":869,"x_min":35,"x_max":785,"o":"m 692 -14 q 627 23 644 -14 q 607 140 610 60 l 621 133 q 326 -18 543 -18 q 163 17 228 -18 q 66 112 97 53 q 35 240 35 171 q 118 430 35 360 q 339 500 201 500 q 496 474 429 500 q 610 400 563 447 l 586 403 q 526 603 576 543 q 382 664 475 664 q 282 647 328 664 q 198 613 236 631 q 126 596 160 596 q 74 618 93 596 q 56 675 56 640 q 103 769 56 725 q 231 842 151 814 q 403 869 310 869 q 596 815 515 869 q 718 657 676 761 q 769 458 754 568 q 785 224 785 349 q 775 78 785 129 q 745 6 765 26 q 692 -14 725 -14 m 385 142 q 478 155 431 142 q 557 194 525 168 q 589 260 589 221 q 562 315 589 293 q 491 347 535 336 q 397 358 447 358 q 269 329 313 358 q 225 251 225 300 q 266 170 225 199 q 385 142 307 142 m 389 919 q 324 938 360 919 q 247 982 288 956 q 179 1042 204 1013 q 154 1103 154 1071 q 169 1138 154 1125 q 207 1151 185 1151 q 292 1113 244 1151 q 388 988 339 1074 l 367 992 q 448 1103 401 1063 q 539 1144 494 1144 q 592 1127 571 1144 q 614 1079 614 1110 q 590 1019 614 1044 q 524 968 567 994 q 449 933 488 946 q 389 919 411 919 z "},"â":{"ha":869,"x_min":35,"x_max":785,"o":"m 692 -14 q 627 23 644 -14 q 607 140 610 60 l 621 133 q 326 -18 543 -18 q 163 17 228 -18 q 66 112 97 53 q 35 240 35 171 q 118 430 35 360 q 339 500 201 500 q 496 474 429 500 q 610 400 563 447 l 586 403 q 526 603 576 543 q 382 664 475 664 q 282 647 328 664 q 198 613 236 631 q 126 596 160 596 q 74 618 93 596 q 56 675 56 640 q 103 769 56 725 q 231 842 151 814 q 403 869 310 869 q 596 815 515 869 q 718 657 676 761 q 769 458 754 568 q 785 224 785 349 q 775 78 785 129 q 745 6 765 26 q 692 -14 725 -14 m 385 142 q 478 155 431 142 q 557 194 525 168 q 589 260 589 221 q 562 315 589 293 q 491 347 535 336 q 397 358 447 358 q 269 329 313 358 q 225 251 225 300 q 266 170 225 199 q 385 142 307 142 m 389 1138 q 449 1124 411 1138 q 524 1089 488 1111 q 590 1038 567 1063 q 614 978 614 1013 q 592 930 614 947 q 539 913 571 913 q 448 953 494 913 q 367 1065 401 994 l 388 1069 q 292 944 339 983 q 207 906 244 906 q 169 919 185 906 q 154 954 154 932 q 179 1015 154 986 q 247 1075 204 1044 q 324 1120 288 1103 q 389 1138 360 1138 z "},"ä":{"ha":869,"x_min":35,"x_max":785,"o":"m 692 -14 q 627 23 644 -14 q 607 140 610 60 l 621 133 q 326 -18 543 -18 q 163 17 228 -18 q 66 112 97 53 q 35 240 35 171 q 118 430 35 360 q 339 500 201 500 q 496 474 429 500 q 610 400 563 447 l 586 403 q 526 603 576 543 q 382 664 475 664 q 282 647 328 664 q 198 613 236 631 q 126 596 160 596 q 74 618 93 596 q 56 675 56 640 q 103 769 56 725 q 231 842 151 814 q 403 869 310 869 q 596 815 515 869 q 718 657 676 761 q 769 458 754 568 q 785 224 785 349 q 775 78 785 129 q 745 6 765 26 q 692 -14 725 -14 m 385 142 q 478 155 431 142 q 557 194 525 168 q 589 260 589 221 q 562 315 589 293 q 491 347 535 336 q 397 358 447 358 q 269 329 313 358 q 225 251 225 300 q 266 170 225 199 q 385 142 307 142 m 219 917 q 138 944 164 917 q 111 1010 111 972 q 146 1088 111 1061 q 243 1115 181 1115 q 324 1085 297 1115 q 350 1014 350 1056 q 313 942 350 967 q 219 917 276 917 m 543 1129 q 628 1099 601 1129 q 654 1028 654 1068 q 622 950 654 976 q 529 924 590 924 q 444 953 472 924 q 417 1024 417 982 q 451 1102 417 1075 q 543 1129 486 1129 z "},"à":{"ha":869,"x_min":35,"x_max":785,"o":"m 692 -14 q 627 23 644 -14 q 607 140 610 60 l 621 133 q 326 -18 543 -18 q 163 17 228 -18 q 66 112 97 53 q 35 240 35 171 q 118 430 35 360 q 339 500 201 500 q 496 474 429 500 q 610 400 563 447 l 586 403 q 526 603 576 543 q 382 664 475 664 q 282 647 328 664 q 198 613 236 631 q 126 596 160 596 q 74 618 93 596 q 56 675 56 640 q 103 769 56 725 q 231 842 151 814 q 403 869 310 869 q 596 815 515 869 q 718 657 676 761 q 769 458 754 568 q 785 224 785 349 q 775 78 785 129 q 745 6 765 26 q 692 -14 725 -14 m 385 142 q 478 155 431 142 q 557 194 525 168 q 589 260 589 221 q 562 315 589 293 q 491 347 535 336 q 397 358 447 358 q 269 329 313 358 q 225 251 225 300 q 266 170 225 199 q 385 142 307 142 m 501 932 q 494 910 501 919 q 471 901 486 901 q 408 908 446 901 q 326 925 369 914 q 240 950 282 936 q 163 986 189 968 q 138 1031 138 1004 q 150 1072 138 1050 q 184 1110 163 1094 q 232 1126 206 1126 q 306 1102 264 1126 q 396 1044 349 1078 q 473 982 444 1010 q 501 932 501 954 z "},"ā":{"ha":869,"x_min":35,"x_max":785,"o":"m 692 -14 q 627 23 644 -14 q 607 140 610 60 l 621 133 q 326 -18 543 -18 q 163 17 228 -18 q 66 112 97 53 q 35 240 35 171 q 118 430 35 360 q 339 500 201 500 q 496 474 429 500 q 610 400 563 447 l 586 403 q 526 603 576 543 q 382 664 475 664 q 282 647 328 664 q 198 613 236 631 q 126 596 160 596 q 74 618 93 596 q 56 675 56 640 q 103 769 56 725 q 231 842 151 814 q 403 869 310 869 q 596 815 515 869 q 718 657 676 761 q 769 458 754 568 q 785 224 785 349 q 775 78 785 129 q 745 6 765 26 q 692 -14 725 -14 m 385 142 q 478 155 431 142 q 557 194 525 168 q 589 260 589 221 q 562 315 589 293 q 491 347 535 336 q 397 358 447 358 q 269 329 313 358 q 225 251 225 300 q 266 170 225 199 q 385 142 307 142 m 225 917 q 145 937 171 917 q 119 989 119 957 q 142 1038 119 1021 q 219 1069 165 1056 q 317 1085 264 1079 q 425 1093 371 1090 q 524 1096 479 1096 q 619 1076 590 1096 q 647 1025 647 1057 q 624 969 647 990 q 554 940 600 949 q 450 928 511 933 q 329 919 389 922 q 225 917 269 917 z "},"ą":{"ha":869,"x_min":35,"x_max":785,"o":"m 692 -14 q 627 23 644 -14 q 607 140 610 60 l 621 133 q 326 -18 543 -18 q 163 17 228 -18 q 66 112 97 53 q 35 240 35 171 q 118 430 35 360 q 339 500 201 500 q 496 474 429 500 q 610 400 563 447 l 586 403 q 526 603 576 543 q 382 664 475 664 q 282 647 328 664 q 198 613 236 631 q 126 596 160 596 q 74 618 93 596 q 56 675 56 640 q 103 769 56 725 q 231 842 151 814 q 403 869 310 869 q 596 815 515 869 q 718 657 676 761 q 769 458 754 568 q 785 224 785 349 q 775 78 785 129 q 745 6 765 26 q 692 -14 725 -14 m 385 142 q 478 155 431 142 q 557 194 525 168 q 589 260 589 221 q 562 315 589 293 q 491 347 535 336 q 397 358 447 358 q 269 329 313 358 q 225 251 225 300 q 266 170 225 199 q 385 142 307 142 m 656 -293 q 537 -261 583 -293 q 490 -167 490 -229 q 528 -63 490 -117 q 654 39 567 -10 l 763 42 q 641 -58 686 -6 q 596 -137 596 -110 q 613 -162 596 -156 q 657 -169 629 -169 q 690 -168 672 -169 q 728 -167 707 -167 q 769 -181 756 -167 q 782 -221 782 -196 q 749 -275 782 -257 q 656 -293 717 -293 z "},"å":{"ha":869,"x_min":35,"x_max":785,"o":"m 692 -14 q 627 23 644 -14 q 607 140 610 60 l 621 133 q 326 -18 543 -18 q 163 17 228 -18 q 66 112 97 53 q 35 240 35 171 q 118 430 35 360 q 339 500 201 500 q 496 474 429 500 q 610 400 563 447 l 586 403 q 526 603 576 543 q 382 664 475 664 q 282 647 328 664 q 198 613 236 631 q 126 596 160 596 q 74 618 93 596 q 56 675 56 640 q 103 769 56 725 q 231 842 151 814 q 403 869 310 869 q 596 815 515 869 q 718 657 676 761 q 769 458 754 568 q 785 224 785 349 q 775 78 785 129 q 745 6 765 26 q 692 -14 725 -14 m 385 142 q 478 155 431 142 q 557 194 525 168 q 589 260 589 221 q 562 315 589 293 q 491 347 535 336 q 397 358 447 358 q 269 329 313 358 q 225 251 225 300 q 266 170 225 199 q 385 142 307 142 m 381 899 q 249 928 301 899 q 196 1021 196 958 q 248 1126 196 1085 q 397 1167 300 1167 q 528 1128 486 1167 q 569 1038 569 1090 q 519 938 569 976 q 381 899 468 899 m 372 974 q 449 988 418 974 q 481 1032 481 1003 q 457 1078 481 1061 q 383 1096 433 1096 q 308 1075 332 1096 q 285 1031 285 1054 q 309 990 285 1006 q 372 974 333 974 z "},"ã":{"ha":869,"x_min":35,"x_max":785,"o":"m 692 -14 q 627 23 644 -14 q 607 140 610 60 l 621 133 q 326 -18 543 -18 q 163 17 228 -18 q 66 112 97 53 q 35 240 35 171 q 118 430 35 360 q 339 500 201 500 q 496 474 429 500 q 610 400 563 447 l 586 403 q 526 603 576 543 q 382 664 475 664 q 282 647 328 664 q 198 613 236 631 q 126 596 160 596 q 74 618 93 596 q 56 675 56 640 q 103 769 56 725 q 231 842 151 814 q 403 869 310 869 q 596 815 515 869 q 718 657 676 761 q 769 458 754 568 q 785 224 785 349 q 775 78 785 129 q 745 6 765 26 q 692 -14 725 -14 m 385 142 q 478 155 431 142 q 557 194 525 168 q 589 260 589 221 q 562 315 589 293 q 491 347 535 336 q 397 358 447 358 q 269 329 313 358 q 225 251 225 300 q 266 170 225 199 q 385 142 307 142 m 306 1111 q 390 1088 353 1111 q 464 1031 428 1064 q 480 1023 474 1022 q 489 1033 486 1024 q 522 1108 504 1085 q 575 1132 540 1132 q 626 1072 626 1132 q 611 1002 626 1042 q 563 933 596 963 q 479 903 531 903 q 393 931 431 903 q 317 1007 356 960 q 300 1018 307 1019 q 288 996 293 1017 q 256 917 275 942 q 199 893 236 893 q 156 913 172 893 q 140 958 140 932 q 162 1032 140 997 q 221 1089 183 1067 q 306 1111 258 1111 z "},"æ":{"ha":1375,"x_min":35,"x_max":1338,"o":"m 1001 -11 q 756 35 849 -11 q 624 167 664 81 q 583 372 583 253 q 636 630 583 524 q 782 793 689 736 q 993 850 875 850 q 1211 781 1142 850 q 1281 601 1281 713 q 1238 448 1281 513 q 1119 349 1194 383 q 944 314 1043 314 q 829 329 885 314 q 729 371 774 344 l 763 432 q 758 365 758 399 q 819 226 758 268 q 993 183 881 183 q 1120 199 1072 183 q 1201 228 1168 214 q 1265 243 1235 243 q 1301 233 1285 243 q 1327 203 1317 222 q 1338 156 1338 183 q 1299 76 1338 114 q 1185 13 1260 38 q 1001 -11 1111 -11 m 385 142 q 478 155 431 142 q 557 194 525 168 q 589 260 589 221 q 562 315 589 293 q 491 347 535 336 q 397 358 447 358 q 269 329 313 358 q 225 251 225 300 q 266 170 225 199 q 385 142 307 142 m 326 -18 q 163 17 228 -18 q 66 112 97 53 q 35 240 35 171 q 118 430 35 360 q 339 500 201 500 q 496 474 429 500 q 610 400 563 447 l 586 403 q 526 603 576 543 q 382 664 475 664 q 282 647 328 664 q 198 613 236 631 q 126 596 160 596 q 74 618 93 596 q 56 675 56 640 q 101 769 56 725 q 224 842 147 814 q 389 869 300 869 q 582 815 501 869 q 704 657 663 761 l 663 196 q 326 -18 575 -18 m 921 443 q 1059 485 1007 443 q 1111 588 1111 526 q 1078 667 1111 636 q 976 699 1046 699 q 874 674 919 699 q 802 611 828 650 q 776 526 776 572 q 815 465 776 486 q 921 443 853 443 z "},"b":{"ha":864,"x_min":85,"x_max":808,"o":"m 190 -14 q 141 7 160 -14 q 111 67 122 28 q 92 216 100 124 q 85 414 85 308 q 88 549 85 474 q 95 701 90 624 q 106 844 100 778 q 119 953 113 911 q 152 1049 131 1014 q 221 1085 174 1085 q 292 1048 269 1085 q 314 957 314 1011 q 305 813 314 896 q 278 643 296 729 l 250 610 q 300 717 265 668 q 388 794 335 765 q 510 822 440 822 q 727 726 646 822 q 808 425 808 629 q 766 186 808 282 q 651 42 724 90 q 485 -6 578 -6 q 334 46 397 -6 q 253 194 271 97 l 272 179 q 245 33 267 79 q 190 -14 224 -14 m 444 156 q 567 218 514 156 q 619 414 619 281 q 578 594 619 525 q 442 664 538 664 q 317 602 364 664 q 269 415 269 540 q 317 228 269 301 q 444 156 364 156 z "},"c":{"ha":769,"x_min":56,"x_max":763,"o":"m 426 -15 q 145 85 235 -15 q 56 363 56 185 q 109 606 56 500 q 263 773 163 713 q 504 833 364 833 q 697 792 631 833 q 763 688 763 751 q 738 626 763 649 q 667 603 714 603 q 613 611 640 603 q 554 628 586 619 q 478 636 522 636 q 305 575 363 636 q 247 399 247 514 q 303 240 247 289 q 454 190 358 190 q 537 201 501 190 q 603 222 572 211 q 667 232 635 232 q 719 212 699 232 q 740 154 740 192 q 706 72 740 111 q 601 9 671 33 q 426 -15 532 -15 z "},"ć":{"ha":769,"x_min":56,"x_max":763,"o":"m 426 -15 q 145 85 235 -15 q 56 363 56 185 q 109 606 56 500 q 263 773 163 713 q 504 833 364 833 q 697 792 631 833 q 763 688 763 751 q 738 626 763 649 q 667 603 714 603 q 613 611 640 603 q 554 628 586 619 q 478 636 522 636 q 305 575 363 636 q 247 399 247 514 q 303 240 247 289 q 454 190 358 190 q 537 201 501 190 q 603 222 572 211 q 667 232 635 232 q 719 212 699 232 q 740 154 740 192 q 706 72 740 111 q 601 9 671 33 q 426 -15 532 -15 m 328 924 q 357 974 328 946 q 433 1036 386 1001 q 523 1094 481 1069 q 597 1118 565 1118 q 646 1102 625 1118 q 679 1064 667 1086 q 692 1022 692 1042 q 666 978 692 996 q 589 942 640 960 q 504 917 549 928 q 422 899 460 906 q 358 893 383 893 q 336 902 344 893 q 328 924 328 911 z "},"č":{"ha":769,"x_min":56,"x_max":763,"o":"m 426 -15 q 145 85 235 -15 q 56 363 56 185 q 109 606 56 500 q 263 773 163 713 q 504 833 364 833 q 697 792 631 833 q 763 688 763 751 q 738 626 763 649 q 667 603 714 603 q 613 611 640 603 q 554 628 586 619 q 478 636 522 636 q 305 575 363 636 q 247 399 247 514 q 303 240 247 289 q 454 190 358 190 q 537 201 501 190 q 603 222 572 211 q 667 232 635 232 q 719 212 699 232 q 740 154 740 192 q 706 72 740 111 q 601 9 671 33 q 426 -15 532 -15 m 451 911 q 386 929 422 911 q 310 974 350 947 q 242 1033 267 1004 q 217 1094 217 1063 q 232 1130 217 1117 q 269 1143 247 1143 q 354 1104 307 1143 q 450 979 401 1065 l 429 983 q 510 1095 464 1054 q 601 1136 557 1136 q 655 1119 633 1136 q 676 1071 676 1101 q 653 1011 676 1036 q 586 960 629 986 q 512 924 550 938 q 451 911 474 911 z "},"ç":{"ha":769,"x_min":56,"x_max":763,"o":"m 426 -15 q 145 85 235 -15 q 56 363 56 185 q 109 606 56 500 q 263 773 163 713 q 504 833 364 833 q 697 792 631 833 q 763 688 763 751 q 738 626 763 649 q 667 603 714 603 q 613 611 640 603 q 554 628 586 619 q 478 636 522 636 q 305 575 363 636 q 247 399 247 514 q 303 240 247 289 q 454 190 358 190 q 537 201 501 190 q 603 222 572 211 q 667 232 635 232 q 719 212 699 232 q 740 154 740 192 q 706 72 740 111 q 601 9 671 33 q 426 -15 532 -15 m 329 -289 q 239 -232 239 -289 q 261 -188 239 -201 q 313 -169 283 -175 q 366 -162 338 -165 q 406 -156 394 -158 q 438 -144 425 -151 q 450 -122 450 -136 q 433 -99 450 -107 q 371 -85 417 -90 q 299 -64 325 -76 q 272 -25 272 -51 q 293 7 272 -1 q 344 15 314 15 q 444 -2 394 15 q 527 -53 494 -19 q 560 -135 560 -86 q 530 -211 560 -176 q 448 -267 500 -246 q 329 -289 396 -289 z "},"ċ":{"ha":769,"x_min":56,"x_max":763,"o":"m 426 -15 q 145 85 235 -15 q 56 363 56 185 q 109 606 56 500 q 263 773 163 713 q 504 833 364 833 q 697 792 631 833 q 763 688 763 751 q 738 626 763 649 q 667 603 714 603 q 613 611 640 603 q 554 628 586 619 q 478 636 522 636 q 305 575 363 636 q 247 399 247 514 q 303 240 247 289 q 454 190 358 190 q 537 201 501 190 q 603 222 572 211 q 667 232 635 232 q 719 212 699 232 q 740 154 740 192 q 706 72 740 111 q 601 9 671 33 q 426 -15 532 -15 m 456 1121 q 535 1090 511 1121 q 560 1019 560 1060 q 530 942 560 969 q 446 915 500 915 q 367 945 393 915 q 340 1015 340 975 q 372 1094 340 1068 q 456 1121 404 1121 z "},"d":{"ha":871,"x_min":56,"x_max":786,"o":"m 344 -19 q 132 83 208 -19 q 56 394 56 185 q 131 699 56 603 q 349 796 207 796 q 490 763 429 796 q 597 668 550 729 l 586 663 q 561 783 574 719 q 541 905 549 847 q 533 996 533 963 q 549 1069 533 1043 q 597 1094 564 1094 q 674 1055 644 1094 q 722 933 703 1015 q 754 759 740 860 q 777 549 768 658 q 786 340 786 440 q 772 124 786 201 q 731 17 757 47 q 671 -14 706 -14 q 613 29 628 -14 q 600 169 597 72 l 621 169 q 512 32 583 83 q 344 -19 440 -19 m 418 153 q 510 178 468 153 q 578 258 553 204 q 604 396 604 313 q 556 570 604 503 q 415 638 507 638 q 298 578 343 638 q 253 397 253 518 q 298 222 253 290 q 418 153 343 153 z "},"ð":{"ha":842,"x_min":56,"x_max":786,"o":"m 424 -19 q 151 69 247 -19 q 56 339 56 157 q 100 535 56 458 q 221 648 144 611 q 390 685 297 685 q 531 655 471 685 q 639 571 592 625 l 618 571 q 519 735 578 651 q 396 890 461 819 q 323 976 349 943 q 297 1049 297 1010 q 315 1101 297 1081 q 372 1121 333 1121 q 456 1094 413 1121 q 553 1001 500 1067 q 672 823 619 922 q 756 615 725 724 q 786 396 786 506 q 737 163 786 256 q 606 26 688 71 q 424 -19 524 -19 m 418 153 q 510 173 468 153 q 578 235 553 193 q 604 340 604 276 q 556 474 604 422 q 415 526 507 526 q 298 481 343 526 q 253 342 253 435 q 298 206 253 258 q 418 153 343 153 m 178 864 q 265 914 213 885 q 376 974 317 943 q 490 1033 435 1006 q 583 1078 544 1060 q 689 1064 661 1110 q 694 1017 704 1042 q 639 965 683 992 q 509 892 582 931 q 365 818 436 853 q 243 763 294 783 q 173 749 197 744 q 135 775 149 754 q 131 819 122 797 q 178 864 140 842 z "},"ď":{"ha":871,"x_min":56,"x_max":1061,"o":"m 344 -19 q 132 83 208 -19 q 56 394 56 185 q 131 699 56 603 q 349 796 207 796 q 490 763 429 796 q 597 668 550 729 l 586 663 q 561 783 574 719 q 541 905 549 847 q 533 996 533 963 q 549 1069 533 1043 q 597 1094 564 1094 q 674 1055 644 1094 q 722 933 703 1015 q 754 759 740 860 q 777 549 768 658 q 786 340 786 440 q 772 124 786 201 q 731 17 757 47 q 671 -14 706 -14 q 613 29 628 -14 q 600 169 597 72 l 621 169 q 512 32 583 83 q 344 -19 440 -19 m 418 153 q 510 178 468 153 q 578 258 553 204 q 604 396 604 313 q 556 570 604 503 q 415 638 507 638 q 298 578 343 638 q 253 397 253 518 q 298 222 253 290 q 418 153 343 153 m 850 839 q 832 893 833 853 q 840 989 831 933 q 858 1075 850 1035 q 889 1138 867 1115 q 935 1162 907 1160 q 993 1156 964 1164 q 1039 1133 1022 1147 q 1060 1088 1061 1115 q 1036 1017 1058 1061 q 998 952 1019 985 q 957 892 976 919 q 922 846 938 864 q 888 828 910 831 q 850 839 865 826 z "},"đ":{"ha":890,"x_min":56,"x_max":904,"o":"m 344 -19 q 132 83 208 -19 q 56 394 56 185 q 131 699 56 603 q 349 796 207 796 q 490 763 429 796 q 597 668 550 729 l 586 663 q 561 783 574 719 q 541 905 549 847 q 533 996 533 963 q 549 1069 533 1043 q 597 1094 564 1094 q 674 1055 644 1094 q 722 933 703 1015 q 754 759 740 860 q 777 549 768 658 q 786 340 786 440 q 772 124 786 201 q 731 17 757 47 q 671 -14 706 -14 q 613 29 628 -14 q 600 169 597 72 l 621 169 q 512 32 583 83 q 344 -19 440 -19 m 418 153 q 510 178 468 153 q 578 258 553 204 q 604 396 604 313 q 556 570 604 503 q 415 638 507 638 q 298 578 343 638 q 253 397 253 518 q 298 222 253 290 q 418 153 343 153 m 239 850 q 169 865 190 850 q 149 906 149 879 q 168 948 149 931 q 242 975 188 965 q 361 988 292 982 q 509 1000 431 994 q 664 1009 588 1006 q 804 1013 740 1013 q 882 997 860 1013 q 904 953 904 981 q 884 908 904 926 q 815 883 864 890 q 684 872 761 878 q 524 860 607 865 q 365 853 440 856 q 239 850 289 850 z "},"e":{"ha":875,"x_min":56,"x_max":838,"o":"m 474 -11 q 228 35 319 -11 q 96 167 136 81 q 56 372 56 253 q 112 630 56 524 q 267 793 168 736 q 493 850 367 850 q 711 781 642 850 q 781 601 781 713 q 734 448 781 513 q 606 349 688 383 q 417 314 524 314 q 301 329 357 314 q 201 371 246 344 l 235 432 q 231 365 231 399 q 292 226 231 268 q 465 183 353 183 q 606 199 553 183 q 694 228 658 214 q 765 243 731 243 q 801 233 785 243 q 827 203 817 222 q 838 156 838 183 q 796 76 838 114 q 673 13 754 38 q 474 -11 592 -11 m 393 443 q 551 485 492 443 q 611 588 611 526 q 578 667 611 636 q 476 699 546 699 q 359 674 411 699 q 278 611 307 650 q 249 526 249 572 q 287 465 249 486 q 393 443 325 443 z "},"é":{"ha":875,"x_min":56,"x_max":838,"o":"m 474 -11 q 228 35 319 -11 q 96 167 136 81 q 56 372 56 253 q 112 630 56 524 q 267 793 168 736 q 493 850 367 850 q 711 781 642 850 q 781 601 781 713 q 734 448 781 513 q 606 349 688 383 q 417 314 524 314 q 301 329 357 314 q 201 371 246 344 l 235 432 q 231 365 231 399 q 292 226 231 268 q 465 183 353 183 q 606 199 553 183 q 694 228 658 214 q 765 243 731 243 q 801 233 785 243 q 827 203 817 222 q 838 156 838 183 q 796 76 838 114 q 673 13 754 38 q 474 -11 592 -11 m 393 443 q 551 485 492 443 q 611 588 611 526 q 578 667 611 636 q 476 699 546 699 q 359 674 411 699 q 278 611 307 650 q 249 526 249 572 q 287 465 249 486 q 393 443 325 443 m 353 913 q 382 963 353 935 q 458 1025 411 990 q 548 1083 506 1058 q 622 1107 590 1107 q 671 1091 650 1107 q 704 1053 692 1075 q 717 1011 717 1031 q 691 967 717 985 q 614 931 665 949 q 529 906 574 917 q 447 888 485 894 q 383 882 408 882 q 361 891 369 882 q 353 913 353 900 z "},"ě":{"ha":875,"x_min":56,"x_max":838,"o":"m 474 -11 q 228 35 319 -11 q 96 167 136 81 q 56 372 56 253 q 112 630 56 524 q 267 793 168 736 q 493 850 367 850 q 711 781 642 850 q 781 601 781 713 q 734 448 781 513 q 606 349 688 383 q 417 314 524 314 q 301 329 357 314 q 201 371 246 344 l 235 432 q 231 365 231 399 q 292 226 231 268 q 465 183 353 183 q 606 199 553 183 q 694 228 658 214 q 765 243 731 243 q 801 233 785 243 q 827 203 817 222 q 838 156 838 183 q 796 76 838 114 q 673 13 754 38 q 474 -11 592 -11 m 393 443 q 551 485 492 443 q 611 588 611 526 q 578 667 611 636 q 476 699 546 699 q 359 674 411 699 q 278 611 307 650 q 249 526 249 572 q 287 465 249 486 q 393 443 325 443 m 476 900 q 411 918 447 900 q 335 963 375 936 q 267 1022 292 993 q 242 1083 242 1051 q 257 1119 242 1106 q 294 1132 272 1132 q 379 1093 332 1132 q 475 968 426 1054 l 454 972 q 535 1084 489 1043 q 626 1125 582 1125 q 680 1108 658 1125 q 701 1060 701 1090 q 678 1000 701 1025 q 611 949 654 975 q 537 913 575 926 q 476 900 499 900 z "},"ê":{"ha":875,"x_min":56,"x_max":838,"o":"m 474 -11 q 228 35 319 -11 q 96 167 136 81 q 56 372 56 253 q 112 630 56 524 q 267 793 168 736 q 493 850 367 850 q 711 781 642 850 q 781 601 781 713 q 734 448 781 513 q 606 349 688 383 q 417 314 524 314 q 301 329 357 314 q 201 371 246 344 l 235 432 q 231 365 231 399 q 292 226 231 268 q 465 183 353 183 q 606 199 553 183 q 694 228 658 214 q 765 243 731 243 q 801 233 785 243 q 827 203 817 222 q 838 156 838 183 q 796 76 838 114 q 673 13 754 38 q 474 -11 592 -11 m 393 443 q 551 485 492 443 q 611 588 611 526 q 578 667 611 636 q 476 699 546 699 q 359 674 411 699 q 278 611 307 650 q 249 526 249 572 q 287 465 249 486 q 393 443 325 443 m 476 1118 q 537 1105 499 1118 q 611 1069 575 1092 q 678 1018 654 1043 q 701 958 701 993 q 680 910 701 928 q 626 893 658 893 q 535 934 582 893 q 454 1046 489 975 l 475 1050 q 379 925 426 964 q 294 886 332 886 q 257 899 272 886 q 242 935 242 913 q 267 996 242 967 q 335 1056 292 1025 q 411 1101 375 1083 q 476 1118 447 1118 z "},"ë":{"ha":875,"x_min":56,"x_max":838,"o":"m 474 -11 q 228 35 319 -11 q 96 167 136 81 q 56 372 56 253 q 112 630 56 524 q 267 793 168 736 q 493 850 367 850 q 711 781 642 850 q 781 601 781 713 q 734 448 781 513 q 606 349 688 383 q 417 314 524 314 q 301 329 357 314 q 201 371 246 344 l 235 432 q 231 365 231 399 q 292 226 231 268 q 465 183 353 183 q 606 199 553 183 q 694 228 658 214 q 765 243 731 243 q 801 233 785 243 q 827 203 817 222 q 838 156 838 183 q 796 76 838 114 q 673 13 754 38 q 474 -11 592 -11 m 393 443 q 551 485 492 443 q 611 588 611 526 q 578 667 611 636 q 476 699 546 699 q 359 674 411 699 q 278 611 307 650 q 249 526 249 572 q 287 465 249 486 q 393 443 325 443 m 307 897 q 225 925 251 897 q 199 990 199 953 q 233 1069 199 1042 q 331 1096 268 1096 q 411 1066 385 1096 q 438 994 438 1036 q 401 922 438 947 q 307 897 364 897 m 631 1110 q 715 1079 689 1110 q 742 1008 742 1049 q 710 931 742 957 q 617 904 678 904 q 532 933 560 904 q 504 1004 504 963 q 539 1083 504 1056 q 631 1110 574 1110 z "},"ė":{"ha":875,"x_min":56,"x_max":838,"o":"m 474 -11 q 228 35 319 -11 q 96 167 136 81 q 56 372 56 253 q 112 630 56 524 q 267 793 168 736 q 493 850 367 850 q 711 781 642 850 q 781 601 781 713 q 734 448 781 513 q 606 349 688 383 q 417 314 524 314 q 301 329 357 314 q 201 371 246 344 l 235 432 q 231 365 231 399 q 292 226 231 268 q 465 183 353 183 q 606 199 553 183 q 694 228 658 214 q 765 243 731 243 q 801 233 785 243 q 827 203 817 222 q 838 156 838 183 q 796 76 838 114 q 673 13 754 38 q 474 -11 592 -11 m 393 443 q 551 485 492 443 q 611 588 611 526 q 578 667 611 636 q 476 699 546 699 q 359 674 411 699 q 278 611 307 650 q 249 526 249 572 q 287 465 249 486 q 393 443 325 443 m 481 1110 q 560 1079 536 1110 q 585 1008 585 1049 q 555 931 585 958 q 471 904 525 904 q 392 934 418 904 q 365 1004 365 964 q 397 1083 365 1057 q 481 1110 429 1110 z "},"è":{"ha":875,"x_min":56,"x_max":838,"o":"m 474 -11 q 228 35 319 -11 q 96 167 136 81 q 56 372 56 253 q 112 630 56 524 q 267 793 168 736 q 493 850 367 850 q 711 781 642 850 q 781 601 781 713 q 734 448 781 513 q 606 349 688 383 q 417 314 524 314 q 301 329 357 314 q 201 371 246 344 l 235 432 q 231 365 231 399 q 292 226 231 268 q 465 183 353 183 q 606 199 553 183 q 694 228 658 214 q 765 243 731 243 q 801 233 785 243 q 827 203 817 222 q 838 156 838 183 q 796 76 838 114 q 673 13 754 38 q 474 -11 592 -11 m 393 443 q 551 485 492 443 q 611 588 611 526 q 578 667 611 636 q 476 699 546 699 q 359 674 411 699 q 278 611 307 650 q 249 526 249 572 q 287 465 249 486 q 393 443 325 443 m 589 913 q 581 891 589 900 q 558 882 574 882 q 495 888 533 882 q 413 906 457 894 q 328 931 369 917 q 251 967 276 949 q 225 1011 225 985 q 238 1053 225 1031 q 272 1091 250 1075 q 319 1107 293 1107 q 394 1083 351 1107 q 483 1025 436 1058 q 560 963 532 990 q 589 913 589 935 z "},"ē":{"ha":875,"x_min":56,"x_max":838,"o":"m 474 -11 q 228 35 319 -11 q 96 167 136 81 q 56 372 56 253 q 112 630 56 524 q 267 793 168 736 q 493 850 367 850 q 711 781 642 850 q 781 601 781 713 q 734 448 781 513 q 606 349 688 383 q 417 314 524 314 q 301 329 357 314 q 201 371 246 344 l 235 432 q 231 365 231 399 q 292 226 231 268 q 465 183 353 183 q 606 199 553 183 q 694 228 658 214 q 765 243 731 243 q 801 233 785 243 q 827 203 817 222 q 838 156 838 183 q 796 76 838 114 q 673 13 754 38 q 474 -11 592 -11 m 393 443 q 551 485 492 443 q 611 588 611 526 q 578 667 611 636 q 476 699 546 699 q 359 674 411 699 q 278 611 307 650 q 249 526 249 572 q 287 465 249 486 q 393 443 325 443 m 313 897 q 233 917 258 897 q 207 969 207 938 q 230 1019 207 1001 q 307 1050 253 1036 q 405 1065 351 1060 q 513 1074 458 1071 q 611 1076 567 1076 q 706 1057 678 1076 q 735 1006 735 1038 q 711 950 735 971 q 642 921 688 929 q 538 908 599 914 q 417 900 476 903 q 313 897 357 897 z "},"ę":{"ha":875,"x_min":56,"x_max":838,"o":"m 474 -11 q 228 35 319 -11 q 96 167 136 81 q 56 372 56 253 q 112 630 56 524 q 267 793 168 736 q 493 850 367 850 q 711 781 642 850 q 781 601 781 713 q 734 448 781 513 q 606 349 688 383 q 417 314 524 314 q 301 329 357 314 q 201 371 246 344 l 235 432 q 231 365 231 399 q 292 226 231 268 q 465 183 353 183 q 606 199 553 183 q 694 228 658 214 q 765 243 731 243 q 801 233 785 243 q 827 203 817 222 q 838 156 838 183 q 796 76 838 114 q 673 13 754 38 q 474 -11 592 -11 m 393 443 q 551 485 492 443 q 611 588 611 526 q 578 667 611 636 q 476 699 546 699 q 359 674 411 699 q 278 611 307 650 q 249 526 249 572 q 287 465 249 486 q 393 443 325 443 m 632 -293 q 513 -261 560 -293 q 467 -167 467 -229 q 505 -63 467 -117 q 631 39 543 -10 l 739 42 q 617 -58 663 -6 q 572 -137 572 -110 q 589 -162 572 -156 q 633 -169 606 -169 q 666 -168 649 -169 q 704 -167 683 -167 q 745 -181 732 -167 q 758 -221 758 -196 q 726 -275 758 -257 q 632 -293 693 -293 z "},"f":{"ha":740,"x_min":28,"x_max":713,"o":"m 325 781 l 310 781 q 297 899 297 842 q 351 1058 297 1000 q 532 1117 404 1117 q 644 1092 610 1117 q 678 1019 678 1068 q 576 922 678 931 q 497 903 525 917 q 455 859 468 889 q 438 775 442 829 l 413 778 q 492 797 447 790 q 579 804 536 804 q 676 782 639 804 q 713 707 713 760 q 674 629 713 656 q 578 603 635 603 q 505 608 543 603 q 429 624 467 614 l 436 644 q 460 490 450 574 q 475 322 469 406 q 481 164 481 238 q 468 76 481 117 q 430 10 456 35 q 365 -14 404 -14 q 282 33 307 -14 q 257 149 257 79 q 263 299 257 215 q 283 473 269 383 q 314 646 296 563 l 331 633 q 150 603 260 603 q 60 625 92 603 q 28 693 28 647 q 67 770 28 743 q 171 797 106 797 q 255 792 215 797 q 325 781 294 788 z "},"g":{"ha":872,"x_min":56,"x_max":788,"o":"m 350 22 q 138 123 219 22 q 56 429 56 224 q 135 750 56 649 q 343 851 214 851 q 478 813 419 851 q 578 703 536 774 l 567 683 q 560 725 563 703 q 557 758 557 747 q 576 847 557 815 q 635 878 594 878 q 705 842 679 878 q 744 739 731 806 q 775 566 763 671 q 788 354 788 461 q 778 131 788 221 q 746 -19 768 40 q 688 -124 724 -79 q 534 -234 628 -196 q 318 -272 440 -272 q 178 -256 231 -272 q 102 -213 125 -240 q 79 -153 79 -186 q 99 -95 79 -118 q 157 -72 118 -72 q 238 -83 192 -72 q 349 -94 285 -94 q 540 -31 483 -94 q 596 150 596 32 q 592 225 596 182 l 611 218 q 508 76 576 129 q 350 22 440 22 m 403 193 q 492 217 447 193 q 565 294 536 240 q 594 440 594 349 q 543 619 594 550 q 399 689 492 689 q 281 628 318 689 q 243 443 243 567 q 281 259 243 325 q 403 193 318 193 z "},"ğ":{"ha":872,"x_min":56,"x_max":788,"o":"m 350 22 q 138 123 219 22 q 56 429 56 224 q 135 750 56 649 q 343 851 214 851 q 478 813 419 851 q 578 703 536 774 l 567 683 q 560 725 563 703 q 557 758 557 747 q 576 847 557 815 q 635 878 594 878 q 705 842 679 878 q 744 739 731 806 q 775 566 763 671 q 788 354 788 461 q 778 131 788 221 q 746 -19 768 40 q 688 -124 724 -79 q 534 -234 628 -196 q 318 -272 440 -272 q 178 -256 231 -272 q 102 -213 125 -240 q 79 -153 79 -186 q 99 -95 79 -118 q 157 -72 118 -72 q 238 -83 192 -72 q 349 -94 285 -94 q 540 -31 483 -94 q 596 150 596 32 q 592 225 596 182 l 611 218 q 508 76 576 129 q 350 22 440 22 m 403 193 q 492 217 447 193 q 565 294 536 240 q 594 440 594 349 q 543 619 594 550 q 399 689 492 689 q 281 628 318 689 q 243 443 243 567 q 281 259 243 325 q 403 193 318 193 m 453 894 q 303 947 357 894 q 250 1067 250 999 q 304 1124 250 1124 q 368 1071 357 1124 q 394 1017 376 1035 q 451 1000 413 1000 q 505 1015 488 1000 q 531 1063 522 1031 q 556 1118 540 1099 q 601 1138 571 1138 q 642 1121 629 1138 q 656 1074 656 1104 q 632 985 656 1026 q 563 919 608 944 q 453 894 518 894 z "},"ģ":{"ha":872,"x_min":56,"x_max":788,"o":"m 350 22 q 138 123 219 22 q 56 429 56 224 q 135 750 56 649 q 343 851 214 851 q 478 813 419 851 q 578 703 536 774 l 567 683 q 560 725 563 703 q 557 758 557 747 q 576 847 557 815 q 635 878 594 878 q 705 842 679 878 q 744 739 731 806 q 775 566 763 671 q 788 354 788 461 q 778 131 788 221 q 746 -19 768 40 q 688 -124 724 -79 q 534 -234 628 -196 q 318 -272 440 -272 q 178 -256 231 -272 q 102 -213 125 -240 q 79 -153 79 -186 q 99 -95 79 -118 q 157 -72 118 -72 q 238 -83 192 -72 q 349 -94 285 -94 q 540 -31 483 -94 q 596 150 596 32 q 592 225 596 182 l 611 218 q 508 76 576 129 q 350 22 440 22 m 403 193 q 492 217 447 193 q 565 294 536 240 q 594 440 594 349 q 543 619 594 550 q 399 689 492 689 q 281 628 318 689 q 243 443 243 567 q 281 259 243 325 q 403 193 318 193 m 451 911 q 369 938 400 911 q 338 1025 338 965 q 356 1096 338 1057 q 400 1167 374 1135 q 445 1208 424 1194 q 488 1221 467 1221 q 512 1215 503 1221 q 521 1196 521 1208 q 509 1158 521 1182 q 458 1092 497 1133 l 450 1106 q 542 1082 515 1106 q 568 1014 568 1058 q 558 966 568 990 q 522 926 547 942 q 451 911 496 911 z "},"ġ":{"ha":872,"x_min":56,"x_max":788,"o":"m 350 22 q 138 123 219 22 q 56 429 56 224 q 135 750 56 649 q 343 851 214 851 q 478 813 419 851 q 578 703 536 774 l 567 683 q 560 725 563 703 q 557 758 557 747 q 576 847 557 815 q 635 878 594 878 q 705 842 679 878 q 744 739 731 806 q 775 566 763 671 q 788 354 788 461 q 778 131 788 221 q 746 -19 768 40 q 688 -124 724 -79 q 534 -234 628 -196 q 318 -272 440 -272 q 178 -256 231 -272 q 102 -213 125 -240 q 79 -153 79 -186 q 99 -95 79 -118 q 157 -72 118 -72 q 238 -83 192 -72 q 349 -94 285 -94 q 540 -31 483 -94 q 596 150 596 32 q 592 225 596 182 l 611 218 q 508 76 576 129 q 350 22 440 22 m 403 193 q 492 217 447 193 q 565 294 536 240 q 594 440 594 349 q 543 619 594 550 q 399 689 492 689 q 281 628 318 689 q 243 443 243 567 q 281 259 243 325 q 403 193 318 193 m 463 1121 q 542 1090 518 1121 q 567 1019 567 1060 q 537 942 567 969 q 453 915 507 915 q 374 945 400 915 q 347 1015 347 975 q 379 1094 347 1068 q 463 1121 411 1121 z "},"h":{"ha":908,"x_min":85,"x_max":824,"o":"m 228 1100 q 290 1065 272 1100 q 307 961 307 1031 q 300 811 307 901 q 282 638 293 721 l 274 638 q 392 776 319 724 q 544 829 464 829 q 671 795 615 829 q 761 689 726 761 q 808 534 793 624 q 824 364 824 444 q 806 158 824 235 q 758 48 789 82 q 686 14 728 14 q 599 157 599 14 q 606 300 599 226 q 614 435 614 374 q 581 591 614 539 q 488 643 549 643 q 364 575 411 643 q 317 388 317 507 q 328 251 317 325 q 339 115 339 176 q 313 17 339 47 q 247 -12 288 -12 q 194 -1 217 -12 q 155 47 171 11 q 128 153 139 82 q 111 279 119 207 q 97 431 103 351 q 88 585 92 510 q 85 724 85 661 q 122 1010 85 921 q 228 1100 160 1100 z "},"ħ":{"ha":908,"x_min":-65,"x_max":824,"o":"m 247 -12 q 194 -1 217 -12 q 155 47 171 11 q 128 153 139 82 q 111 279 119 207 q 97 431 103 351 q 88 585 92 510 q 85 724 85 661 q 122 1010 85 921 q 228 1100 160 1100 q 290 1065 272 1100 q 307 961 307 1031 q 300 811 307 901 q 282 638 293 721 l 274 638 q 392 776 319 724 q 544 829 464 829 q 671 795 615 829 q 761 689 726 761 q 808 534 793 624 q 824 364 824 444 q 806 158 824 235 q 758 48 789 82 q 686 14 728 14 q 599 157 599 14 q 606 300 599 226 q 614 435 614 374 q 581 591 614 539 q 488 643 549 643 q 364 575 411 643 q 317 388 317 507 q 328 251 317 325 q 339 115 339 176 q 313 17 339 47 q 247 -12 288 -12 m 25 850 q -44 865 -24 850 q -65 906 -65 879 q -46 948 -65 931 q 28 975 -26 965 q 147 988 78 982 q 295 1000 217 994 q 450 1009 374 1006 q 590 1013 526 1013 q 668 997 646 1013 q 690 953 690 981 q 670 908 690 926 q 601 883 650 890 q 470 872 547 878 q 310 860 393 865 q 151 853 226 856 q 25 850 75 850 z "},"i":{"ha":396,"x_min":85,"x_max":311,"o":"m 207 1065 q 287 1035 263 1065 q 311 964 311 1004 q 281 887 311 914 q 197 860 251 860 q 118 890 144 860 q 92 960 92 919 q 124 1039 92 1013 q 207 1065 156 1065 m 215 756 q 285 672 260 756 q 311 407 311 589 q 279 85 311 183 q 182 -14 247 -14 q 108 59 132 -14 q 85 314 85 132 q 122 647 85 538 q 215 756 158 756 z "},"ı":{"ha":392,"x_min":85,"x_max":307,"o":"m 214 756 q 283 672 258 756 q 307 407 307 589 q 276 85 307 183 q 181 -14 244 -14 q 108 59 132 -14 q 85 314 85 132 q 121 647 85 538 q 214 756 157 756 z "},"í":{"ha":392,"x_min":79,"x_max":443,"o":"m 214 756 q 283 672 258 756 q 307 407 307 589 q 276 85 307 183 q 181 -14 244 -14 q 108 59 132 -14 q 85 314 85 132 q 121 647 85 538 q 214 756 157 756 m 79 818 q 108 868 79 840 q 185 931 138 896 q 274 988 232 964 q 349 1013 317 1013 q 397 997 376 1013 q 431 958 418 981 q 443 917 443 936 q 417 872 443 890 q 340 836 392 854 q 256 811 300 822 q 173 794 211 800 q 110 788 135 788 q 88 797 96 788 q 79 818 79 806 z "},"î":{"ha":392,"x_min":6,"x_max":390,"o":"m 214 756 q 283 672 258 756 q 307 407 307 589 q 276 85 307 183 q 181 -14 244 -14 q 108 59 132 -14 q 85 314 85 132 q 121 647 85 538 q 214 756 157 756 m 203 1024 q 256 1010 222 1024 q 322 974 290 997 q 373 924 356 949 q 390 864 390 899 q 369 816 390 833 q 321 799 349 799 q 245 840 282 799 q 181 951 208 881 l 201 956 q 127 831 164 869 q 58 792 90 792 q 21 805 36 792 q 6 840 6 818 q 24 901 6 872 q 78 960 43 931 q 145 1007 114 990 q 203 1024 176 1024 z "},"ï":{"ha":392,"x_min":4,"x_max":390,"o":"m 214 756 q 283 672 258 756 q 307 407 307 589 q 276 85 307 183 q 181 -14 244 -14 q 108 59 132 -14 q 85 314 85 132 q 121 647 85 538 q 214 756 157 756 m 78 803 q 22 831 39 803 q 4 896 4 858 q 30 974 4 947 q 101 1001 56 1001 q 156 972 138 1001 q 174 900 174 942 q 150 828 174 853 q 78 803 126 803 m 314 1015 q 372 985 354 1015 q 390 914 390 954 q 367 836 390 863 q 299 810 343 810 q 240 839 260 810 q 221 910 221 868 q 247 988 221 961 q 314 1015 272 1015 z "},"ì":{"ha":392,"x_min":-49,"x_max":315,"o":"m 214 756 q 283 672 258 756 q 307 407 307 589 q 276 85 307 183 q 181 -14 244 -14 q 108 59 132 -14 q 85 314 85 132 q 121 647 85 538 q 214 756 157 756 m 315 818 q 308 797 315 806 q 285 788 300 788 q 222 794 260 788 q 140 811 183 800 q 54 836 96 822 q -23 872 3 854 q -49 917 -49 890 q -36 958 -49 936 q -2 997 -24 981 q 46 1013 19 1013 q 120 988 78 1013 q 210 931 163 964 q 287 868 258 896 q 315 818 315 840 z "},"ĳ":{"ha":782,"x_min":85,"x_max":697,"o":"m 207 1065 q 287 1035 263 1065 q 311 964 311 1004 q 281 887 311 914 q 197 860 251 860 q 118 890 144 860 q 92 960 92 919 q 124 1039 92 1013 q 207 1065 156 1065 m 215 756 q 285 672 260 756 q 311 407 311 589 q 279 85 311 183 q 182 -14 247 -14 q 108 59 132 -14 q 85 314 85 132 q 122 647 85 538 q 215 756 158 756 m 488 -289 q 388 -265 432 -289 q 317 -206 343 -242 q 290 -132 290 -169 q 307 -82 290 -100 q 350 -64 324 -64 q 449 -99 396 -64 q 549 -194 501 -133 l 528 -192 q 492 181 504 3 q 481 501 481 360 q 502 695 481 631 q 574 760 524 760 q 664 671 631 760 q 697 371 697 582 q 692 180 697 278 q 676 -6 686 82 q 647 -153 665 -93 q 587 -257 625 -225 q 488 -289 549 -289 m 551 875 q 480 895 507 875 q 453 957 453 915 q 485 1037 453 1004 q 578 1069 518 1069 q 654 1045 628 1069 q 681 981 681 1021 q 644 903 681 931 q 551 875 608 875 z "},"ī":{"ha":392,"x_min":-67,"x_max":461,"o":"m 214 756 q 283 672 258 756 q 307 407 307 589 q 276 85 307 183 q 181 -14 244 -14 q 108 59 132 -14 q 85 314 85 132 q 121 647 85 538 q 214 756 157 756 m 39 803 q -41 823 -15 803 q -67 875 -67 843 q -44 924 -67 907 q 33 956 -21 942 q 131 971 78 965 q 239 979 185 976 q 338 982 293 982 q 433 963 404 982 q 461 911 461 943 q 438 856 461 876 q 368 826 414 835 q 264 814 325 819 q 143 806 203 808 q 39 803 83 803 z "},"į":{"ha":392,"x_min":-19,"x_max":311,"o":"m 214 756 q 283 672 258 756 q 307 407 307 589 q 276 85 307 183 q 181 -14 244 -14 q 108 59 132 -14 q 85 314 85 132 q 121 647 85 538 q 214 756 157 756 m 207 1015 q 287 985 263 1015 q 311 914 311 954 q 281 837 311 864 q 197 810 251 810 q 118 840 144 810 q 92 910 92 869 q 124 989 92 963 q 207 1015 156 1015 m 146 -293 q 27 -261 74 -293 q -19 -167 -19 -229 q 19 -63 -19 -117 q 144 39 57 -10 l 253 42 q 131 -58 176 -6 q 86 -137 86 -110 q 103 -162 86 -156 q 147 -169 119 -169 q 180 -168 163 -169 q 218 -167 197 -167 q 259 -181 246 -167 q 272 -221 272 -196 q 240 -275 272 -257 q 146 -293 207 -293 z "},"j":{"ha":386,"x_min":-106,"x_max":301,"o":"m 92 -289 q -8 -265 36 -289 q -79 -206 -53 -242 q -106 -132 -106 -169 q -89 -82 -106 -100 q -46 -64 -72 -64 q 53 -99 0 -64 q 153 -194 106 -133 l 132 -192 q 97 181 108 3 q 85 501 85 360 q 106 695 85 631 q 178 760 128 760 q 268 671 235 760 q 301 371 301 582 q 296 180 301 278 q 280 -6 290 82 q 251 -153 269 -93 q 191 -257 229 -225 q 92 -289 153 -289 m 156 875 q 84 895 111 875 q 57 957 57 915 q 90 1037 57 1004 q 182 1069 122 1069 q 258 1045 232 1069 q 285 981 285 1021 q 249 903 285 931 q 156 875 213 875 z "},"ȷ":{"ha":386,"x_min":-106,"x_max":301,"o":"m 92 -289 q -8 -265 36 -289 q -79 -206 -53 -242 q -106 -132 -106 -169 q -89 -82 -106 -100 q -46 -64 -72 -64 q 53 -99 0 -64 q 153 -194 106 -133 l 132 -192 q 97 181 108 3 q 85 501 85 360 q 106 695 85 631 q 178 760 128 760 q 268 671 235 760 q 301 371 301 582 q 296 180 301 278 q 280 -6 290 82 q 251 -153 269 -93 q 191 -257 229 -225 q 92 -289 153 -289 z "},"k":{"ha":833,"x_min":85,"x_max":806,"o":"m 179 -14 q 136 2 153 -14 q 113 49 119 18 q 93 197 101 100 q 85 413 85 294 q 95 693 85 558 q 122 914 106 828 q 167 1051 140 1007 q 236 1094 193 1094 q 296 1059 275 1094 q 317 938 317 1024 q 310 753 317 851 q 290 542 304 654 l 296 542 q 465 738 386 664 q 609 844 543 811 q 726 878 675 878 q 786 853 767 878 q 806 792 806 828 q 692 633 806 721 q 367 454 579 546 l 368 476 q 595 334 500 408 q 741 194 690 260 q 792 83 792 128 q 769 24 792 47 q 703 1 746 1 q 583 42 649 1 q 446 165 517 83 q 304 371 375 247 l 299 371 q 288 201 297 283 q 265 65 279 118 q 235 8 256 29 q 179 -14 215 -14 z "},"ķ":{"ha":833,"x_min":85,"x_max":806,"o":"m 179 -14 q 136 2 153 -14 q 113 49 119 18 q 93 197 101 100 q 85 413 85 294 q 95 693 85 558 q 122 914 106 828 q 167 1051 140 1007 q 236 1094 193 1094 q 296 1059 275 1094 q 317 938 317 1024 q 310 753 317 851 q 290 542 304 654 l 296 542 q 465 738 386 664 q 609 844 543 811 q 726 878 675 878 q 786 853 767 878 q 806 792 806 828 q 692 633 806 721 q 367 454 579 546 l 368 476 q 595 334 500 408 q 741 194 690 260 q 792 83 792 128 q 769 24 792 47 q 703 1 746 1 q 583 42 649 1 q 446 165 517 83 q 304 371 375 247 l 299 371 q 288 201 297 283 q 265 65 279 118 q 235 8 256 29 q 179 -14 215 -14 m 393 -244 q 301 -221 328 -244 q 275 -153 275 -197 q 285 -104 275 -128 q 322 -65 296 -81 q 392 -50 347 -50 q 474 -77 443 -50 q 506 -164 506 -104 q 488 -235 506 -196 q 443 -306 471 -274 q 399 -346 421 -332 q 356 -360 376 -360 q 332 -353 342 -360 q 322 -335 322 -347 q 334 -297 322 -321 q 385 -231 346 -272 l 393 -244 z "},"l":{"ha":475,"x_min":85,"x_max":433,"o":"m 235 -3 q 167 17 192 -3 q 126 85 142 38 q 95 260 106 154 q 85 522 85 367 q 92 715 85 618 q 113 891 100 811 q 139 1015 125 971 q 175 1081 154 1063 q 222 1099 196 1099 q 267 1080 250 1099 q 293 1014 283 1061 q 306 901 301 968 q 311 758 311 835 q 301 539 311 654 q 276 313 292 424 q 238 108 260 201 l 199 128 q 281 197 235 172 q 367 222 328 222 q 416 205 399 222 q 433 151 433 188 q 402 79 433 115 q 325 20 371 43 q 235 -3 279 -3 z "},"ĺ":{"ha":475,"x_min":85,"x_max":486,"o":"m 235 -3 q 167 17 192 -3 q 126 85 142 38 q 95 260 106 154 q 85 522 85 367 q 92 715 85 618 q 113 891 100 811 q 139 1015 125 971 q 175 1081 154 1063 q 222 1099 196 1099 q 267 1080 250 1099 q 293 1014 283 1061 q 306 901 301 968 q 311 758 311 835 q 301 539 311 654 q 276 313 292 424 q 238 108 260 201 l 199 128 q 281 197 235 172 q 367 222 328 222 q 416 205 399 222 q 433 151 433 188 q 402 79 433 115 q 325 20 371 43 q 235 -3 279 -3 m 122 1174 q 151 1224 122 1196 q 228 1286 181 1251 q 317 1344 275 1319 q 392 1368 360 1368 q 440 1352 419 1368 q 474 1314 461 1336 q 486 1272 486 1292 q 460 1228 486 1246 q 383 1192 435 1210 q 299 1167 343 1178 q 216 1149 254 1156 q 153 1143 178 1143 q 131 1152 139 1143 q 122 1174 122 1161 z "},"ľ":{"ha":475,"x_min":85,"x_max":607,"o":"m 235 -3 q 167 17 192 -3 q 126 85 142 38 q 95 260 106 154 q 85 522 85 367 q 92 715 85 618 q 113 891 100 811 q 139 1015 125 971 q 175 1081 154 1063 q 222 1099 196 1099 q 267 1080 250 1099 q 293 1014 283 1061 q 306 901 301 968 q 311 758 311 835 q 301 539 311 654 q 276 313 292 424 q 238 108 260 201 l 199 128 q 281 197 235 172 q 367 222 328 222 q 416 205 399 222 q 433 151 433 188 q 402 79 433 115 q 325 20 371 43 q 235 -3 279 -3 m 396 839 q 378 893 379 853 q 386 989 376 933 q 404 1075 396 1035 q 435 1138 413 1115 q 481 1162 453 1160 q 539 1156 510 1164 q 585 1133 568 1147 q 606 1088 607 1115 q 582 1017 604 1061 q 544 952 565 985 q 503 892 522 919 q 468 846 483 864 q 433 828 456 831 q 396 839 411 826 z "},"ļ":{"ha":475,"x_min":85,"x_max":433,"o":"m 235 -3 q 167 17 192 -3 q 126 85 142 38 q 95 260 106 154 q 85 522 85 367 q 92 715 85 618 q 113 891 100 811 q 139 1015 125 971 q 175 1081 154 1063 q 222 1099 196 1099 q 267 1080 250 1099 q 293 1014 283 1061 q 306 901 301 968 q 311 758 311 835 q 301 539 311 654 q 276 313 292 424 q 238 108 260 201 l 199 128 q 281 197 235 172 q 367 222 328 222 q 416 205 399 222 q 433 151 433 188 q 402 79 433 115 q 325 20 371 43 q 235 -3 279 -3 m 243 -244 q 151 -221 178 -244 q 125 -153 125 -197 q 135 -104 125 -128 q 172 -65 146 -81 q 242 -50 197 -50 q 324 -77 293 -50 q 356 -164 356 -104 q 338 -235 356 -196 q 293 -306 321 -274 q 249 -346 271 -332 q 206 -360 226 -360 q 182 -353 192 -360 q 172 -335 172 -347 q 184 -297 172 -321 q 235 -231 196 -272 l 243 -244 z "},"ł":{"ha":465,"x_min":-43,"x_max":539,"o":"m 76 318 q 14 285 39 288 q -28 303 -11 283 q -40 348 -43 322 q 0 415 -36 374 q 83 503 33 453 q 188 607 132 553 q 301 713 244 661 q 406 806 357 765 q 476 844 449 842 q 521 825 503 846 q 534 778 539 804 q 497 715 529 751 q 426 642 468 683 q 336 555 383 600 q 241 465 289 510 q 150 382 193 419 q 76 318 107 344 m 271 -3 q 203 17 228 -3 q 163 85 178 38 q 131 260 142 154 q 121 522 121 367 q 128 715 121 618 q 149 891 136 811 q 175 1015 161 971 q 211 1081 190 1063 q 258 1099 232 1099 q 303 1080 286 1099 q 329 1014 319 1061 q 342 901 338 968 q 347 758 347 835 q 338 539 347 654 q 312 313 328 424 q 274 108 296 201 l 235 128 q 317 197 271 172 q 403 222 364 222 q 452 205 435 222 q 469 151 469 188 q 438 79 469 115 q 361 20 407 43 q 271 -3 315 -3 z "},"m":{"ha":1264,"x_min":85,"x_max":1179,"o":"m 683 636 q 733 739 697 693 q 819 812 768 785 q 931 839 869 839 q 1058 804 1003 839 q 1147 690 1114 769 q 1179 479 1179 611 q 1174 342 1179 411 q 1160 213 1168 272 q 1142 113 1151 153 q 1099 28 1128 57 q 1028 -1 1071 -1 q 971 31 992 -1 q 950 122 950 63 q 957 194 950 150 q 972 290 964 238 q 988 396 981 342 q 994 499 994 450 q 965 610 994 571 q 883 650 936 650 q 787 590 825 650 q 742 414 749 529 q 732 231 736 311 q 711 100 728 151 q 680 46 700 64 q 626 28 660 28 q 567 56 589 28 q 543 143 546 83 q 542 261 540 193 q 544 397 543 329 q 542 508 544 464 q 510 639 536 597 q 433 681 485 681 q 338 625 374 681 q 294 471 303 569 q 292 372 292 431 q 294 254 293 313 q 293 157 296 196 q 267 38 292 74 q 200 1 243 1 q 126 35 149 1 q 96 142 103 68 q 88 272 90 207 q 85 400 85 336 q 88 542 85 465 q 99 686 92 618 q 128 803 107 756 q 197 850 149 850 q 254 810 238 850 q 271 689 271 771 q 267 638 271 661 l 263 665 q 351 806 290 756 q 488 857 413 857 q 642 794 586 857 q 703 619 697 731 l 683 636 z "},"n":{"ha":885,"x_min":85,"x_max":800,"o":"m 226 864 q 287 828 271 864 q 303 721 303 792 q 301 685 303 704 q 294 651 299 667 l 292 679 q 394 820 325 769 q 542 871 464 871 q 685 822 628 871 q 772 686 743 774 q 800 479 800 599 q 794 334 800 406 q 777 203 788 263 q 754 107 767 144 q 711 37 738 60 q 649 14 685 14 q 593 40 613 14 q 574 111 574 67 q 581 226 574 158 q 594 363 588 293 q 600 490 600 433 q 472 685 600 685 q 358 624 404 685 q 297 453 313 564 q 293 360 293 415 q 294 249 293 304 q 290 157 294 194 q 259 38 285 74 q 189 1 233 1 q 111 49 138 1 q 85 211 85 97 q 88 342 85 269 q 95 487 90 414 q 107 619 100 560 q 147 798 121 732 q 226 864 174 864 z "},"ń":{"ha":885,"x_min":85,"x_max":800,"o":"m 226 864 q 287 828 271 864 q 303 721 303 792 q 301 685 303 704 q 294 651 299 667 l 292 679 q 394 820 325 769 q 542 871 464 871 q 685 822 628 871 q 772 686 743 774 q 800 479 800 599 q 794 334 800 406 q 777 203 788 263 q 754 107 767 144 q 711 37 738 60 q 649 14 685 14 q 593 40 613 14 q 574 111 574 67 q 581 226 574 158 q 594 363 588 293 q 600 490 600 433 q 472 685 600 685 q 358 624 404 685 q 297 453 313 564 q 293 360 293 415 q 294 249 293 304 q 290 157 294 194 q 259 38 285 74 q 189 1 233 1 q 111 49 138 1 q 85 211 85 97 q 88 342 85 269 q 95 487 90 414 q 107 619 100 560 q 147 798 121 732 q 226 864 174 864 m 322 931 q 351 981 322 953 q 428 1043 381 1008 q 517 1101 475 1076 q 592 1125 560 1125 q 640 1109 619 1125 q 674 1071 661 1093 q 686 1029 686 1049 q 660 985 686 1003 q 583 949 635 967 q 499 924 543 935 q 416 906 454 913 q 353 900 378 900 q 331 909 339 900 q 322 931 322 918 z "},"ň":{"ha":885,"x_min":85,"x_max":800,"o":"m 226 864 q 287 828 271 864 q 303 721 303 792 q 301 685 303 704 q 294 651 299 667 l 292 679 q 394 820 325 769 q 542 871 464 871 q 685 822 628 871 q 772 686 743 774 q 800 479 800 599 q 794 334 800 406 q 777 203 788 263 q 754 107 767 144 q 711 37 738 60 q 649 14 685 14 q 593 40 613 14 q 574 111 574 67 q 581 226 574 158 q 594 363 588 293 q 600 490 600 433 q 472 685 600 685 q 358 624 404 685 q 297 453 313 564 q 293 360 293 415 q 294 249 293 304 q 290 157 294 194 q 259 38 285 74 q 189 1 233 1 q 111 49 138 1 q 85 211 85 97 q 88 342 85 269 q 95 487 90 414 q 107 619 100 560 q 147 798 121 732 q 226 864 174 864 m 446 918 q 381 936 417 918 q 304 981 344 954 q 236 1040 261 1011 q 211 1101 211 1069 q 226 1137 211 1124 q 264 1150 242 1150 q 349 1111 301 1150 q 444 986 396 1072 l 424 990 q 505 1102 458 1061 q 596 1143 551 1143 q 649 1126 628 1143 q 671 1078 671 1108 q 647 1018 671 1043 q 581 967 624 993 q 506 931 544 944 q 446 918 468 918 z "},"ņ":{"ha":885,"x_min":85,"x_max":800,"o":"m 226 864 q 287 828 271 864 q 303 721 303 792 q 301 685 303 704 q 294 651 299 667 l 292 679 q 394 820 325 769 q 542 871 464 871 q 685 822 628 871 q 772 686 743 774 q 800 479 800 599 q 794 334 800 406 q 777 203 788 263 q 754 107 767 144 q 711 37 738 60 q 649 14 685 14 q 593 40 613 14 q 574 111 574 67 q 581 226 574 158 q 594 363 588 293 q 600 490 600 433 q 472 685 600 685 q 358 624 404 685 q 297 453 313 564 q 293 360 293 415 q 294 249 293 304 q 290 157 294 194 q 259 38 285 74 q 189 1 233 1 q 111 49 138 1 q 85 211 85 97 q 88 342 85 269 q 95 487 90 414 q 107 619 100 560 q 147 798 121 732 q 226 864 174 864 m 443 -244 q 351 -221 378 -244 q 325 -153 325 -197 q 335 -104 325 -128 q 372 -65 346 -81 q 442 -50 397 -50 q 524 -77 493 -50 q 556 -164 556 -104 q 538 -235 556 -196 q 493 -306 521 -274 q 449 -346 471 -332 q 406 -360 426 -360 q 382 -353 392 -360 q 372 -335 372 -347 q 384 -297 372 -321 q 435 -231 396 -272 l 443 -244 z "},"ñ":{"ha":885,"x_min":85,"x_max":800,"o":"m 226 864 q 287 828 271 864 q 303 721 303 792 q 301 685 303 704 q 294 651 299 667 l 292 679 q 394 820 325 769 q 542 871 464 871 q 685 822 628 871 q 772 686 743 774 q 800 479 800 599 q 794 334 800 406 q 777 203 788 263 q 754 107 767 144 q 711 37 738 60 q 649 14 685 14 q 593 40 613 14 q 574 111 574 67 q 581 226 574 158 q 594 363 588 293 q 600 490 600 433 q 472 685 600 685 q 358 624 404 685 q 297 453 313 564 q 293 360 293 415 q 294 249 293 304 q 290 157 294 194 q 259 38 285 74 q 189 1 233 1 q 111 49 138 1 q 85 211 85 97 q 88 342 85 269 q 95 487 90 414 q 107 619 100 560 q 147 798 121 732 q 226 864 174 864 m 363 1110 q 447 1086 410 1110 q 521 1029 485 1063 q 537 1022 531 1021 q 546 1032 543 1022 q 579 1107 561 1083 q 632 1131 597 1131 q 683 1071 683 1131 q 668 1001 683 1040 q 620 931 653 961 q 536 901 588 901 q 450 930 488 901 q 374 1006 413 958 q 357 1017 364 1018 q 344 994 350 1015 q 313 916 332 940 q 256 892 293 892 q 213 911 229 892 q 197 957 197 931 q 219 1031 197 996 q 278 1088 240 1065 q 363 1110 315 1110 z "},"ŋ":{"ha":885,"x_min":85,"x_max":800,"o":"m 564 -289 q 457 -265 501 -289 q 390 -206 413 -242 q 367 -132 367 -169 q 383 -82 367 -100 q 426 -64 400 -64 q 511 -90 467 -64 q 599 -162 556 -115 q 581 -77 588 -121 q 574 14 575 -33 q 574 111 572 61 q 583 226 576 158 q 594 363 589 293 q 600 490 600 433 q 472 685 600 685 q 358 624 404 685 q 297 453 313 564 q 293 360 293 415 q 294 249 293 304 q 290 157 294 194 q 259 38 285 74 q 189 1 233 1 q 111 49 138 1 q 85 211 85 97 q 88 342 85 269 q 95 487 90 414 q 107 619 100 560 q 147 798 121 732 q 226 864 174 864 q 288 828 271 864 q 303 721 306 792 l 303 706 q 404 827 339 783 q 542 871 469 871 q 685 822 628 871 q 772 686 743 774 q 800 479 800 599 q 797 365 800 438 q 786 206 794 293 q 762 33 778 119 q 719 -127 746 -54 q 655 -244 693 -200 q 564 -289 617 -289 z "},"o":{"ha":874,"x_min":56,"x_max":818,"o":"m 422 -4 q 228 45 311 -4 q 101 186 146 94 q 56 404 56 278 q 101 635 56 536 q 231 789 147 733 q 426 844 315 844 q 633 791 546 844 q 769 642 721 738 q 818 418 818 546 q 769 193 818 288 q 632 47 721 99 q 422 -4 543 -4 m 442 183 q 578 252 528 183 q 629 435 629 321 q 578 618 629 550 q 442 686 528 686 q 301 618 353 686 q 250 435 250 550 q 301 252 250 321 q 442 183 353 183 z "},"ó":{"ha":874,"x_min":56,"x_max":818,"o":"m 422 -4 q 228 45 311 -4 q 101 186 146 94 q 56 404 56 278 q 101 635 56 536 q 231 789 147 733 q 426 844 315 844 q 633 791 546 844 q 769 642 721 738 q 818 418 818 546 q 769 193 818 288 q 632 47 721 99 q 422 -4 543 -4 m 442 183 q 578 252 528 183 q 629 435 629 321 q 578 618 629 550 q 442 686 528 686 q 301 618 353 686 q 250 435 250 550 q 301 252 250 321 q 442 183 353 183 m 318 907 q 347 957 318 929 q 424 1019 376 985 q 513 1077 471 1053 q 588 1101 556 1101 q 636 1085 615 1101 q 669 1047 657 1069 q 682 1006 682 1025 q 656 961 682 979 q 579 925 631 943 q 494 900 539 911 q 412 883 450 889 q 349 876 374 876 q 326 885 335 876 q 318 907 318 894 z "},"ô":{"ha":874,"x_min":56,"x_max":818,"o":"m 422 -4 q 228 45 311 -4 q 101 186 146 94 q 56 404 56 278 q 101 635 56 536 q 231 789 147 733 q 426 844 315 844 q 633 791 546 844 q 769 642 721 738 q 818 418 818 546 q 769 193 818 288 q 632 47 721 99 q 422 -4 543 -4 m 442 183 q 578 252 528 183 q 629 435 629 321 q 578 618 629 550 q 442 686 528 686 q 301 618 353 686 q 250 435 250 550 q 301 252 250 321 q 442 183 353 183 m 442 1113 q 502 1099 464 1113 q 576 1064 540 1086 q 643 1013 619 1038 q 667 953 667 988 q 645 905 667 922 q 592 888 624 888 q 501 928 547 888 q 419 1040 454 969 l 440 1044 q 344 919 392 958 q 260 881 297 881 q 222 894 238 881 q 207 929 207 907 q 232 990 207 961 q 300 1050 257 1019 q 376 1095 340 1078 q 442 1113 413 1113 z "},"ö":{"ha":874,"x_min":56,"x_max":818,"o":"m 422 -4 q 228 45 311 -4 q 101 186 146 94 q 56 404 56 278 q 101 635 56 536 q 231 789 147 733 q 426 844 315 844 q 633 791 546 844 q 769 642 721 738 q 818 418 818 546 q 769 193 818 288 q 632 47 721 99 q 422 -4 543 -4 m 442 183 q 578 252 528 183 q 629 435 629 321 q 578 618 629 550 q 442 686 528 686 q 301 618 353 686 q 250 435 250 550 q 301 252 250 321 q 442 183 353 183 m 272 892 q 190 919 217 892 q 164 985 164 947 q 199 1063 164 1036 q 296 1090 233 1090 q 376 1060 350 1090 q 403 989 403 1031 q 366 917 403 942 q 272 892 329 892 m 596 1104 q 681 1074 654 1104 q 707 1003 707 1043 q 675 925 707 951 q 582 899 643 899 q 497 928 525 899 q 469 999 469 957 q 504 1077 469 1050 q 596 1104 539 1104 z "},"ò":{"ha":874,"x_min":56,"x_max":818,"o":"m 422 -4 q 228 45 311 -4 q 101 186 146 94 q 56 404 56 278 q 101 635 56 536 q 231 789 147 733 q 426 844 315 844 q 633 791 546 844 q 769 642 721 738 q 818 418 818 546 q 769 193 818 288 q 632 47 721 99 q 422 -4 543 -4 m 442 183 q 578 252 528 183 q 629 435 629 321 q 578 618 629 550 q 442 686 528 686 q 301 618 353 686 q 250 435 250 550 q 301 252 250 321 q 442 183 353 183 m 554 907 q 547 885 554 894 q 524 876 539 876 q 460 883 499 876 q 378 900 422 889 q 293 925 335 911 q 216 961 242 943 q 190 1006 190 979 q 203 1047 190 1025 q 237 1085 215 1069 q 285 1101 258 1101 q 359 1077 317 1101 q 449 1019 401 1053 q 526 957 497 985 q 554 907 554 929 z "},"ő":{"ha":874,"x_min":56,"x_max":818,"o":"m 422 -4 q 228 45 311 -4 q 101 186 146 94 q 56 404 56 278 q 101 635 56 536 q 231 789 147 733 q 426 844 315 844 q 633 791 546 844 q 769 642 721 738 q 818 418 818 546 q 769 193 818 288 q 632 47 721 99 q 422 -4 543 -4 m 442 183 q 578 252 528 183 q 629 435 629 321 q 578 618 629 550 q 442 686 528 686 q 301 618 353 686 q 250 435 250 550 q 301 252 250 321 q 442 183 353 183 m 536 879 q 510 889 522 879 q 499 914 499 899 q 511 960 499 932 q 544 1022 524 988 q 576 1071 558 1043 q 617 1119 594 1099 q 667 1140 639 1140 q 710 1129 688 1140 q 749 1101 733 1118 q 764 1067 764 1083 q 713 994 764 1040 q 662 953 690 974 q 606 915 633 932 q 561 886 579 897 q 549 881 556 883 q 536 879 543 879 m 269 879 q 244 888 256 879 q 232 913 232 897 q 244 959 232 932 q 279 1021 257 986 q 317 1078 299 1051 q 355 1122 335 1106 q 401 1139 375 1139 q 444 1128 422 1139 q 482 1100 467 1117 q 497 1067 497 1083 q 449 993 497 1038 q 393 951 424 972 q 335 912 363 929 q 289 886 307 894 q 278 881 283 883 q 269 879 272 879 z "},"ō":{"ha":874,"x_min":56,"x_max":818,"o":"m 422 -4 q 228 45 311 -4 q 101 186 146 94 q 56 404 56 278 q 101 635 56 536 q 231 789 147 733 q 426 844 315 844 q 633 791 546 844 q 769 642 721 738 q 818 418 818 546 q 769 193 818 288 q 632 47 721 99 q 422 -4 543 -4 m 442 183 q 578 252 528 183 q 629 435 629 321 q 578 618 629 550 q 442 686 528 686 q 301 618 353 686 q 250 435 250 550 q 301 252 250 321 q 442 183 353 183 m 278 892 q 198 912 224 892 q 172 964 172 932 q 195 1013 172 996 q 272 1044 218 1031 q 370 1060 317 1054 q 478 1068 424 1065 q 576 1071 532 1071 q 672 1051 643 1071 q 700 1000 700 1032 q 676 944 700 965 q 607 915 653 924 q 503 903 564 908 q 382 894 442 897 q 278 892 322 892 z "},"ø":{"ha":874,"x_min":56,"x_max":818,"o":"m 422 -4 q 228 45 311 -4 q 101 186 146 94 q 56 404 56 278 q 101 635 56 536 q 231 789 147 733 q 426 844 315 844 q 633 791 546 844 q 769 642 721 738 q 818 418 818 546 q 769 193 818 288 q 632 47 721 99 q 422 -4 543 -4 m 442 183 q 578 252 528 183 q 629 435 629 321 q 578 618 629 550 q 442 686 528 686 q 301 618 353 686 q 250 435 250 550 q 301 252 250 321 q 442 183 353 183 m 165 65 q 232 195 192 118 q 321 360 272 272 q 419 537 369 449 q 515 703 469 625 q 594 838 560 782 q 649 897 625 885 q 696 897 674 908 q 723 858 719 888 q 699 775 726 829 q 599 581 656 686 q 483 370 543 476 q 369 172 424 264 q 274 17 314 79 q 213 -49 239 -37 q 167 -50 188 -60 q 142 -12 144 -39 q 165 65 140 14 z "},"õ":{"ha":874,"x_min":56,"x_max":818,"o":"m 422 -4 q 228 45 311 -4 q 101 186 146 94 q 56 404 56 278 q 101 635 56 536 q 231 789 147 733 q 426 844 315 844 q 633 791 546 844 q 769 642 721 738 q 818 418 818 546 q 769 193 818 288 q 632 47 721 99 q 422 -4 543 -4 m 442 183 q 578 252 528 183 q 629 435 629 321 q 578 618 629 550 q 442 686 528 686 q 301 618 353 686 q 250 435 250 550 q 301 252 250 321 q 442 183 353 183 m 358 1086 q 443 1063 406 1086 q 517 1006 481 1039 q 533 998 526 997 q 542 1008 539 999 q 575 1083 557 1060 q 628 1107 593 1107 q 679 1047 679 1107 q 664 977 679 1017 q 616 908 649 938 q 532 878 583 878 q 446 906 483 878 q 369 982 408 935 q 353 993 360 994 q 340 971 346 992 q 308 892 328 917 q 251 868 289 868 q 209 888 225 868 q 193 933 193 907 q 215 1007 193 972 q 274 1064 236 1042 q 358 1086 311 1086 z "},"œ":{"ha":1429,"x_min":56,"x_max":1392,"o":"m 422 -4 q 228 45 311 -4 q 101 186 146 94 q 56 404 56 278 q 101 635 56 536 q 231 789 147 733 q 426 844 315 844 q 626 791 542 844 q 758 642 711 738 q 804 418 804 546 q 757 193 804 288 q 624 47 710 99 q 422 -4 539 -4 m 442 183 q 578 252 528 183 q 629 435 629 321 q 578 618 629 550 q 442 686 528 686 q 301 618 353 686 q 250 435 250 550 q 301 252 250 321 q 442 183 353 183 m 1056 -11 q 810 35 903 -11 q 678 167 718 81 q 638 372 638 253 q 690 630 638 524 q 836 793 743 736 q 1047 850 929 850 q 1265 781 1196 850 q 1335 601 1335 713 q 1292 448 1335 513 q 1173 349 1249 383 q 999 314 1097 314 q 883 329 939 314 q 783 371 828 344 l 817 432 q 813 365 813 399 q 874 226 813 268 q 1047 183 935 183 q 1174 199 1126 183 q 1256 228 1222 214 q 1319 243 1289 243 q 1355 233 1339 243 q 1381 203 1371 222 q 1392 156 1392 183 q 1353 76 1392 114 q 1240 13 1314 38 q 1056 -11 1165 -11 m 975 443 q 1113 485 1061 443 q 1165 588 1165 526 q 1133 667 1165 636 q 1031 699 1100 699 q 928 674 974 699 q 856 611 882 650 q 831 526 831 572 q 869 465 831 486 q 975 443 907 443 z "},"p":{"ha":853,"x_min":85,"x_max":797,"o":"m 179 861 q 242 817 217 861 q 276 679 267 774 l 247 653 q 340 801 272 750 q 501 853 408 853 q 654 808 588 853 q 759 674 721 764 q 797 450 797 585 q 719 128 797 232 q 506 25 640 25 q 353 67 408 25 q 275 168 297 108 l 292 176 q 310 12 303 93 q 318 -131 318 -69 q 296 -236 318 -193 q 225 -279 274 -279 q 154 -243 178 -279 q 119 -147 131 -207 q 103 10 111 -86 q 90 217 94 106 q 85 433 85 328 q 92 637 85 542 q 111 792 100 732 q 137 844 121 826 q 179 861 153 861 m 444 693 q 324 619 369 693 q 279 429 279 544 q 324 253 279 311 q 442 194 369 194 q 562 260 525 194 q 599 432 599 326 q 553 630 599 567 q 444 693 507 693 z "},"þ":{"ha":853,"x_min":85,"x_max":797,"o":"m 225 -279 q 154 -243 178 -279 q 119 -147 131 -207 q 103 10 111 -86 q 90 217 94 106 q 85 433 85 328 q 92 669 85 557 q 113 870 100 781 q 136 1014 125 960 q 169 1090 147 1069 q 221 1111 190 1111 q 274 1083 253 1111 q 296 985 296 1056 q 292 887 296 942 q 281 775 288 832 q 264 668 274 718 l 247 653 q 340 801 272 750 q 501 853 408 853 q 654 808 588 853 q 759 674 721 764 q 797 450 797 585 q 719 128 797 232 q 506 25 640 25 q 353 67 408 25 q 275 168 297 108 l 292 176 q 310 12 303 93 q 318 -131 318 -69 q 296 -236 318 -193 q 225 -279 274 -279 m 442 194 q 562 260 525 194 q 599 432 599 326 q 553 630 599 567 q 444 693 507 693 q 324 619 369 693 q 279 429 279 544 q 324 253 279 311 q 442 194 369 194 z "},"q":{"ha":886,"x_min":56,"x_max":801,"o":"m 668 -272 q 608 -242 628 -272 q 589 -162 589 -211 q 592 -57 589 -115 q 602 63 596 1 q 617 176 608 124 l 626 175 q 524 38 596 88 q 346 -12 453 -12 q 197 28 263 -12 q 94 156 132 69 q 56 378 56 242 q 95 649 56 546 q 202 799 135 751 q 353 846 269 846 q 490 806 431 846 q 588 681 549 767 l 576 675 q 595 818 576 769 q 658 867 614 867 q 727 834 703 867 q 765 740 751 801 q 785 613 778 693 q 797 435 793 533 q 801 235 801 338 q 797 28 801 125 q 781 -137 792 -69 q 742 -237 769 -201 q 668 -272 715 -272 m 417 144 q 506 176 464 144 q 574 267 547 207 q 600 413 600 328 q 548 607 600 535 q 414 679 496 679 q 292 613 333 679 q 251 393 251 547 q 296 204 251 264 q 417 144 340 144 z "},"r":{"ha":661,"x_min":85,"x_max":622,"o":"m 85 626 q 110 819 85 760 q 181 878 135 878 q 238 848 217 878 q 268 774 258 818 q 278 686 278 731 l 271 689 q 344 818 294 764 q 463 872 393 872 q 583 805 544 872 q 622 638 622 738 q 592 451 622 504 q 510 399 561 399 q 455 429 472 399 q 443 538 438 460 q 433 651 449 619 q 385 683 418 683 q 319 633 344 683 q 293 508 293 582 q 300 435 293 479 q 315 338 307 390 q 331 235 324 286 q 338 140 338 183 q 314 31 338 64 q 247 -3 290 -3 q 172 28 199 -3 q 132 131 146 60 q 110 282 121 194 q 92 461 99 369 q 85 626 85 553 z "},"ŕ":{"ha":661,"x_min":85,"x_max":622,"o":"m 85 626 q 110 819 85 760 q 181 878 135 878 q 238 848 217 878 q 268 774 258 818 q 278 686 278 731 l 271 689 q 344 818 294 764 q 463 872 393 872 q 583 805 544 872 q 622 638 622 738 q 592 451 622 504 q 510 399 561 399 q 455 429 472 399 q 443 538 438 460 q 433 651 449 619 q 385 683 418 683 q 319 633 344 683 q 293 508 293 582 q 300 435 293 479 q 315 338 307 390 q 331 235 324 286 q 338 140 338 183 q 314 31 338 64 q 247 -3 290 -3 q 172 28 199 -3 q 132 131 146 60 q 110 282 121 194 q 92 461 99 369 q 85 626 85 553 m 215 924 q 244 974 215 946 q 321 1036 274 1001 q 410 1094 368 1069 q 485 1118 453 1118 q 533 1102 513 1118 q 567 1064 554 1086 q 579 1022 579 1042 q 553 978 579 996 q 476 942 528 960 q 392 917 436 928 q 309 899 347 906 q 246 893 271 893 q 224 902 232 893 q 215 924 215 911 z "},"ř":{"ha":661,"x_min":85,"x_max":622,"o":"m 85 626 q 110 819 85 760 q 181 878 135 878 q 238 848 217 878 q 268 774 258 818 q 278 686 278 731 l 271 689 q 344 818 294 764 q 463 872 393 872 q 583 805 544 872 q 622 638 622 738 q 592 451 622 504 q 510 399 561 399 q 455 429 472 399 q 443 538 438 460 q 433 651 449 619 q 385 683 418 683 q 319 633 344 683 q 293 508 293 582 q 300 435 293 479 q 315 338 307 390 q 331 235 324 286 q 338 140 338 183 q 314 31 338 64 q 247 -3 290 -3 q 172 28 199 -3 q 132 131 146 60 q 110 282 121 194 q 92 461 99 369 q 85 626 85 553 m 339 911 q 274 929 310 911 q 197 974 238 947 q 129 1033 154 1004 q 104 1094 104 1063 q 119 1130 104 1117 q 157 1143 135 1143 q 242 1104 194 1143 q 338 979 289 1065 l 317 983 q 398 1095 351 1054 q 489 1136 444 1136 q 542 1119 521 1136 q 564 1071 564 1101 q 540 1011 564 1036 q 474 960 517 986 q 399 924 438 938 q 339 911 361 911 z "},"ŗ":{"ha":661,"x_min":85,"x_max":622,"o":"m 85 626 q 110 819 85 760 q 181 878 135 878 q 238 848 217 878 q 268 774 258 818 q 278 686 278 731 l 271 689 q 344 818 294 764 q 463 872 393 872 q 583 805 544 872 q 622 638 622 738 q 592 451 622 504 q 510 399 561 399 q 455 429 472 399 q 443 538 438 460 q 433 651 449 619 q 385 683 418 683 q 319 633 344 683 q 293 508 293 582 q 300 435 293 479 q 315 338 307 390 q 331 235 324 286 q 338 140 338 183 q 314 31 338 64 q 247 -3 290 -3 q 172 28 199 -3 q 132 131 146 60 q 110 282 121 194 q 92 461 99 369 q 85 626 85 553 m 336 -244 q 244 -221 271 -244 q 218 -153 218 -197 q 228 -104 218 -128 q 265 -65 239 -81 q 335 -50 290 -50 q 417 -77 386 -50 q 449 -164 449 -104 q 431 -235 449 -196 q 386 -306 414 -274 q 342 -346 364 -332 q 299 -360 319 -360 q 275 -353 285 -360 q 265 -335 265 -347 q 277 -297 265 -321 q 328 -231 289 -272 l 336 -244 z "},"s":{"ha":742,"x_min":56,"x_max":686,"o":"m 436 869 q 614 833 560 869 q 668 740 668 797 q 645 685 668 707 q 581 664 622 664 q 491 676 538 664 q 383 689 444 689 q 278 661 313 689 q 243 590 243 633 q 274 527 243 550 q 394 493 306 504 q 558 458 493 482 q 654 385 622 433 q 686 254 686 338 q 593 58 686 122 q 336 -6 500 -6 q 171 11 232 -6 q 83 58 110 28 q 56 131 56 89 q 80 187 56 167 q 138 207 104 207 q 206 199 169 207 q 282 183 242 192 q 365 175 322 175 q 504 261 504 175 q 490 308 504 290 q 440 338 476 326 q 335 357 404 350 q 190 385 251 365 q 96 452 129 406 q 63 581 63 499 q 160 790 63 710 q 436 869 257 869 z "},"ś":{"ha":742,"x_min":56,"x_max":686,"o":"m 436 869 q 614 833 560 869 q 668 740 668 797 q 645 685 668 707 q 581 664 622 664 q 491 676 538 664 q 383 689 444 689 q 278 661 313 689 q 243 590 243 633 q 274 527 243 550 q 394 493 306 504 q 558 458 493 482 q 654 385 622 433 q 686 254 686 338 q 593 58 686 122 q 336 -6 500 -6 q 171 11 232 -6 q 83 58 110 28 q 56 131 56 89 q 80 187 56 167 q 138 207 104 207 q 206 199 169 207 q 282 183 242 192 q 365 175 322 175 q 504 261 504 175 q 490 308 504 290 q 440 338 476 326 q 335 357 404 350 q 190 385 251 365 q 96 452 129 406 q 63 581 63 499 q 160 790 63 710 q 436 869 257 869 m 253 924 q 282 974 253 946 q 358 1036 311 1001 q 448 1094 406 1069 q 522 1118 490 1118 q 571 1102 550 1118 q 604 1064 592 1086 q 617 1022 617 1042 q 591 978 617 996 q 514 942 565 960 q 429 917 474 928 q 347 899 385 906 q 283 893 308 893 q 261 902 269 893 q 253 924 253 911 z "},"š":{"ha":742,"x_min":56,"x_max":686,"o":"m 436 869 q 614 833 560 869 q 668 740 668 797 q 645 685 668 707 q 581 664 622 664 q 491 676 538 664 q 383 689 444 689 q 278 661 313 689 q 243 590 243 633 q 274 527 243 550 q 394 493 306 504 q 558 458 493 482 q 654 385 622 433 q 686 254 686 338 q 593 58 686 122 q 336 -6 500 -6 q 171 11 232 -6 q 83 58 110 28 q 56 131 56 89 q 80 187 56 167 q 138 207 104 207 q 206 199 169 207 q 282 183 242 192 q 365 175 322 175 q 504 261 504 175 q 490 308 504 290 q 440 338 476 326 q 335 357 404 350 q 190 385 251 365 q 96 452 129 406 q 63 581 63 499 q 160 790 63 710 q 436 869 257 869 m 376 911 q 311 929 347 911 q 235 974 275 947 q 167 1033 192 1004 q 142 1094 142 1063 q 157 1130 142 1117 q 194 1143 172 1143 q 279 1104 232 1143 q 375 979 326 1065 l 354 983 q 435 1095 389 1054 q 526 1136 482 1136 q 580 1119 558 1136 q 601 1071 601 1101 q 578 1011 601 1036 q 511 960 554 986 q 437 924 475 938 q 376 911 399 911 z "},"ş":{"ha":742,"x_min":56,"x_max":686,"o":"m 436 869 q 614 833 560 869 q 668 740 668 797 q 645 685 668 707 q 581 664 622 664 q 491 676 538 664 q 383 689 444 689 q 278 661 313 689 q 243 590 243 633 q 274 527 243 550 q 394 493 306 504 q 558 458 493 482 q 654 385 622 433 q 686 254 686 338 q 593 58 686 122 q 336 -6 500 -6 q 171 11 232 -6 q 83 58 110 28 q 56 131 56 89 q 80 187 56 167 q 138 207 104 207 q 206 199 169 207 q 282 183 242 192 q 365 175 322 175 q 504 261 504 175 q 490 308 504 290 q 440 338 476 326 q 335 357 404 350 q 190 385 251 365 q 96 452 129 406 q 63 581 63 499 q 160 790 63 710 q 436 869 257 869 m 324 -289 q 233 -232 233 -289 q 256 -188 233 -201 q 307 -169 278 -175 q 360 -162 332 -165 q 400 -156 389 -158 q 432 -144 419 -151 q 444 -122 444 -136 q 428 -99 444 -107 q 365 -85 411 -90 q 293 -64 319 -76 q 267 -25 267 -51 q 288 7 267 -1 q 339 15 308 15 q 439 -2 389 15 q 522 -53 489 -19 q 554 -135 554 -86 q 524 -211 554 -176 q 442 -267 494 -246 q 324 -289 390 -289 z "},"ș":{"ha":742,"x_min":56,"x_max":686,"o":"m 436 869 q 614 833 560 869 q 668 740 668 797 q 645 685 668 707 q 581 664 622 664 q 491 676 538 664 q 383 689 444 689 q 278 661 313 689 q 243 590 243 633 q 274 527 243 550 q 394 493 306 504 q 558 458 493 482 q 654 385 622 433 q 686 254 686 338 q 593 58 686 122 q 336 -6 500 -6 q 171 11 232 -6 q 83 58 110 28 q 56 131 56 89 q 80 187 56 167 q 138 207 104 207 q 206 199 169 207 q 282 183 242 192 q 365 175 322 175 q 504 261 504 175 q 490 308 504 290 q 440 338 476 326 q 335 357 404 350 q 190 385 251 365 q 96 452 129 406 q 63 581 63 499 q 160 790 63 710 q 436 869 257 869 m 374 -244 q 282 -221 308 -244 q 256 -153 256 -197 q 266 -104 256 -128 q 302 -65 276 -81 q 372 -50 328 -50 q 455 -77 424 -50 q 486 -164 486 -104 q 469 -235 486 -196 q 424 -306 451 -274 q 379 -346 401 -332 q 336 -360 357 -360 q 313 -353 322 -360 q 303 -335 303 -347 q 315 -297 303 -321 q 365 -231 326 -272 l 374 -244 z "},"ß":{"ha":872,"x_min":85,"x_max":817,"o":"m 631 742 q 590 824 631 793 q 478 854 549 854 q 331 800 378 854 q 285 635 285 746 q 287 509 285 582 q 292 356 289 436 q 297 202 294 276 q 302 71 300 128 q 304 -12 304 14 q 278 -103 304 -65 q 199 -140 251 -140 q 116 -103 147 -140 q 85 6 85 -65 q 87 135 85 60 q 92 296 89 211 q 100 463 94 381 q 111 614 106 546 q 228 906 126 811 q 497 1000 329 1000 q 652 971 585 1000 q 758 885 719 942 q 796 744 796 828 q 745 612 796 672 q 601 507 694 551 q 763 411 708 469 q 817 263 817 353 q 778 123 817 183 q 669 28 739 63 q 506 -6 599 -6 q 406 19 438 -6 q 374 78 374 43 q 408 139 374 121 q 503 168 443 157 q 603 208 574 181 q 633 279 633 236 q 607 340 633 315 q 519 389 581 364 q 456 425 475 407 q 436 481 436 443 q 456 531 436 508 q 504 576 475 554 q 563 622 533 597 q 611 675 592 646 q 631 742 631 704 z "},"t":{"ha":735,"x_min":28,"x_max":707,"o":"m 319 836 l 292 836 q 294 952 288 897 q 324 1041 301 1007 q 390 1075 347 1075 q 447 1050 429 1075 q 465 981 465 1025 q 432 831 465 893 l 407 833 q 576 860 482 860 q 672 837 636 860 q 707 760 707 814 q 665 682 707 708 q 561 656 624 656 q 481 659 524 656 q 399 671 439 663 l 422 700 q 447 580 435 647 q 468 440 458 513 q 483 300 478 368 q 489 178 489 232 q 461 38 489 89 q 379 -14 433 -14 q 312 13 336 -14 q 277 80 288 39 q 265 165 267 121 q 263 246 263 210 q 268 384 263 307 q 284 543 274 461 q 308 701 294 625 l 336 678 q 161 642 265 642 q 63 665 97 642 q 28 739 28 689 q 67 823 28 793 q 171 853 106 853 q 252 848 214 853 q 319 836 290 843 z "},"ť":{"ha":735,"x_min":28,"x_max":806,"o":"m 319 836 l 292 836 q 294 952 288 897 q 324 1041 301 1007 q 390 1075 347 1075 q 447 1050 429 1075 q 465 981 465 1025 q 432 831 465 893 l 407 833 q 576 860 482 860 q 672 837 636 860 q 707 760 707 814 q 665 682 707 708 q 561 656 624 656 q 481 659 524 656 q 399 671 439 663 l 422 700 q 447 580 435 647 q 468 440 458 513 q 483 300 478 368 q 489 178 489 232 q 461 38 489 89 q 379 -14 433 -14 q 312 13 336 -14 q 277 80 288 39 q 265 165 267 121 q 263 246 263 210 q 268 384 263 307 q 284 543 274 461 q 308 701 294 625 l 336 678 q 161 642 265 642 q 63 665 97 642 q 28 739 28 689 q 67 823 28 793 q 171 853 106 853 q 252 848 214 853 q 319 836 290 843 m 594 935 q 576 989 578 949 q 585 1085 575 1029 q 603 1171 594 1131 q 633 1233 611 1211 q 680 1258 651 1256 q 738 1251 708 1260 q 783 1229 767 1243 q 804 1184 806 1211 q 781 1113 803 1157 q 742 1048 764 1081 q 701 988 721 1015 q 667 942 682 960 q 632 924 654 926 q 594 935 610 922 z "},"ț":{"ha":735,"x_min":28,"x_max":707,"o":"m 319 836 l 292 836 q 294 952 288 897 q 324 1041 301 1007 q 390 1075 347 1075 q 447 1050 429 1075 q 465 981 465 1025 q 432 831 465 893 l 407 833 q 576 860 482 860 q 672 837 636 860 q 707 760 707 814 q 665 682 707 708 q 561 656 624 656 q 481 659 524 656 q 399 671 439 663 l 422 700 q 447 580 435 647 q 468 440 458 513 q 483 300 478 368 q 489 178 489 232 q 461 38 489 89 q 379 -14 433 -14 q 312 13 336 -14 q 277 80 288 39 q 265 165 267 121 q 263 246 263 210 q 268 384 263 307 q 284 543 274 461 q 308 701 294 625 l 336 678 q 161 642 265 642 q 63 665 97 642 q 28 739 28 689 q 67 823 28 793 q 171 853 106 853 q 252 848 214 853 q 319 836 290 843 m 371 -244 q 279 -221 306 -244 q 253 -153 253 -197 q 263 -104 253 -128 q 299 -65 274 -81 q 369 -50 325 -50 q 452 -77 421 -50 q 483 -164 483 -104 q 466 -235 483 -196 q 421 -306 449 -274 q 376 -346 399 -332 q 333 -360 354 -360 q 310 -353 319 -360 q 300 -335 300 -347 q 312 -297 300 -321 q 363 -231 324 -272 l 371 -244 z "},"u":{"ha":889,"x_min":85,"x_max":804,"o":"m 710 8 q 652 34 672 8 q 625 101 632 60 q 618 188 618 142 l 625 193 q 571 90 611 133 q 478 24 531 47 q 372 1 425 1 q 243 35 301 1 q 153 138 185 68 q 103 323 121 211 q 85 553 85 435 q 90 671 85 617 q 108 760 96 725 q 142 813 119 796 q 199 831 164 831 q 262 799 239 831 q 290 713 285 768 q 298 599 296 667 q 302 465 300 532 q 308 351 304 397 q 351 228 317 268 q 436 189 386 189 q 549 244 510 189 q 588 400 588 300 q 582 513 588 450 q 570 636 576 576 q 564 735 564 696 q 586 828 564 800 q 647 857 608 857 q 703 839 681 857 q 740 789 726 821 q 774 675 760 747 q 796 511 788 603 q 804 318 804 419 q 783 85 804 163 q 710 8 763 8 z "},"ú":{"ha":889,"x_min":85,"x_max":804,"o":"m 710 8 q 652 34 672 8 q 625 101 632 60 q 618 188 618 142 l 625 193 q 571 90 611 133 q 478 24 531 47 q 372 1 425 1 q 243 35 301 1 q 153 138 185 68 q 103 323 121 211 q 85 553 85 435 q 90 671 85 617 q 108 760 96 725 q 142 813 119 796 q 199 831 164 831 q 262 799 239 831 q 290 713 285 768 q 298 599 296 667 q 302 465 300 532 q 308 351 304 397 q 351 228 317 268 q 436 189 386 189 q 549 244 510 189 q 588 400 588 300 q 582 513 588 450 q 570 636 576 576 q 564 735 564 696 q 586 828 564 800 q 647 857 608 857 q 703 839 681 857 q 740 789 726 821 q 774 675 760 747 q 796 511 788 603 q 804 318 804 419 q 783 85 804 163 q 710 8 763 8 m 346 908 q 375 958 346 931 q 451 1021 404 986 q 541 1078 499 1054 q 615 1103 583 1103 q 664 1087 643 1103 q 697 1049 685 1071 q 710 1007 710 1026 q 684 963 710 981 q 607 926 658 944 q 522 901 567 913 q 440 884 478 890 q 376 878 401 878 q 354 887 363 878 q 346 908 346 896 z "},"ŭ":{"ha":889,"x_min":85,"x_max":804,"o":"m 710 8 q 652 34 672 8 q 625 101 632 60 q 618 188 618 142 l 625 193 q 571 90 611 133 q 478 24 531 47 q 372 1 425 1 q 243 35 301 1 q 153 138 185 68 q 103 323 121 211 q 85 553 85 435 q 90 671 85 617 q 108 760 96 725 q 142 813 119 796 q 199 831 164 831 q 262 799 239 831 q 290 713 285 768 q 298 599 296 667 q 302 465 300 532 q 308 351 304 397 q 351 228 317 268 q 436 189 386 189 q 549 244 510 189 q 588 400 588 300 q 582 513 588 450 q 570 636 576 576 q 564 735 564 696 q 586 828 564 800 q 647 857 608 857 q 703 839 681 857 q 740 789 726 821 q 774 675 760 747 q 796 511 788 603 q 804 318 804 419 q 783 85 804 163 q 710 8 763 8 m 464 879 q 315 931 368 879 q 261 1051 261 983 q 315 1108 261 1108 q 379 1056 368 1108 q 406 1002 388 1019 q 463 985 424 985 q 516 1000 499 985 q 542 1047 533 1015 q 567 1103 551 1083 q 613 1122 582 1122 q 653 1106 640 1122 q 667 1058 667 1089 q 643 970 667 1011 q 574 904 619 929 q 464 879 529 879 z "},"û":{"ha":889,"x_min":85,"x_max":804,"o":"m 710 8 q 652 34 672 8 q 625 101 632 60 q 618 188 618 142 l 625 193 q 571 90 611 133 q 478 24 531 47 q 372 1 425 1 q 243 35 301 1 q 153 138 185 68 q 103 323 121 211 q 85 553 85 435 q 90 671 85 617 q 108 760 96 725 q 142 813 119 796 q 199 831 164 831 q 262 799 239 831 q 290 713 285 768 q 298 599 296 667 q 302 465 300 532 q 308 351 304 397 q 351 228 317 268 q 436 189 386 189 q 549 244 510 189 q 588 400 588 300 q 582 513 588 450 q 570 636 576 576 q 564 735 564 696 q 586 828 564 800 q 647 857 608 857 q 703 839 681 857 q 740 789 726 821 q 774 675 760 747 q 796 511 788 603 q 804 318 804 419 q 783 85 804 163 q 710 8 763 8 m 469 1114 q 530 1101 492 1114 q 604 1065 568 1088 q 671 1014 647 1039 q 694 954 694 989 q 673 906 694 924 q 619 889 651 889 q 528 930 575 889 q 447 1042 482 971 l 468 1046 q 372 921 419 960 q 288 882 325 882 q 250 895 265 882 q 235 931 235 908 q 260 992 235 963 q 328 1051 285 1021 q 404 1097 368 1079 q 469 1114 440 1114 z "},"ü":{"ha":889,"x_min":85,"x_max":804,"o":"m 710 8 q 652 34 672 8 q 625 101 632 60 q 618 188 618 142 l 625 193 q 571 90 611 133 q 478 24 531 47 q 372 1 425 1 q 243 35 301 1 q 153 138 185 68 q 103 323 121 211 q 85 553 85 435 q 90 671 85 617 q 108 760 96 725 q 142 813 119 796 q 199 831 164 831 q 262 799 239 831 q 290 713 285 768 q 298 599 296 667 q 302 465 300 532 q 308 351 304 397 q 351 228 317 268 q 436 189 386 189 q 549 244 510 189 q 588 400 588 300 q 582 513 588 450 q 570 636 576 576 q 564 735 564 696 q 586 828 564 800 q 647 857 608 857 q 703 839 681 857 q 740 789 726 821 q 774 675 760 747 q 796 511 788 603 q 804 318 804 419 q 783 85 804 163 q 710 8 763 8 m 300 893 q 218 921 244 893 q 192 986 192 949 q 226 1065 192 1038 q 324 1092 261 1092 q 404 1062 378 1092 q 431 990 431 1032 q 394 918 431 943 q 300 893 357 893 m 624 1106 q 708 1075 682 1106 q 735 1004 735 1044 q 703 926 735 953 q 610 900 671 900 q 525 929 553 900 q 497 1000 497 958 q 532 1078 497 1051 q 624 1106 567 1106 z "},"ù":{"ha":889,"x_min":85,"x_max":804,"o":"m 710 8 q 652 34 672 8 q 625 101 632 60 q 618 188 618 142 l 625 193 q 571 90 611 133 q 478 24 531 47 q 372 1 425 1 q 243 35 301 1 q 153 138 185 68 q 103 323 121 211 q 85 553 85 435 q 90 671 85 617 q 108 760 96 725 q 142 813 119 796 q 199 831 164 831 q 262 799 239 831 q 290 713 285 768 q 298 599 296 667 q 302 465 300 532 q 308 351 304 397 q 351 228 317 268 q 436 189 386 189 q 549 244 510 189 q 588 400 588 300 q 582 513 588 450 q 570 636 576 576 q 564 735 564 696 q 586 828 564 800 q 647 857 608 857 q 703 839 681 857 q 740 789 726 821 q 774 675 760 747 q 796 511 788 603 q 804 318 804 419 q 783 85 804 163 q 710 8 763 8 m 582 908 q 574 887 582 896 q 551 878 567 878 q 488 884 526 878 q 406 901 450 890 q 321 926 363 913 q 244 963 269 944 q 218 1007 218 981 q 231 1049 218 1026 q 265 1087 243 1071 q 313 1103 286 1103 q 387 1078 344 1103 q 476 1021 429 1054 q 553 958 525 986 q 582 908 582 931 z "},"ű":{"ha":889,"x_min":85,"x_max":804,"o":"m 710 8 q 652 34 672 8 q 625 101 632 60 q 618 188 618 142 l 625 193 q 571 90 611 133 q 478 24 531 47 q 372 1 425 1 q 243 35 301 1 q 153 138 185 68 q 103 323 121 211 q 85 553 85 435 q 90 671 85 617 q 108 760 96 725 q 142 813 119 796 q 199 831 164 831 q 262 799 239 831 q 290 713 285 768 q 298 599 296 667 q 302 465 300 532 q 308 351 304 397 q 351 228 317 268 q 436 189 386 189 q 549 244 510 189 q 588 400 588 300 q 582 513 588 450 q 570 636 576 576 q 564 735 564 696 q 586 828 564 800 q 647 857 608 857 q 703 839 681 857 q 740 789 726 821 q 774 675 760 747 q 796 511 788 603 q 804 318 804 419 q 783 85 804 163 q 710 8 763 8 m 564 881 q 538 890 550 881 q 526 915 526 900 q 539 961 526 933 q 572 1024 551 989 q 604 1072 586 1044 q 644 1121 622 1100 q 694 1142 667 1142 q 738 1131 715 1142 q 776 1102 761 1119 q 792 1068 792 1085 q 740 996 792 1042 q 690 954 718 975 q 634 916 661 933 q 589 888 607 899 q 577 883 583 885 q 564 881 571 881 m 297 881 q 272 890 283 881 q 260 914 260 899 q 272 960 260 933 q 307 1022 285 988 q 344 1080 326 1053 q 383 1124 363 1107 q 429 1140 403 1140 q 472 1129 450 1140 q 510 1101 494 1118 q 525 1068 525 1085 q 476 994 525 1039 q 421 952 451 974 q 363 913 390 931 q 317 888 335 896 q 306 883 311 885 q 297 881 300 881 z "},"ū":{"ha":889,"x_min":85,"x_max":804,"o":"m 710 8 q 652 34 672 8 q 625 101 632 60 q 618 188 618 142 l 625 193 q 571 90 611 133 q 478 24 531 47 q 372 1 425 1 q 243 35 301 1 q 153 138 185 68 q 103 323 121 211 q 85 553 85 435 q 90 671 85 617 q 108 760 96 725 q 142 813 119 796 q 199 831 164 831 q 262 799 239 831 q 290 713 285 768 q 298 599 296 667 q 302 465 300 532 q 308 351 304 397 q 351 228 317 268 q 436 189 386 189 q 549 244 510 189 q 588 400 588 300 q 582 513 588 450 q 570 636 576 576 q 564 735 564 696 q 586 828 564 800 q 647 857 608 857 q 703 839 681 857 q 740 789 726 821 q 774 675 760 747 q 796 511 788 603 q 804 318 804 419 q 783 85 804 163 q 710 8 763 8 m 306 893 q 226 913 251 893 q 200 965 200 933 q 223 1015 200 997 q 300 1046 246 1032 q 398 1061 344 1056 q 506 1069 451 1067 q 604 1072 560 1072 q 699 1053 671 1072 q 728 1001 728 1033 q 704 946 728 967 q 635 917 681 925 q 531 904 592 910 q 410 896 469 899 q 306 893 350 893 z "},"ų":{"ha":889,"x_min":85,"x_max":804,"o":"m 710 8 q 652 34 672 8 q 625 101 632 60 q 618 188 618 142 l 625 193 q 571 90 611 133 q 478 24 531 47 q 372 1 425 1 q 243 35 301 1 q 153 138 185 68 q 103 323 121 211 q 85 553 85 435 q 90 671 85 617 q 108 760 96 725 q 142 813 119 796 q 199 831 164 831 q 262 799 239 831 q 290 713 285 768 q 298 599 296 667 q 302 465 300 532 q 308 351 304 397 q 351 228 317 268 q 436 189 386 189 q 549 244 510 189 q 588 400 588 300 q 582 513 588 450 q 570 636 576 576 q 564 735 564 696 q 586 828 564 800 q 647 857 608 857 q 703 839 681 857 q 740 789 726 821 q 774 675 760 747 q 796 511 788 603 q 804 318 804 419 q 783 85 804 163 q 710 8 763 8 m 656 -293 q 537 -261 583 -293 q 490 -167 490 -229 q 528 -63 490 -117 q 654 39 567 -10 l 763 42 q 641 -58 686 -6 q 596 -137 596 -110 q 613 -162 596 -156 q 657 -169 629 -169 q 690 -168 672 -169 q 728 -167 707 -167 q 769 -181 756 -167 q 782 -221 782 -196 q 749 -275 782 -257 q 656 -293 717 -293 z "},"ů":{"ha":889,"x_min":85,"x_max":804,"o":"m 710 8 q 652 34 672 8 q 625 101 632 60 q 618 188 618 142 l 625 193 q 571 90 611 133 q 478 24 531 47 q 372 1 425 1 q 243 35 301 1 q 153 138 185 68 q 103 323 121 211 q 85 553 85 435 q 90 671 85 617 q 108 760 96 725 q 142 813 119 796 q 199 831 164 831 q 262 799 239 831 q 290 713 285 768 q 298 599 296 667 q 302 465 300 532 q 308 351 304 397 q 351 228 317 268 q 436 189 386 189 q 549 244 510 189 q 588 400 588 300 q 582 513 588 450 q 570 636 576 576 q 564 735 564 696 q 586 828 564 800 q 647 857 608 857 q 703 839 681 857 q 740 789 726 821 q 774 675 760 747 q 796 511 788 603 q 804 318 804 419 q 783 85 804 163 q 710 8 763 8 m 461 875 q 329 905 382 875 q 276 997 276 935 q 328 1102 276 1061 q 478 1143 381 1143 q 608 1105 567 1143 q 650 1014 650 1067 q 599 914 650 953 q 461 875 549 875 m 453 950 q 530 965 499 950 q 561 1008 561 979 q 538 1055 561 1038 q 464 1072 514 1072 q 389 1051 413 1072 q 365 1007 365 1031 q 390 966 365 982 q 453 950 414 950 z "},"v":{"ha":807,"x_min":35,"x_max":772,"o":"m 125 874 q 206 832 179 874 q 250 704 232 790 q 293 534 265 631 q 356 336 321 438 q 429 142 392 235 l 435 142 q 497 325 468 228 q 545 516 525 422 q 572 683 565 610 q 601 812 581 774 q 668 850 622 850 q 744 811 717 850 q 772 690 772 772 q 758 543 772 621 q 719 389 743 465 q 664 247 694 313 q 592 112 628 169 q 512 22 556 54 q 406 -10 468 -10 q 292 38 339 -10 q 188 186 244 85 q 106 368 140 274 q 53 553 72 463 q 35 719 35 644 q 56 835 35 797 q 125 874 78 874 z "},"w":{"ha":1067,"x_min":35,"x_max":1032,"o":"m 35 564 q 69 772 35 708 q 158 836 103 836 q 208 813 190 836 q 232 752 225 790 q 239 667 239 714 q 240 527 239 607 q 242 363 240 447 q 247 207 244 279 l 253 207 q 340 506 296 389 q 430 678 383 622 q 524 735 476 735 q 622 678 575 735 q 713 508 668 622 q 806 221 758 394 l 811 221 q 817 472 815 340 q 818 714 818 604 q 844 831 818 793 q 918 868 871 868 q 1005 806 978 868 q 1032 640 1032 744 q 1024 477 1032 564 q 1003 310 1017 390 q 969 169 989 229 q 905 35 940 81 q 813 -11 869 -11 q 710 49 761 -11 q 615 231 660 110 q 533 532 571 351 l 528 532 q 442 244 492 360 q 338 69 393 128 q 229 11 283 11 q 134 63 172 11 q 71 221 96 114 q 51 337 60 275 q 39 458 43 399 q 35 564 35 518 z "},"ẃ":{"ha":1067,"x_min":35,"x_max":1032,"o":"m 35 564 q 69 772 35 708 q 158 836 103 836 q 208 813 190 836 q 232 752 225 790 q 239 667 239 714 q 240 527 239 607 q 242 363 240 447 q 247 207 244 279 l 253 207 q 340 506 296 389 q 430 678 383 622 q 524 735 476 735 q 622 678 575 735 q 713 508 668 622 q 806 221 758 394 l 811 221 q 817 472 815 340 q 818 714 818 604 q 844 831 818 793 q 918 868 871 868 q 1005 806 978 868 q 1032 640 1032 744 q 1024 477 1032 564 q 1003 310 1017 390 q 969 169 989 229 q 905 35 940 81 q 813 -11 869 -11 q 710 49 761 -11 q 615 231 660 110 q 533 532 571 351 l 528 532 q 442 244 492 360 q 338 69 393 128 q 229 11 283 11 q 134 63 172 11 q 71 221 96 114 q 51 337 60 275 q 39 458 43 399 q 35 564 35 518 m 415 924 q 444 974 415 946 q 521 1036 474 1001 q 610 1094 568 1069 q 685 1118 653 1118 q 733 1102 713 1118 q 767 1064 754 1086 q 779 1022 779 1042 q 753 978 779 996 q 676 942 728 960 q 592 917 636 928 q 509 899 547 906 q 446 893 471 893 q 424 902 432 893 q 415 924 415 911 z "},"ŵ":{"ha":1067,"x_min":35,"x_max":1032,"o":"m 35 564 q 69 772 35 708 q 158 836 103 836 q 208 813 190 836 q 232 752 225 790 q 239 667 239 714 q 240 527 239 607 q 242 363 240 447 q 247 207 244 279 l 253 207 q 340 506 296 389 q 430 678 383 622 q 524 735 476 735 q 622 678 575 735 q 713 508 668 622 q 806 221 758 394 l 811 221 q 817 472 815 340 q 818 714 818 604 q 844 831 818 793 q 918 868 871 868 q 1005 806 978 868 q 1032 640 1032 744 q 1024 477 1032 564 q 1003 310 1017 390 q 969 169 989 229 q 905 35 940 81 q 813 -11 869 -11 q 710 49 761 -11 q 615 231 660 110 q 533 532 571 351 l 528 532 q 442 244 492 360 q 338 69 393 128 q 229 11 283 11 q 134 63 172 11 q 71 221 96 114 q 51 337 60 275 q 39 458 43 399 q 35 564 35 518 m 539 1129 q 599 1116 561 1129 q 674 1081 638 1103 q 740 1029 717 1054 q 764 969 764 1004 q 742 922 764 939 q 689 904 721 904 q 598 945 644 904 q 517 1057 551 986 l 538 1061 q 442 936 489 975 q 357 897 394 897 q 319 910 335 897 q 304 946 304 924 q 329 1007 304 978 q 397 1067 354 1036 q 474 1112 438 1094 q 539 1129 510 1129 z "},"ẅ":{"ha":1067,"x_min":35,"x_max":1032,"o":"m 35 564 q 69 772 35 708 q 158 836 103 836 q 208 813 190 836 q 232 752 225 790 q 239 667 239 714 q 240 527 239 607 q 242 363 240 447 q 247 207 244 279 l 253 207 q 340 506 296 389 q 430 678 383 622 q 524 735 476 735 q 622 678 575 735 q 713 508 668 622 q 806 221 758 394 l 811 221 q 817 472 815 340 q 818 714 818 604 q 844 831 818 793 q 918 868 871 868 q 1005 806 978 868 q 1032 640 1032 744 q 1024 477 1032 564 q 1003 310 1017 390 q 969 169 989 229 q 905 35 940 81 q 813 -11 869 -11 q 710 49 761 -11 q 615 231 660 110 q 533 532 571 351 l 528 532 q 442 244 492 360 q 338 69 393 128 q 229 11 283 11 q 134 63 172 11 q 71 221 96 114 q 51 337 60 275 q 39 458 43 399 q 35 564 35 518 m 369 908 q 288 936 314 908 q 261 1001 261 964 q 296 1080 261 1053 q 393 1107 331 1107 q 474 1077 447 1107 q 500 1006 500 1047 q 463 933 500 958 q 369 908 426 908 m 693 1121 q 778 1090 751 1121 q 804 1019 804 1060 q 772 942 804 968 q 679 915 740 915 q 594 944 622 915 q 567 1015 567 974 q 601 1094 567 1067 q 693 1121 636 1121 z "},"ẁ":{"ha":1067,"x_min":35,"x_max":1032,"o":"m 35 564 q 69 772 35 708 q 158 836 103 836 q 208 813 190 836 q 232 752 225 790 q 239 667 239 714 q 240 527 239 607 q 242 363 240 447 q 247 207 244 279 l 253 207 q 340 506 296 389 q 430 678 383 622 q 524 735 476 735 q 622 678 575 735 q 713 508 668 622 q 806 221 758 394 l 811 221 q 817 472 815 340 q 818 714 818 604 q 844 831 818 793 q 918 868 871 868 q 1005 806 978 868 q 1032 640 1032 744 q 1024 477 1032 564 q 1003 310 1017 390 q 969 169 989 229 q 905 35 940 81 q 813 -11 869 -11 q 710 49 761 -11 q 615 231 660 110 q 533 532 571 351 l 528 532 q 442 244 492 360 q 338 69 393 128 q 229 11 283 11 q 134 63 172 11 q 71 221 96 114 q 51 337 60 275 q 39 458 43 399 q 35 564 35 518 m 651 924 q 644 902 651 911 q 621 893 636 893 q 558 899 596 893 q 476 917 519 906 q 390 942 432 928 q 313 978 339 960 q 288 1022 288 996 q 300 1064 288 1042 q 334 1102 313 1086 q 382 1118 356 1118 q 456 1094 414 1118 q 546 1036 499 1069 q 623 974 594 1001 q 651 924 651 946 z "},"x":{"ha":875,"x_min":29,"x_max":847,"o":"m 124 -12 q 57 16 85 -12 q 29 88 29 44 q 69 197 29 138 q 187 313 110 256 q 371 413 264 369 l 371 418 q 112 586 194 493 q 29 757 29 679 q 44 811 29 789 q 83 846 58 833 q 133 858 107 858 q 244 816 190 858 q 349 695 297 774 q 449 507 400 617 l 454 507 q 602 784 525 697 q 763 871 679 871 q 825 845 803 871 q 847 781 847 819 q 768 601 847 689 q 528 436 689 514 l 528 429 q 749 259 676 347 q 822 104 822 171 q 798 38 822 63 q 740 13 774 13 q 632 56 682 13 q 538 176 582 99 q 456 353 494 253 l 450 353 q 344 145 399 226 q 233 26 289 64 q 124 -12 178 -12 z "},"y":{"ha":853,"x_min":35,"x_max":818,"o":"m 222 -276 q 147 -196 147 -276 q 178 -90 147 -151 q 267 42 208 -29 q 411 186 326 113 l 410 175 q 130 497 225 358 q 35 738 35 636 q 60 815 35 788 q 129 843 86 843 q 311 710 221 843 q 482 304 401 576 l 488 304 q 600 724 540 590 q 742 858 660 858 q 799 831 781 858 q 818 756 818 804 q 801 649 818 715 q 752 501 783 583 q 680 329 721 418 q 590 154 639 240 q 379 -173 467 -69 q 222 -276 292 -276 z "},"ý":{"ha":853,"x_min":35,"x_max":818,"o":"m 222 -276 q 147 -196 147 -276 q 178 -90 147 -151 q 267 42 208 -29 q 411 186 326 113 l 410 175 q 130 497 225 358 q 35 738 35 636 q 60 815 35 788 q 129 843 86 843 q 311 710 221 843 q 482 304 401 576 l 488 304 q 600 724 540 590 q 742 858 660 858 q 799 831 781 858 q 818 756 818 804 q 801 649 818 715 q 752 501 783 583 q 680 329 721 418 q 590 154 639 240 q 379 -173 467 -69 q 222 -276 292 -276 m 317 913 q 346 963 317 935 q 422 1025 375 990 q 512 1083 469 1058 q 586 1107 554 1107 q 635 1091 614 1107 q 668 1053 656 1075 q 681 1011 681 1031 q 655 967 681 985 q 578 931 629 949 q 493 906 538 917 q 410 888 449 894 q 347 882 372 882 q 325 891 333 882 q 317 913 317 900 z "},"ŷ":{"ha":853,"x_min":35,"x_max":818,"o":"m 222 -276 q 147 -196 147 -276 q 178 -90 147 -151 q 267 42 208 -29 q 411 186 326 113 l 410 175 q 130 497 225 358 q 35 738 35 636 q 60 815 35 788 q 129 843 86 843 q 311 710 221 843 q 482 304 401 576 l 488 304 q 600 724 540 590 q 742 858 660 858 q 799 831 781 858 q 818 756 818 804 q 801 649 818 715 q 752 501 783 583 q 680 329 721 418 q 590 154 639 240 q 379 -173 467 -69 q 222 -276 292 -276 m 440 1118 q 501 1105 463 1118 q 575 1069 539 1092 q 642 1018 618 1043 q 665 958 665 993 q 644 910 665 928 q 590 893 622 893 q 499 934 546 893 q 418 1046 453 975 l 439 1050 q 343 925 390 964 q 258 886 296 886 q 221 899 236 886 q 206 935 206 913 q 231 996 206 967 q 299 1056 256 1025 q 375 1101 339 1083 q 440 1118 411 1118 z "},"ÿ":{"ha":853,"x_min":35,"x_max":818,"o":"m 222 -276 q 147 -196 147 -276 q 178 -90 147 -151 q 267 42 208 -29 q 411 186 326 113 l 410 175 q 130 497 225 358 q 35 738 35 636 q 60 815 35 788 q 129 843 86 843 q 311 710 221 843 q 482 304 401 576 l 488 304 q 600 724 540 590 q 742 858 660 858 q 799 831 781 858 q 818 756 818 804 q 801 649 818 715 q 752 501 783 583 q 680 329 721 418 q 590 154 639 240 q 379 -173 467 -69 q 222 -276 292 -276 m 271 897 q 189 925 215 897 q 163 990 163 953 q 197 1069 163 1042 q 294 1096 232 1096 q 375 1066 349 1096 q 401 994 401 1036 q 365 922 401 947 q 271 897 328 897 m 594 1110 q 679 1079 653 1110 q 706 1008 706 1049 q 674 931 706 957 q 581 904 642 904 q 496 933 524 904 q 468 1004 468 963 q 503 1083 468 1056 q 594 1110 538 1110 z "},"ỳ":{"ha":853,"x_min":35,"x_max":818,"o":"m 222 -276 q 147 -196 147 -276 q 178 -90 147 -151 q 267 42 208 -29 q 411 186 326 113 l 410 175 q 130 497 225 358 q 35 738 35 636 q 60 815 35 788 q 129 843 86 843 q 311 710 221 843 q 482 304 401 576 l 488 304 q 600 724 540 590 q 742 858 660 858 q 799 831 781 858 q 818 756 818 804 q 801 649 818 715 q 752 501 783 583 q 680 329 721 418 q 590 154 639 240 q 379 -173 467 -69 q 222 -276 292 -276 m 553 913 q 545 891 553 900 q 522 882 538 882 q 459 888 497 882 q 377 906 421 894 q 292 931 333 917 q 215 967 240 949 q 189 1011 189 985 q 201 1053 189 1031 q 235 1091 214 1075 q 283 1107 257 1107 q 358 1083 315 1107 q 447 1025 400 1058 q 524 963 496 990 q 553 913 553 935 z "},"z":{"ha":801,"x_min":49,"x_max":753,"o":"m 49 147 q 115 300 49 214 q 304 486 182 386 q 593 690 426 586 l 593 696 q 453 663 529 678 q 306 640 376 649 q 188 631 235 631 q 83 653 115 631 q 50 719 50 675 q 73 776 50 751 q 135 815 96 801 q 232 844 175 832 q 353 864 289 857 q 476 871 417 871 q 629 859 568 871 q 722 816 690 847 q 753 725 753 785 q 721 633 753 686 q 622 512 689 579 q 447 361 554 444 q 190 178 340 278 l 190 172 q 307 201 240 189 q 447 222 374 214 q 586 229 519 229 q 706 208 669 229 q 742 138 742 186 q 656 32 742 74 q 404 -10 569 -10 q 136 32 224 -10 q 49 147 49 74 z "}}}
